<svg id="Layer_1" data-name="Layer 1" xmlns="http://www.w3.org/2000/svg" viewBox="0 0 248.8 251.66"><defs><style>.cls-1{fill:#ee3e45;}.cls-2{fill:#f48e7e;}.cls-3{fill:#fbd2c0;}.cls-4{fill:#7daa7d;}.cls-5{fill:#0b8743;}.cls-6{opacity:0.5;}.cls-10,.cls-11,.cls-7,.cls-8,.cls-9{fill:none;stroke-linecap:round;stroke-linejoin:round;stroke-width:2.76px;}.cls-7{stroke:#ee3e45;}.cls-8{stroke:#f48e7e;}.cls-9{stroke:#fbd2c0;}.cls-10{stroke:#0b8743;}.cls-11{stroke:#7daa7d;}</style></defs><title>0102</title><g id="favorite2"><circle class="cls-1" cx="62.5" cy="12.5" r="12.5"/><circle class="cls-1" cx="112.5" cy="12.5" r="12.5"/><circle class="cls-1" cx="162.5" cy="12.5" r="12.5"/><circle class="cls-1" cx="12.5" cy="37.68" r="12.5"/><circle class="cls-1" cx="62.5" cy="37.68" r="12.5"/><circle class="cls-1" cx="162.5" cy="37.68" r="12.5"/><circle class="cls-2" cx="212.5" cy="37.68" r="12.5"/><circle class="cls-1" cx="62.5" cy="62.87" r="12.5"/><circle class="cls-2" cx="212.5" cy="62.87" r="12.5"/><circle class="cls-2" cx="12.5" cy="88.05" r="12.5"/><circle class="cls-2" cx="162.5" cy="88.05" r="12.5"/><circle class="cls-3" cx="12.5" cy="113.24" r="12.5"/><circle class="cls-3" cx="62.5" cy="113.24" r="12.5"/><circle class="cls-2" cx="162.5" cy="113.24" r="12.5"/><circle class="cls-3" cx="62.5" cy="138.42" r="12.5"/><circle class="cls-4" cx="212.5" cy="138.42" r="12.5"/><circle class="cls-5" cx="12.5" cy="163.61" r="12.5"/><circle class="cls-4" cx="162.5" cy="163.61" r="12.5"/><circle class="cls-4" cx="12.5" cy="188.79" r="12.5"/><circle class="cls-2" cx="62.5" cy="188.79" r="12.5"/><circle class="cls-5" cx="212.5" cy="188.79" r="12.5"/><circle class="cls-4" cx="62.5" cy="213.98" r="12.5"/><circle class="cls-4" cx="212.5" cy="213.98" r="12.5"/><circle class="cls-4" cx="162.5" cy="239.16" r="12.5"/><g class="cls-6"><path class="cls-7" d="M25.54,22.12c.1.18,2.16-1.48,2.26-1.31S22.32,29.74,22.46,30c.26.46,13.3-8.29,13.57-7.83s-12.33,13.57-12.1,14,16.41-10.19,16.72-9.65S27.12,39.75,27.36,40.16,42.13,31,42.42,31.47C42.61,31.8,31,41.8,31.18,42.13s10.86-6.8,11.09-6.4c.11.18-5.18,6.61-5.07,6.8s2.16-1.49,2.26-1.31" transform="translate(-20 -19.17)"/><path class="cls-7" d="M50.54,22.12c.1.18,2.16-1.48,2.26-1.31S47.32,29.74,47.46,30c.26.46,13.3-8.29,13.57-7.83s-12.33,13.57-12.1,14,16.41-10.19,16.72-9.65S52.12,39.75,52.36,40.16,67.13,31,67.42,31.47C67.61,31.8,56,41.8,56.18,42.13s10.86-6.8,11.09-6.4c.11.18-5.18,6.61-5.07,6.8s2.16-1.49,2.26-1.31" transform="translate(-20 -19.17)"/><path class="cls-7" d="M100.54,22.12c.1.18,2.16-1.48,2.26-1.31S97.32,29.74,97.46,30c.26.46,13.3-8.29,13.57-7.83s-12.33,13.57-12.1,14,16.41-10.19,16.72-9.65-13.53,13.29-13.29,13.7,14.77-9.19,15.06-8.69c.19.33-11.43,10.33-11.24,10.66s10.86-6.8,11.09-6.4c.11.18-5.18,6.61-5.07,6.8s2.16-1.49,2.26-1.31" transform="translate(-20 -19.17)"/><path class="cls-7" d="M150.54,22.12c.1.18,2.16-1.48,2.26-1.31s-5.48,8.93-5.34,9.16c.26.46,13.3-8.29,13.57-7.83s-12.33,13.57-12.1,14,16.41-10.19,16.72-9.65-13.53,13.29-13.29,13.7,14.77-9.19,15.06-8.69c.19.33-11.43,10.33-11.24,10.66s10.86-6.8,11.09-6.4c.11.18-5.18,6.61-5.07,6.8s2.16-1.49,2.26-1.31" transform="translate(-20 -19.17)"/><path class="cls-7" d="M200.54,22.12c.1.18,2.16-1.48,2.26-1.31s-5.48,8.93-5.34,9.16c.26.46,13.3-8.29,13.57-7.83s-12.33,13.57-12.1,14,16.41-10.19,16.72-9.65-13.53,13.29-13.29,13.7,14.77-9.19,15.06-8.69c.19.33-11.43,10.33-11.24,10.66s10.86-6.8,11.09-6.4c.11.18-5.18,6.61-5.07,6.8s2.16-1.49,2.26-1.31" transform="translate(-20 -19.17)"/><path class="cls-7" d="M225.54,22.12c.1.18,2.16-1.48,2.26-1.31s-5.48,8.93-5.34,9.16c.26.46,13.3-8.29,13.57-7.83s-12.33,13.57-12.1,14,16.41-10.19,16.72-9.65-13.53,13.29-13.29,13.7,14.77-9.19,15.06-8.69c.19.33-11.43,10.33-11.24,10.66s10.86-6.8,11.09-6.4c.11.18-5.18,6.61-5.07,6.8s2.16-1.49,2.26-1.31" transform="translate(-20 -19.17)"/><path class="cls-8" d="M250.54,22.12c.1.18,2.16-1.48,2.26-1.31s-5.48,8.93-5.34,9.16c.26.46,13.3-8.29,13.57-7.83s-12.33,13.57-12.1,14,16.41-10.19,16.72-9.65-13.53,13.29-13.29,13.7,14.77-9.19,15.06-8.69c.19.33-11.43,10.33-11.24,10.66s10.86-6.8,11.09-6.4c.11.18-5.18,6.61-5.07,6.8s2.16-1.49,2.26-1.31" transform="translate(-20 -19.17)"/><path class="cls-7" d="M50.54,47.31c.1.17,2.16-1.49,2.26-1.31s-5.48,8.93-5.34,9.16c.26.46,13.3-8.29,13.57-7.84s-12.33,13.57-12.1,14S65.34,51.1,65.65,51.64,52.12,64.93,52.36,65.35s14.77-9.2,15.06-8.7C67.61,57,56,67,56.18,67.32S67,60.52,67.27,60.91c.11.19-5.18,6.62-5.07,6.8s2.16-1.48,2.26-1.31" transform="translate(-20 -19.17)"/><path class="cls-7" d="M100.54,47.31c.1.17,2.16-1.49,2.26-1.31s-5.48,8.93-5.34,9.16c.26.46,13.3-8.29,13.57-7.84s-12.33,13.57-12.1,14,16.41-10.19,16.72-9.65-13.53,13.29-13.29,13.71,14.77-9.2,15.06-8.7C117.61,57,106,67,106.18,67.32s10.86-6.8,11.09-6.41c.11.19-5.18,6.62-5.07,6.8s2.16-1.48,2.26-1.31" transform="translate(-20 -19.17)"/><path class="cls-8" d="M125.54,47.31c.1.17,2.16-1.49,2.26-1.31s-5.48,8.93-5.34,9.16c.26.46,13.3-8.29,13.57-7.84s-12.33,13.57-12.1,14,16.41-10.19,16.72-9.65-13.53,13.29-13.29,13.71,14.77-9.2,15.06-8.7C142.61,57,131,67,131.18,67.32s10.86-6.8,11.09-6.41c.11.19-5.18,6.62-5.07,6.8s2.16-1.48,2.26-1.31" transform="translate(-20 -19.17)"/><path class="cls-8" d="M150.54,47.31c.1.17,2.16-1.49,2.26-1.31s-5.48,8.93-5.34,9.16c.26.46,13.3-8.29,13.57-7.84s-12.33,13.57-12.1,14,16.41-10.19,16.72-9.65-13.53,13.29-13.29,13.71,14.77-9.2,15.06-8.7C167.61,57,156,67,156.18,67.32s10.86-6.8,11.09-6.41c.11.19-5.18,6.62-5.07,6.8s2.16-1.48,2.26-1.31" transform="translate(-20 -19.17)"/><path class="cls-8" d="M200.54,47.31c.1.17,2.16-1.49,2.26-1.31s-5.48,8.93-5.34,9.16c.26.46,13.3-8.29,13.57-7.84s-12.33,13.57-12.1,14,16.41-10.19,16.72-9.65-13.53,13.29-13.29,13.71,14.77-9.2,15.06-8.7C217.61,57,206,67,206.18,67.32s10.86-6.8,11.09-6.41c.11.19-5.18,6.62-5.07,6.8s2.16-1.48,2.26-1.31" transform="translate(-20 -19.17)"/><path class="cls-9" d="M250.54,47.31c.1.17,2.16-1.49,2.26-1.31s-5.48,8.93-5.34,9.16c.26.46,13.3-8.29,13.57-7.84s-12.33,13.57-12.1,14,16.41-10.19,16.72-9.65-13.53,13.29-13.29,13.71,14.77-9.2,15.06-8.7C267.61,57,256,67,256.18,67.32s10.86-6.8,11.09-6.41c.11.19-5.18,6.62-5.07,6.8s2.16-1.48,2.26-1.31" transform="translate(-20 -19.17)"/><path class="cls-7" d="M25.54,72.49c.1.18,2.16-1.48,2.26-1.31s-5.48,8.93-5.34,9.16c.26.46,13.3-8.29,13.57-7.83s-12.33,13.57-12.1,14,16.41-10.19,16.72-9.65S27.12,90.12,27.36,90.53s14.77-9.19,15.06-8.69c.19.33-11.43,10.33-11.24,10.66S42,85.7,42.27,86.1c.11.18-5.18,6.61-5.07,6.79s2.16-1.48,2.26-1.3" transform="translate(-20 -19.17)"/><path class="cls-7" d="M50.54,72.49c.1.18,2.16-1.48,2.26-1.31s-5.48,8.93-5.34,9.16c.26.46,13.3-8.29,13.57-7.83s-12.33,13.57-12.1,14,16.41-10.19,16.72-9.65S52.12,90.12,52.36,90.53s14.77-9.19,15.06-8.69c.19.33-11.43,10.33-11.24,10.66S67,85.7,67.27,86.1c.11.18-5.18,6.61-5.07,6.79s2.16-1.48,2.26-1.3" transform="translate(-20 -19.17)"/><path class="cls-7" d="M100.54,72.49c.1.18,2.16-1.48,2.26-1.31s-5.48,8.93-5.34,9.16c.26.46,13.3-8.29,13.57-7.83s-12.33,13.57-12.1,14,16.41-10.19,16.72-9.65-13.53,13.29-13.29,13.7,14.77-9.19,15.06-8.69c.19.33-11.43,10.33-11.24,10.66s10.86-6.8,11.09-6.4c.11.18-5.18,6.61-5.07,6.79s2.16-1.48,2.26-1.3" transform="translate(-20 -19.17)"/><path class="cls-8" d="M125.54,72.49c.1.18,2.16-1.48,2.26-1.31s-5.48,8.93-5.34,9.16c.26.46,13.3-8.29,13.57-7.83s-12.33,13.57-12.1,14,16.41-10.19,16.72-9.65-13.53,13.29-13.29,13.7,14.77-9.19,15.06-8.69c.19.33-11.43,10.33-11.24,10.66s10.86-6.8,11.09-6.4c.11.18-5.18,6.61-5.07,6.79s2.16-1.48,2.26-1.3" transform="translate(-20 -19.17)"/><path class="cls-8" d="M150.54,72.49c.1.18,2.16-1.48,2.26-1.31s-5.48,8.93-5.34,9.16c.26.46,13.3-8.29,13.57-7.83s-12.33,13.57-12.1,14,16.41-10.19,16.72-9.65-13.53,13.29-13.29,13.7,14.77-9.19,15.06-8.69c.19.33-11.43,10.33-11.24,10.66s10.86-6.8,11.09-6.4c.11.18-5.18,6.61-5.07,6.79s2.16-1.48,2.26-1.3" transform="translate(-20 -19.17)"/><path class="cls-7" d="M175.54,72.49c.1.18,2.16-1.48,2.26-1.31s-5.48,8.93-5.34,9.16c.26.46,13.3-8.29,13.57-7.83s-12.33,13.57-12.1,14,16.41-10.19,16.72-9.65-13.53,13.29-13.29,13.7,14.77-9.19,15.06-8.69c.19.33-11.43,10.33-11.24,10.66s10.86-6.8,11.09-6.4c.11.18-5.18,6.61-5.07,6.79s2.16-1.48,2.26-1.3" transform="translate(-20 -19.17)"/><path class="cls-8" d="M200.54,72.49c.1.18,2.16-1.48,2.26-1.31s-5.48,8.93-5.34,9.16c.26.46,13.3-8.29,13.57-7.83s-12.33,13.57-12.1,14,16.41-10.19,16.72-9.65-13.53,13.29-13.29,13.7,14.77-9.19,15.06-8.69c.19.33-11.43,10.33-11.24,10.66s10.86-6.8,11.09-6.4c.11.18-5.18,6.61-5.07,6.79s2.16-1.48,2.26-1.3" transform="translate(-20 -19.17)"/><path class="cls-9" d="M250.54,72.49c.1.18,2.16-1.48,2.26-1.31s-5.48,8.93-5.34,9.16c.26.46,13.3-8.29,13.57-7.83s-12.33,13.57-12.1,14,16.41-10.19,16.72-9.65-13.53,13.29-13.29,13.7,14.77-9.19,15.06-8.69c.19.33-11.43,10.33-11.24,10.66s10.86-6.8,11.09-6.4c.11.18-5.18,6.61-5.07,6.79s2.16-1.48,2.26-1.3" transform="translate(-20 -19.17)"/><path class="cls-8" d="M50.54,97.67c.1.18,2.16-1.48,2.26-1.3s-5.48,8.93-5.34,9.16c.26.46,13.3-8.3,13.57-7.84s-12.33,13.57-12.1,14S65.34,101.47,65.65,102s-13.53,13.29-13.29,13.7,14.77-9.19,15.06-8.69c.19.33-11.43,10.33-11.24,10.67s10.86-6.8,11.09-6.41c.11.19-5.18,6.62-5.07,6.8s2.16-1.48,2.26-1.31" transform="translate(-20 -19.17)"/><path class="cls-8" d="M75.54,97.67c.1.18,2.16-1.48,2.26-1.3s-5.48,8.93-5.34,9.16c.26.46,13.3-8.3,13.57-7.84s-12.33,13.57-12.1,14S90.34,101.47,90.65,102s-13.53,13.29-13.29,13.7,14.77-9.19,15.06-8.69c.19.33-11.43,10.33-11.24,10.67s10.86-6.8,11.09-6.41c.11.19-5.18,6.62-5.07,6.8s2.16-1.48,2.26-1.31" transform="translate(-20 -19.17)"/><path class="cls-9" d="M100.54,97.67c.1.18,2.16-1.48,2.26-1.3s-5.48,8.93-5.34,9.16c.26.46,13.3-8.3,13.57-7.84s-12.33,13.57-12.1,14,16.41-10.19,16.72-9.65-13.53,13.29-13.29,13.7,14.77-9.19,15.06-8.69c.19.33-11.43,10.33-11.24,10.67s10.86-6.8,11.09-6.41c.11.19-5.18,6.62-5.07,6.8s2.16-1.48,2.26-1.31" transform="translate(-20 -19.17)"/><path class="cls-9" d="M125.54,97.67c.1.18,2.16-1.48,2.26-1.3s-5.48,8.93-5.34,9.16c.26.46,13.3-8.3,13.57-7.84s-12.33,13.57-12.1,14,16.41-10.19,16.72-9.65-13.53,13.29-13.29,13.7,14.77-9.19,15.06-8.69c.19.33-11.43,10.33-11.24,10.67s10.86-6.8,11.09-6.41c.11.19-5.18,6.62-5.07,6.8s2.16-1.48,2.26-1.31" transform="translate(-20 -19.17)"/><path class="cls-8" d="M150.54,97.67c.1.18,2.16-1.48,2.26-1.3s-5.48,8.93-5.34,9.16c.26.46,13.3-8.3,13.57-7.84s-12.33,13.57-12.1,14,16.41-10.19,16.72-9.65-13.53,13.29-13.29,13.7,14.77-9.19,15.06-8.69c.19.33-11.43,10.33-11.24,10.67s10.86-6.8,11.09-6.41c.11.19-5.18,6.62-5.07,6.8s2.16-1.48,2.26-1.31" transform="translate(-20 -19.17)"/><path class="cls-9" d="M200.54,97.67c.1.18,2.16-1.48,2.26-1.3s-5.48,8.93-5.34,9.16c.26.46,13.3-8.3,13.57-7.84s-12.33,13.57-12.1,14,16.41-10.19,16.72-9.65-13.53,13.29-13.29,13.7,14.77-9.19,15.06-8.69c.19.33-11.43,10.33-11.24,10.67s10.86-6.8,11.09-6.41c.11.19-5.18,6.62-5.07,6.8s2.16-1.48,2.26-1.31" transform="translate(-20 -19.17)"/><path class="cls-9" d="M225.54,97.67c.1.18,2.16-1.48,2.26-1.3s-5.48,8.93-5.34,9.16c.26.46,13.3-8.3,13.57-7.84s-12.33,13.57-12.1,14,16.41-10.19,16.72-9.65-13.53,13.29-13.29,13.7,14.77-9.19,15.06-8.69c.19.33-11.43,10.33-11.24,10.67s10.86-6.8,11.09-6.41c.11.19-5.18,6.62-5.07,6.8s2.16-1.48,2.26-1.31" transform="translate(-20 -19.17)"/><path class="cls-10" d="M250.54,97.67c.1.18,2.16-1.48,2.26-1.3s-5.48,8.93-5.34,9.16c.26.46,13.3-8.3,13.57-7.84s-12.33,13.57-12.1,14,16.41-10.19,16.72-9.65-13.53,13.29-13.29,13.7,14.77-9.19,15.06-8.69c.19.33-11.43,10.33-11.24,10.67s10.86-6.8,11.09-6.41c.11.19-5.18,6.62-5.07,6.8s2.16-1.48,2.26-1.31" transform="translate(-20 -19.17)"/><path class="cls-7" d="M50.54,122.86c.1.18,2.16-1.48,2.26-1.31s-5.48,8.93-5.34,9.16c.26.46,13.3-8.29,13.57-7.83s-12.33,13.57-12.1,14,16.41-10.19,16.72-9.66-13.53,13.3-13.29,13.71,14.77-9.19,15.06-8.7S56,142.54,56.18,142.87s10.86-6.8,11.09-6.4c.11.18-5.18,6.61-5.07,6.79s2.16-1.48,2.26-1.3" transform="translate(-20 -19.17)"/><path class="cls-8" d="M100.54,122.86c.1.18,2.16-1.48,2.26-1.31s-5.48,8.93-5.34,9.16c.26.46,13.3-8.29,13.57-7.83s-12.33,13.57-12.1,14,16.41-10.19,16.72-9.66-13.53,13.3-13.29,13.71,14.77-9.19,15.06-8.7S106,142.54,106.18,142.87s10.86-6.8,11.09-6.4c.11.18-5.18,6.61-5.07,6.79s2.16-1.48,2.26-1.3" transform="translate(-20 -19.17)"/><path class="cls-11" d="M125.54,122.86c.1.18,2.16-1.48,2.26-1.31s-5.48,8.93-5.34,9.16c.26.46,13.3-8.29,13.57-7.83s-12.33,13.57-12.1,14,16.41-10.19,16.72-9.66-13.53,13.3-13.29,13.71,14.77-9.19,15.06-8.7S131,142.54,131.18,142.87s10.86-6.8,11.09-6.4c.11.18-5.18,6.61-5.07,6.79s2.16-1.48,2.26-1.3" transform="translate(-20 -19.17)"/><path class="cls-9" d="M150.54,122.86c.1.18,2.16-1.48,2.26-1.31s-5.48,8.93-5.34,9.16c.26.46,13.3-8.29,13.57-7.83s-12.33,13.57-12.1,14,16.41-10.19,16.72-9.66-13.53,13.3-13.29,13.71,14.77-9.19,15.06-8.7S156,142.54,156.18,142.87s10.86-6.8,11.09-6.4c.11.18-5.18,6.61-5.07,6.79s2.16-1.48,2.26-1.3" transform="translate(-20 -19.17)"/><path class="cls-9" d="M200.54,122.86c.1.18,2.16-1.48,2.26-1.31s-5.48,8.93-5.34,9.16c.26.46,13.3-8.29,13.57-7.83s-12.33,13.57-12.1,14,16.41-10.19,16.72-9.66-13.53,13.3-13.29,13.71,14.77-9.19,15.06-8.7S206,142.54,206.18,142.87s10.86-6.8,11.09-6.4c.11.18-5.18,6.61-5.07,6.79s2.16-1.48,2.26-1.3" transform="translate(-20 -19.17)"/><path class="cls-9" d="M225.54,122.86c.1.18,2.16-1.48,2.26-1.31s-5.48,8.93-5.34,9.16c.26.46,13.3-8.29,13.57-7.83s-12.33,13.57-12.1,14,16.41-10.19,16.72-9.66-13.53,13.3-13.29,13.71,14.77-9.19,15.06-8.7S231,142.54,231.18,142.87s10.86-6.8,11.09-6.4c.11.18-5.18,6.61-5.07,6.79s2.16-1.48,2.26-1.3" transform="translate(-20 -19.17)"/><path class="cls-10" d="M250.54,122.86c.1.18,2.16-1.48,2.26-1.31s-5.48,8.93-5.34,9.16c.26.46,13.3-8.29,13.57-7.83s-12.33,13.57-12.1,14,16.41-10.19,16.72-9.66-13.53,13.3-13.29,13.71,14.77-9.19,15.06-8.7S256,142.54,256.18,142.87s10.86-6.8,11.09-6.4c.11.18-5.18,6.61-5.07,6.79s2.16-1.48,2.26-1.3" transform="translate(-20 -19.17)"/><path class="cls-9" d="M25.54,148c.1.18,2.16-1.48,2.26-1.3s-5.48,8.93-5.34,9.16c.26.46,13.3-8.3,13.57-7.84s-12.33,13.57-12.1,14,16.41-10.19,16.72-9.65-13.53,13.29-13.29,13.7,14.77-9.19,15.06-8.69c.19.33-11.43,10.33-11.24,10.67s10.86-6.8,11.09-6.41c.11.19-5.18,6.61-5.07,6.8s2.16-1.49,2.26-1.31" transform="translate(-20 -19.17)"/><path class="cls-9" d="M50.54,148c.1.18,2.16-1.48,2.26-1.3s-5.48,8.93-5.34,9.16c.26.46,13.3-8.3,13.57-7.84s-12.33,13.57-12.1,14,16.41-10.19,16.72-9.65-13.53,13.29-13.29,13.7,14.77-9.19,15.06-8.69c.19.33-11.43,10.33-11.24,10.67s10.86-6.8,11.09-6.41c.11.19-5.18,6.61-5.07,6.8s2.16-1.49,2.26-1.31" transform="translate(-20 -19.17)"/><path class="cls-11" d="M100.54,148c.1.18,2.16-1.48,2.26-1.3s-5.48,8.93-5.34,9.16c.26.46,13.3-8.3,13.57-7.84s-12.33,13.57-12.1,14,16.41-10.19,16.72-9.65-13.53,13.29-13.29,13.7,14.77-9.19,15.06-8.69c.19.33-11.43,10.33-11.24,10.67s10.86-6.8,11.09-6.41c.11.19-5.18,6.61-5.07,6.8s2.16-1.49,2.26-1.31" transform="translate(-20 -19.17)"/><path class="cls-9" d="M125.54,148c.1.18,2.16-1.48,2.26-1.3s-5.48,8.93-5.34,9.16c.26.46,13.3-8.3,13.57-7.84s-12.33,13.57-12.1,14,16.41-10.19,16.72-9.65-13.53,13.29-13.29,13.7,14.77-9.19,15.06-8.69c.19.33-11.43,10.33-11.24,10.67s10.86-6.8,11.09-6.41c.11.19-5.18,6.61-5.07,6.8s2.16-1.49,2.26-1.31" transform="translate(-20 -19.17)"/><path class="cls-9" d="M150.54,148c.1.18,2.16-1.48,2.26-1.3s-5.48,8.93-5.34,9.16c.26.46,13.3-8.3,13.57-7.84s-12.33,13.57-12.1,14,16.41-10.19,16.72-9.65-13.53,13.29-13.29,13.7,14.77-9.19,15.06-8.69c.19.33-11.43,10.33-11.24,10.67s10.86-6.8,11.09-6.41c.11.19-5.18,6.61-5.07,6.8s2.16-1.49,2.26-1.31" transform="translate(-20 -19.17)"/><path class="cls-9" d="M175.54,148c.1.18,2.16-1.48,2.26-1.3s-5.48,8.93-5.34,9.16c.26.46,13.3-8.3,13.57-7.84s-12.33,13.57-12.1,14,16.41-10.19,16.72-9.65-13.53,13.29-13.29,13.7,14.77-9.19,15.06-8.69c.19.33-11.43,10.33-11.24,10.67s10.86-6.8,11.09-6.41c.11.19-5.18,6.61-5.07,6.8s2.16-1.49,2.26-1.31" transform="translate(-20 -19.17)"/><path class="cls-11" d="M200.54,148c.1.18,2.16-1.48,2.26-1.3s-5.48,8.93-5.34,9.16c.26.46,13.3-8.3,13.57-7.84s-12.33,13.57-12.1,14,16.41-10.19,16.72-9.65-13.53,13.29-13.29,13.7,14.77-9.19,15.06-8.69c.19.33-11.43,10.33-11.24,10.67s10.86-6.8,11.09-6.41c.11.19-5.18,6.61-5.07,6.8s2.16-1.49,2.26-1.31" transform="translate(-20 -19.17)"/><path class="cls-11" d="M250.54,148c.1.18,2.16-1.48,2.26-1.3s-5.48,8.93-5.34,9.16c.26.46,13.3-8.3,13.57-7.84s-12.33,13.57-12.1,14,16.41-10.19,16.72-9.65-13.53,13.29-13.29,13.7,14.77-9.19,15.06-8.69c.19.33-11.43,10.33-11.24,10.67s10.86-6.8,11.09-6.41c.11.19-5.18,6.61-5.07,6.8s2.16-1.49,2.26-1.31" transform="translate(-20 -19.17)"/><path class="cls-10" d="M50.54,173.23c.1.17,2.16-1.49,2.26-1.31s-5.48,8.93-5.34,9.16c.26.46,13.3-8.29,13.57-7.83s-12.33,13.57-12.1,14S65.34,177,65.65,177.56s-13.53,13.29-13.29,13.71,14.77-9.19,15.06-8.7S56,192.9,56.18,193.24s10.86-6.8,11.09-6.4c.11.18-5.18,6.61-5.07,6.79s2.16-1.48,2.26-1.3" transform="translate(-20 -19.17)"/><path class="cls-11" d="M75.54,173.23c.1.17,2.16-1.49,2.26-1.31s-5.48,8.93-5.34,9.16c.26.46,13.3-8.29,13.57-7.83s-12.33,13.57-12.1,14S90.34,177,90.65,177.56s-13.53,13.29-13.29,13.71,14.77-9.19,15.06-8.7S81,192.9,81.18,193.24s10.86-6.8,11.09-6.4c.11.18-5.18,6.61-5.07,6.79s2.16-1.48,2.26-1.3" transform="translate(-20 -19.17)"/><path class="cls-8" d="M100.54,173.23c.1.17,2.16-1.49,2.26-1.31s-5.48,8.93-5.34,9.16c.26.46,13.3-8.29,13.57-7.83s-12.33,13.57-12.1,14,16.41-10.19,16.72-9.66-13.53,13.29-13.29,13.71,14.77-9.19,15.06-8.7S106,192.9,106.18,193.24s10.86-6.8,11.09-6.4c.11.18-5.18,6.61-5.07,6.79s2.16-1.48,2.26-1.3" transform="translate(-20 -19.17)"/><path class="cls-10" d="M125.54,173.23c.1.17,2.16-1.49,2.26-1.31s-5.48,8.93-5.34,9.16c.26.46,13.3-8.29,13.57-7.83s-12.33,13.57-12.1,14,16.41-10.19,16.72-9.66-13.53,13.29-13.29,13.71,14.77-9.19,15.06-8.7S131,192.9,131.18,193.24s10.86-6.8,11.09-6.4c.11.18-5.18,6.61-5.07,6.79s2.16-1.48,2.26-1.3" transform="translate(-20 -19.17)"/><path class="cls-11" d="M150.54,173.23c.1.17,2.16-1.49,2.26-1.31s-5.48,8.93-5.34,9.16c.26.46,13.3-8.29,13.57-7.83s-12.33,13.57-12.1,14,16.41-10.19,16.72-9.66-13.53,13.29-13.29,13.71,14.77-9.19,15.06-8.7S156,192.9,156.18,193.24s10.86-6.8,11.09-6.4c.11.18-5.18,6.61-5.07,6.79s2.16-1.48,2.26-1.3" transform="translate(-20 -19.17)"/><path class="cls-11" d="M200.54,173.23c.1.17,2.16-1.49,2.26-1.31s-5.48,8.93-5.34,9.16c.26.46,13.3-8.29,13.57-7.83s-12.33,13.57-12.1,14,16.41-10.19,16.72-9.66-13.53,13.29-13.29,13.71,14.77-9.19,15.06-8.7S206,192.9,206.18,193.24s10.86-6.8,11.09-6.4c.11.18-5.18,6.61-5.07,6.79s2.16-1.48,2.26-1.3" transform="translate(-20 -19.17)"/><path class="cls-8" d="M225.54,173.23c.1.17,2.16-1.49,2.26-1.31s-5.48,8.93-5.34,9.16c.26.46,13.3-8.29,13.57-7.83s-12.33,13.57-12.1,14,16.41-10.19,16.72-9.66-13.53,13.29-13.29,13.71,14.77-9.19,15.06-8.7S231,192.9,231.18,193.24s10.86-6.8,11.09-6.4c.11.18-5.18,6.61-5.07,6.79s2.16-1.48,2.26-1.3" transform="translate(-20 -19.17)"/><path class="cls-10" d="M250.54,173.23c.1.17,2.16-1.49,2.26-1.31s-5.48,8.93-5.34,9.16c.26.46,13.3-8.29,13.57-7.83s-12.33,13.57-12.1,14,16.41-10.19,16.72-9.66-13.53,13.29-13.29,13.71,14.77-9.19,15.06-8.7S256,192.9,256.18,193.24s10.86-6.8,11.09-6.4c.11.18-5.18,6.61-5.07,6.79s2.16-1.48,2.26-1.3" transform="translate(-20 -19.17)"/><path class="cls-8" d="M50.54,198.41c.1.18,2.16-1.48,2.26-1.3s-5.48,8.93-5.34,9.16c.26.45,13.3-8.3,13.57-7.84S48.7,212,48.93,212.4s16.41-10.19,16.72-9.65S52.12,216,52.36,216.45s14.77-9.19,15.06-8.69c.19.33-11.43,10.33-11.24,10.66S67,211.62,67.27,212c.11.19-5.18,6.61-5.07,6.8s2.16-1.49,2.26-1.31" transform="translate(-20 -19.17)"/><path class="cls-11" d="M100.54,198.41c.1.18,2.16-1.48,2.26-1.3s-5.48,8.93-5.34,9.16c.26.45,13.3-8.3,13.57-7.84S98.7,212,98.93,212.4s16.41-10.19,16.72-9.65-13.53,13.29-13.29,13.7,14.77-9.19,15.06-8.69c.19.33-11.43,10.33-11.24,10.66s10.86-6.8,11.09-6.4c.11.19-5.18,6.61-5.07,6.8s2.16-1.49,2.26-1.31" transform="translate(-20 -19.17)"/><path class="cls-11" d="M125.54,198.41c.1.18,2.16-1.48,2.26-1.3s-5.48,8.93-5.34,9.16c.26.45,13.3-8.3,13.57-7.84s-12.33,13.57-12.1,14,16.41-10.19,16.72-9.65-13.53,13.29-13.29,13.7,14.77-9.19,15.06-8.69c.19.33-11.43,10.33-11.24,10.66s10.86-6.8,11.09-6.4c.11.19-5.18,6.61-5.07,6.8s2.16-1.49,2.26-1.31" transform="translate(-20 -19.17)"/><path class="cls-11" d="M150.54,198.41c.1.18,2.16-1.48,2.26-1.3s-5.48,8.93-5.34,9.16c.26.45,13.3-8.3,13.57-7.84s-12.33,13.57-12.1,14,16.41-10.19,16.72-9.65-13.53,13.29-13.29,13.7,14.77-9.19,15.06-8.69c.19.33-11.43,10.33-11.24,10.66s10.86-6.8,11.09-6.4c.11.19-5.18,6.61-5.07,6.8s2.16-1.49,2.26-1.31" transform="translate(-20 -19.17)"/><path class="cls-9" d="M175.54,198.41c.1.18,2.16-1.48,2.26-1.3s-5.48,8.93-5.34,9.16c.26.45,13.3-8.3,13.57-7.84s-12.33,13.57-12.1,14,16.41-10.19,16.72-9.65-13.53,13.29-13.29,13.7,14.77-9.19,15.06-8.69c.19.33-11.43,10.33-11.24,10.66s10.86-6.8,11.09-6.4c.11.19-5.18,6.61-5.07,6.8s2.16-1.49,2.26-1.31" transform="translate(-20 -19.17)"/><path class="cls-11" d="M200.54,198.41c.1.18,2.16-1.48,2.26-1.3s-5.48,8.93-5.34,9.16c.26.45,13.3-8.3,13.57-7.84s-12.33,13.57-12.1,14,16.41-10.19,16.72-9.65-13.53,13.29-13.29,13.7,14.77-9.19,15.06-8.69c.19.33-11.43,10.33-11.24,10.66s10.86-6.8,11.09-6.4c.11.19-5.18,6.61-5.07,6.8s2.16-1.49,2.26-1.31" transform="translate(-20 -19.17)"/><path class="cls-10" d="M250.54,198.41c.1.18,2.16-1.48,2.26-1.3s-5.48,8.93-5.34,9.16c.26.45,13.3-8.3,13.57-7.84s-12.33,13.57-12.1,14,16.41-10.19,16.72-9.65-13.53,13.29-13.29,13.7,14.77-9.19,15.06-8.69c.19.33-11.43,10.33-11.24,10.66s10.86-6.8,11.09-6.4c.11.19-5.18,6.61-5.07,6.8s2.16-1.49,2.26-1.31" transform="translate(-20 -19.17)"/><path class="cls-11" d="M25.54,223.6c.1.17,2.16-1.49,2.26-1.31s-5.48,8.93-5.34,9.16c.26.46,13.3-8.29,13.57-7.83s-12.33,13.57-12.1,14,16.41-10.2,16.72-9.66-13.53,13.29-13.29,13.71,14.77-9.19,15.06-8.7c.19.34-11.43,10.33-11.24,10.67s10.86-6.8,11.09-6.4c.11.18-5.18,6.61-5.07,6.79s2.16-1.48,2.26-1.31" transform="translate(-20 -19.17)"/><path class="cls-11" d="M50.54,223.6c.1.17,2.16-1.49,2.26-1.31s-5.48,8.93-5.34,9.16c.26.46,13.3-8.29,13.57-7.83s-12.33,13.57-12.1,14,16.41-10.2,16.72-9.66-13.53,13.29-13.29,13.71,14.77-9.19,15.06-8.7c.19.34-11.43,10.33-11.24,10.67s10.86-6.8,11.09-6.4c.11.18-5.18,6.61-5.07,6.79s2.16-1.48,2.26-1.31" transform="translate(-20 -19.17)"/><path class="cls-10" d="M100.54,223.6c.1.17,2.16-1.49,2.26-1.31s-5.48,8.93-5.34,9.16c.26.46,13.3-8.29,13.57-7.83s-12.33,13.57-12.1,14,16.41-10.2,16.72-9.66-13.53,13.29-13.29,13.71,14.77-9.19,15.06-8.7c.19.34-11.43,10.33-11.24,10.67s10.86-6.8,11.09-6.4c.11.18-5.18,6.61-5.07,6.79s2.16-1.48,2.26-1.31" transform="translate(-20 -19.17)"/><path class="cls-10" d="M125.54,223.6c.1.17,2.16-1.49,2.26-1.31s-5.48,8.93-5.34,9.16c.26.46,13.3-8.29,13.57-7.83s-12.33,13.57-12.1,14,16.41-10.2,16.72-9.66-13.53,13.29-13.29,13.71,14.77-9.19,15.06-8.7c.19.34-11.43,10.33-11.24,10.67s10.86-6.8,11.09-6.4c.11.18-5.18,6.61-5.07,6.79s2.16-1.48,2.26-1.31" transform="translate(-20 -19.17)"/><path class="cls-10" d="M150.54,223.6c.1.17,2.16-1.49,2.26-1.31s-5.48,8.93-5.34,9.16c.26.46,13.3-8.29,13.57-7.83s-12.33,13.57-12.1,14,16.41-10.2,16.72-9.66-13.53,13.29-13.29,13.71,14.77-9.19,15.06-8.7c.19.34-11.43,10.33-11.24,10.67s10.86-6.8,11.09-6.4c.11.18-5.18,6.61-5.07,6.79s2.16-1.48,2.26-1.31" transform="translate(-20 -19.17)"/><path class="cls-11" d="M175.54,223.6c.1.17,2.16-1.49,2.26-1.31s-5.48,8.93-5.34,9.16c.26.46,13.3-8.29,13.57-7.83s-12.33,13.57-12.1,14,16.41-10.2,16.72-9.66-13.53,13.29-13.29,13.71,14.77-9.19,15.06-8.7c.19.34-11.43,10.33-11.24,10.67s10.86-6.8,11.09-6.4c.11.18-5.18,6.61-5.07,6.79s2.16-1.48,2.26-1.31" transform="translate(-20 -19.17)"/><path class="cls-9" d="M200.54,223.6c.1.17,2.16-1.49,2.26-1.31s-5.48,8.93-5.34,9.16c.26.46,13.3-8.29,13.57-7.83s-12.33,13.57-12.1,14,16.41-10.2,16.72-9.66-13.53,13.29-13.29,13.71,14.77-9.19,15.06-8.7c.19.34-11.43,10.33-11.24,10.67s10.86-6.8,11.09-6.4c.11.18-5.18,6.61-5.07,6.79s2.16-1.48,2.26-1.31" transform="translate(-20 -19.17)"/><path class="cls-10" d="M250.54,223.6c.1.17,2.16-1.49,2.26-1.31s-5.48,8.93-5.34,9.16c.26.46,13.3-8.29,13.57-7.83s-12.33,13.57-12.1,14,16.41-10.2,16.72-9.66-13.53,13.29-13.29,13.71,14.77-9.19,15.06-8.7c.19.34-11.43,10.33-11.24,10.67s10.86-6.8,11.09-6.4c.11.18-5.18,6.61-5.07,6.79s2.16-1.48,2.26-1.31" transform="translate(-20 -19.17)"/><path class="cls-10" d="M25.54,248.78c.1.18,2.16-1.48,2.26-1.31s-5.48,8.94-5.34,9.16c.26.46,13.3-8.29,13.57-7.83s-12.33,13.57-12.1,14,16.41-10.19,16.72-9.65-13.53,13.29-13.29,13.7,14.77-9.19,15.06-8.69c.19.33-11.43,10.33-11.24,10.66S42,262,42.27,262.39c.11.18-5.18,6.61-5.07,6.8s2.16-1.49,2.26-1.31" transform="translate(-20 -19.17)"/><path class="cls-10" d="M50.54,248.78c.1.18,2.16-1.48,2.26-1.31s-5.48,8.94-5.34,9.16c.26.46,13.3-8.29,13.57-7.83s-12.33,13.57-12.1,14,16.41-10.19,16.72-9.65-13.53,13.29-13.29,13.7,14.77-9.19,15.06-8.69c.19.33-11.43,10.33-11.24,10.66S67,262,67.27,262.39c.11.18-5.18,6.61-5.07,6.8s2.16-1.49,2.26-1.31" transform="translate(-20 -19.17)"/><path class="cls-10" d="M75.54,248.78c.1.18,2.16-1.48,2.26-1.31s-5.48,8.94-5.34,9.16c.26.46,13.3-8.29,13.57-7.83s-12.33,13.57-12.1,14,16.41-10.19,16.72-9.65-13.53,13.29-13.29,13.7,14.77-9.19,15.06-8.69c.19.33-11.43,10.33-11.24,10.66S92,262,92.27,262.39c.11.18-5.18,6.61-5.07,6.8s2.16-1.49,2.26-1.31" transform="translate(-20 -19.17)"/><path class="cls-10" d="M100.54,248.78c.1.18,2.16-1.48,2.26-1.31s-5.48,8.94-5.34,9.16c.26.46,13.3-8.29,13.57-7.83s-12.33,13.57-12.1,14,16.41-10.19,16.72-9.65-13.53,13.29-13.29,13.7,14.77-9.19,15.06-8.69c.19.33-11.43,10.33-11.24,10.66s10.86-6.8,11.09-6.4c.11.18-5.18,6.61-5.07,6.8s2.16-1.49,2.26-1.31" transform="translate(-20 -19.17)"/><path class="cls-10" d="M125.54,248.78c.1.18,2.16-1.48,2.26-1.31s-5.48,8.94-5.34,9.16c.26.46,13.3-8.29,13.57-7.83s-12.33,13.57-12.1,14,16.41-10.19,16.72-9.65-13.53,13.29-13.29,13.7,14.77-9.19,15.06-8.69c.19.33-11.43,10.33-11.24,10.66s10.86-6.8,11.09-6.4c.11.18-5.18,6.61-5.07,6.8s2.16-1.49,2.26-1.31" transform="translate(-20 -19.17)"/><path class="cls-10" d="M150.54,248.78c.1.18,2.16-1.48,2.26-1.31s-5.48,8.94-5.34,9.16c.26.46,13.3-8.29,13.57-7.83s-12.33,13.57-12.1,14,16.41-10.19,16.72-9.65-13.53,13.29-13.29,13.7,14.77-9.19,15.06-8.69c.19.33-11.43,10.33-11.24,10.66s10.86-6.8,11.09-6.4c.11.18-5.18,6.61-5.07,6.8s2.16-1.49,2.26-1.31" transform="translate(-20 -19.17)"/><path class="cls-10" d="M200.54,248.78c.1.18,2.16-1.48,2.26-1.31s-5.48,8.94-5.34,9.16c.26.46,13.3-8.29,13.57-7.83s-12.33,13.57-12.1,14,16.41-10.19,16.72-9.65-13.53,13.29-13.29,13.7,14.77-9.19,15.06-8.69c.19.33-11.43,10.33-11.24,10.66s10.86-6.8,11.09-6.4c.11.18-5.18,6.61-5.07,6.8s2.16-1.49,2.26-1.31" transform="translate(-20 -19.17)"/><path class="cls-9" d="M225.54,248.78c.1.18,2.16-1.48,2.26-1.31s-5.48,8.94-5.34,9.16c.26.46,13.3-8.29,13.57-7.83s-12.33,13.57-12.1,14,16.41-10.19,16.72-9.65-13.53,13.29-13.29,13.7,14.77-9.19,15.06-8.69c.19.33-11.43,10.33-11.24,10.66s10.86-6.8,11.09-6.4c.11.18-5.18,6.61-5.07,6.8s2.16-1.49,2.26-1.31" transform="translate(-20 -19.17)"/><path class="cls-10" d="M250.54,248.78c.1.18,2.16-1.48,2.26-1.31s-5.48,8.94-5.34,9.16c.26.46,13.3-8.29,13.57-7.83s-12.33,13.57-12.1,14,16.41-10.19,16.72-9.65-13.53,13.29-13.29,13.7,14.77-9.19,15.06-8.69c.19.33-11.43,10.33-11.24,10.66s10.86-6.8,11.09-6.4c.11.18-5.18,6.61-5.07,6.8s2.16-1.49,2.26-1.31" transform="translate(-20 -19.17)"/></g></g></svg>