<svg id="Layer_1" data-name="Layer 1" xmlns="http://www.w3.org/2000/svg" viewBox="0 0 248.77 251.66"><defs><style>.cls-1{opacity:0.5;}.cls-2,.cls-3,.cls-4,.cls-5,.cls-6{fill:none;stroke-linecap:round;stroke-linejoin:round;stroke-width:2.76px;}.cls-2{stroke:#ee3e45;}.cls-3{stroke:#f48e7e;}.cls-4{stroke:#fbd2c0;}.cls-5{stroke:#0b8743;}.cls-6{stroke:#7daa7d;}.cls-7{fill:#ee3e45;}.cls-8{fill:#f48e7e;}.cls-9{fill:#7daa7d;}.cls-10{fill:#fbd2c0;}.cls-11{fill:#0b8743;}</style></defs><title>0202</title><g id="gondolj"><g class="cls-1"><path class="cls-2" d="M25.54,22.12c.1.18,2.16-1.48,2.26-1.31s-5.22,6.74-5.11,6.92c.23.4,11-6.89,11.24-6.49s-11.34,11.6-11.13,12c.3.52,15.57-9.68,15.87-9.16S25,37.69,25.26,38.11s16.16-10,16.46-9.5c.22.37-11.52,12.91-11.31,13.28s11.73-7.32,12-6.9c.12.19-5.3,7.34-5.18,7.54s2.16-1.49,2.26-1.31" transform="translate(-20 -19.17)"/><path class="cls-3" d="M50.54,22.12c.1.18,2.16-1.48,2.26-1.31s-5.22,6.74-5.11,6.92c.23.4,11-6.89,11.24-6.49s-11.34,11.6-11.13,12c.3.52,15.57-9.68,15.87-9.16S50,37.69,50.26,38.11s16.16-10,16.46-9.5c.22.37-11.52,12.91-11.31,13.28s11.73-7.32,12-6.9c.12.19-5.3,7.34-5.18,7.54s2.16-1.49,2.26-1.31" transform="translate(-20 -19.17)"/><path class="cls-2" d="M100.54,22.12c.1.18,2.16-1.48,2.26-1.31s-5.22,6.74-5.11,6.92c.23.4,11-6.89,11.24-6.49s-11.34,11.6-11.13,12c.3.52,15.57-9.68,15.87-9.16S100,37.69,100.26,38.11s16.16-10,16.46-9.5c.22.37-11.52,12.91-11.31,13.28s11.73-7.32,12-6.9c.12.19-5.3,7.34-5.18,7.54s2.16-1.49,2.26-1.31" transform="translate(-20 -19.17)"/><path class="cls-4" d="M150.54,22.12c.1.18,2.16-1.48,2.26-1.31s-5.22,6.74-5.11,6.92c.23.4,11-6.89,11.24-6.49s-11.34,11.6-11.13,12c.3.52,15.57-9.68,15.87-9.16S150,37.69,150.26,38.11s16.16-10,16.46-9.5c.22.37-11.52,12.91-11.31,13.28s11.73-7.32,12-6.9c.12.19-5.3,7.34-5.18,7.54s2.16-1.49,2.26-1.31" transform="translate(-20 -19.17)"/><path class="cls-2" d="M200.54,22.12c.1.18,2.16-1.48,2.26-1.31s-5.22,6.74-5.11,6.92c.23.4,11-6.89,11.24-6.49s-11.34,11.6-11.13,12c.3.52,15.57-9.68,15.87-9.16S200,37.69,200.26,38.11s16.16-10,16.46-9.5c.22.37-11.52,12.91-11.31,13.28s11.73-7.32,12-6.9c.12.19-5.3,7.34-5.18,7.54s2.16-1.49,2.26-1.31" transform="translate(-20 -19.17)"/><path class="cls-4" d="M225.54,22.12c.1.18,2.16-1.48,2.26-1.31s-5.22,6.74-5.11,6.92c.23.4,11-6.89,11.24-6.49s-11.34,11.6-11.13,12c.3.52,15.57-9.68,15.87-9.16S225,37.69,225.26,38.11s16.16-10,16.46-9.5c.22.37-11.52,12.91-11.31,13.28s11.73-7.32,12-6.9c.12.19-5.3,7.34-5.18,7.54s2.16-1.49,2.26-1.31" transform="translate(-20 -19.17)"/><path class="cls-4" d="M250.54,22.12c.1.18,2.16-1.48,2.26-1.31s-5.22,6.74-5.11,6.92c.23.4,11-6.89,11.24-6.49s-11.34,11.6-11.13,12c.3.52,15.57-9.68,15.87-9.16S250,37.69,250.26,38.11s16.16-10,16.46-9.5c.22.37-11.52,12.91-11.31,13.28s11.73-7.32,12-6.9c.12.19-5.3,7.34-5.18,7.54s2.16-1.49,2.26-1.31" transform="translate(-20 -19.17)"/><path class="cls-2" d="M50.54,47.31c.1.17,2.16-1.49,2.26-1.31s-5.22,6.73-5.11,6.92c.23.4,11-6.89,11.24-6.49S47.59,58,47.8,58.38s15.57-9.69,15.87-9.17S50,62.88,50.26,63.3s16.16-10,16.46-9.51S55.2,66.7,55.41,67.08s11.73-7.33,12-6.91c.12.2-5.3,7.34-5.18,7.54s2.16-1.48,2.26-1.31" transform="translate(-20 -19.17)"/><path class="cls-3" d="M100.54,47.31c.1.17,2.16-1.49,2.26-1.31s-5.22,6.73-5.11,6.92c.23.4,11-6.89,11.24-6.49S97.59,58,97.8,58.38s15.57-9.69,15.87-9.17S100,62.88,100.26,63.3s16.16-10,16.46-9.51S105.2,66.7,105.41,67.08s11.73-7.33,12-6.91c.12.2-5.3,7.34-5.18,7.54s2.16-1.48,2.26-1.31" transform="translate(-20 -19.17)"/><path class="cls-4" d="M125.54,47.31c.1.17,2.16-1.49,2.26-1.31s-5.22,6.73-5.11,6.92c.23.4,11-6.89,11.24-6.49S122.59,58,122.8,58.38s15.57-9.69,15.87-9.17S125,62.88,125.26,63.3s16.16-10,16.46-9.51S130.2,66.7,130.41,67.08s11.73-7.33,12-6.91c.12.2-5.3,7.34-5.18,7.54s2.16-1.48,2.26-1.31" transform="translate(-20 -19.17)"/><path class="cls-5" d="M150.54,47.31c.1.17,2.16-1.49,2.26-1.31s-5.22,6.73-5.11,6.92c.23.4,11-6.89,11.24-6.49S147.59,58,147.8,58.38s15.57-9.69,15.87-9.17S150,62.88,150.26,63.3s16.16-10,16.46-9.51S155.2,66.7,155.41,67.08s11.73-7.33,12-6.91c.12.2-5.3,7.34-5.18,7.54s2.16-1.48,2.26-1.31" transform="translate(-20 -19.17)"/><path class="cls-6" d="M200.54,47.31c.1.17,2.16-1.49,2.26-1.31s-5.22,6.73-5.11,6.92c.23.4,11-6.89,11.24-6.49S197.59,58,197.8,58.38s15.57-9.69,15.87-9.17S200,62.88,200.26,63.3s16.16-10,16.46-9.51S205.2,66.7,205.41,67.08s11.73-7.33,12-6.91c.12.2-5.3,7.34-5.18,7.54s2.16-1.48,2.26-1.31" transform="translate(-20 -19.17)"/><path class="cls-5" d="M250.54,47.31c.1.17,2.16-1.49,2.26-1.31s-5.22,6.73-5.11,6.92c.23.4,11-6.89,11.24-6.49S247.59,58,247.8,58.38s15.57-9.69,15.87-9.17S250,62.88,250.26,63.3s16.16-10,16.46-9.51S255.2,66.7,255.41,67.08s11.73-7.33,12-6.91c.12.2-5.3,7.34-5.18,7.54s2.16-1.48,2.26-1.31" transform="translate(-20 -19.17)"/><path class="cls-3" d="M25.54,72.49c.1.18,2.16-1.48,2.26-1.31s-5.22,6.74-5.11,6.92c.23.4,11-6.89,11.24-6.49s-11.34,11.6-11.13,12c.3.52,15.57-9.68,15.87-9.17S25,88.06,25.26,88.48s16.16-10,16.46-9.51c.22.38-11.52,12.92-11.31,13.29s11.73-7.32,12-6.91c.12.2-5.3,7.35-5.18,7.54s2.16-1.48,2.26-1.3" transform="translate(-20 -19.17)"/><path class="cls-3" d="M50.54,72.49c.1.18,2.16-1.48,2.26-1.31s-5.22,6.74-5.11,6.92c.23.4,11-6.89,11.24-6.49s-11.34,11.6-11.13,12c.3.52,15.57-9.68,15.87-9.17S50,88.06,50.26,88.48s16.16-10,16.46-9.51c.22.38-11.52,12.92-11.31,13.29s11.73-7.32,12-6.91c.12.2-5.3,7.35-5.18,7.54s2.16-1.48,2.26-1.3" transform="translate(-20 -19.17)"/><path class="cls-3" d="M100.54,72.49c.1.18,2.16-1.48,2.26-1.31s-5.22,6.74-5.11,6.92c.23.4,11-6.89,11.24-6.49s-11.34,11.6-11.13,12c.3.52,15.57-9.68,15.87-9.17S100,88.06,100.26,88.48s16.16-10,16.46-9.51c.22.38-11.52,12.92-11.31,13.29s11.73-7.32,12-6.91c.12.2-5.3,7.35-5.18,7.54s2.16-1.48,2.26-1.3" transform="translate(-20 -19.17)"/><path class="cls-3" d="M125.54,72.49c.1.18,2.16-1.48,2.26-1.31s-5.22,6.74-5.11,6.92c.23.4,11-6.89,11.24-6.49s-11.34,11.6-11.13,12c.3.52,15.57-9.68,15.87-9.17S125,88.06,125.26,88.48s16.16-10,16.46-9.51c.22.38-11.52,12.92-11.31,13.29s11.73-7.32,12-6.91c.12.2-5.3,7.35-5.18,7.54s2.16-1.48,2.26-1.3" transform="translate(-20 -19.17)"/><path class="cls-4" d="M150.54,72.49c.1.18,2.16-1.48,2.26-1.31s-5.22,6.74-5.11,6.92c.23.4,11-6.89,11.24-6.49s-11.34,11.6-11.13,12c.3.52,15.57-9.68,15.87-9.17S150,88.06,150.26,88.48s16.16-10,16.46-9.51c.22.38-11.52,12.92-11.31,13.29s11.73-7.32,12-6.91c.12.2-5.3,7.35-5.18,7.54s2.16-1.48,2.26-1.3" transform="translate(-20 -19.17)"/><path class="cls-2" d="M175.54,72.49c.1.18,2.16-1.48,2.26-1.31s-5.22,6.74-5.11,6.92c.23.4,11-6.89,11.24-6.49s-11.34,11.6-11.13,12c.3.52,15.57-9.68,15.87-9.17S175,88.06,175.26,88.48s16.16-10,16.46-9.51c.22.38-11.52,12.92-11.31,13.29s11.73-7.32,12-6.91c.12.2-5.3,7.35-5.18,7.54s2.16-1.48,2.26-1.3" transform="translate(-20 -19.17)"/><path class="cls-6" d="M200.54,72.49c.1.18,2.16-1.48,2.26-1.31s-5.22,6.74-5.11,6.92c.23.4,11-6.89,11.24-6.49s-11.34,11.6-11.13,12c.3.52,15.57-9.68,15.87-9.17S200,88.06,200.26,88.48s16.16-10,16.46-9.51c.22.38-11.52,12.92-11.31,13.29s11.73-7.32,12-6.91c.12.2-5.3,7.35-5.18,7.54s2.16-1.48,2.26-1.3" transform="translate(-20 -19.17)"/><path class="cls-5" d="M250.54,72.49c.1.18,2.16-1.48,2.26-1.31s-5.22,6.74-5.11,6.92c.23.4,11-6.89,11.24-6.49s-11.34,11.6-11.13,12c.3.52,15.57-9.68,15.87-9.17S250,88.06,250.26,88.48s16.16-10,16.46-9.51c.22.38-11.52,12.92-11.31,13.29s11.73-7.32,12-6.91c.12.2-5.3,7.35-5.18,7.54s2.16-1.48,2.26-1.3" transform="translate(-20 -19.17)"/><path class="cls-3" d="M50.54,97.67c.1.18,2.16-1.48,2.26-1.3s-5.22,6.73-5.11,6.92c.23.4,11-6.89,11.24-6.49S47.59,108.39,47.8,108.74c.3.52,15.57-9.68,15.87-9.16S50,113.24,50.26,113.67s16.16-10,16.46-9.51S55.2,117.07,55.41,117.45s11.73-7.33,12-6.91c.12.2-5.3,7.34-5.18,7.54s2.16-1.48,2.26-1.31" transform="translate(-20 -19.17)"/><path class="cls-4" d="M75.54,97.67c.1.18,2.16-1.48,2.26-1.3s-5.22,6.73-5.11,6.92c.23.4,11-6.89,11.24-6.49S72.59,108.39,72.8,108.74c.3.52,15.57-9.68,15.87-9.16S75,113.24,75.26,113.67s16.16-10,16.46-9.51S80.2,117.07,80.41,117.45s11.73-7.33,12-6.91c.12.2-5.3,7.34-5.18,7.54s2.16-1.48,2.26-1.31" transform="translate(-20 -19.17)"/><path class="cls-4" d="M100.54,97.67c.1.18,2.16-1.48,2.26-1.3s-5.22,6.73-5.11,6.92c.23.4,11-6.89,11.24-6.49S97.59,108.39,97.8,108.74c.3.52,15.57-9.68,15.87-9.16S100,113.24,100.26,113.67s16.16-10,16.46-9.51-11.52,12.91-11.31,13.29,11.73-7.33,12-6.91c.12.2-5.3,7.34-5.18,7.54s2.16-1.48,2.26-1.31" transform="translate(-20 -19.17)"/><path class="cls-6" d="M125.54,97.67c.1.18,2.16-1.48,2.26-1.3s-5.22,6.73-5.11,6.92c.23.4,11-6.89,11.24-6.49s-11.34,11.59-11.13,11.94c.3.52,15.57-9.68,15.87-9.16S125,113.24,125.26,113.67s16.16-10,16.46-9.51-11.52,12.91-11.31,13.29,11.73-7.33,12-6.91c.12.2-5.3,7.34-5.18,7.54s2.16-1.48,2.26-1.31" transform="translate(-20 -19.17)"/><path class="cls-3" d="M150.54,97.67c.1.18,2.16-1.48,2.26-1.3s-5.22,6.73-5.11,6.92c.23.4,11-6.89,11.24-6.49s-11.34,11.59-11.13,11.94c.3.52,15.57-9.68,15.87-9.16S150,113.24,150.26,113.67s16.16-10,16.46-9.51-11.52,12.91-11.31,13.29,11.73-7.33,12-6.91c.12.2-5.3,7.34-5.18,7.54s2.16-1.48,2.26-1.31" transform="translate(-20 -19.17)"/><path class="cls-6" d="M200.54,97.67c.1.18,2.16-1.48,2.26-1.3s-5.22,6.73-5.11,6.92c.23.4,11-6.89,11.24-6.49s-11.34,11.59-11.13,11.94c.3.52,15.57-9.68,15.87-9.16S200,113.24,200.26,113.67s16.16-10,16.46-9.51-11.52,12.91-11.31,13.29,11.73-7.33,12-6.91c.12.2-5.3,7.34-5.18,7.54s2.16-1.48,2.26-1.31" transform="translate(-20 -19.17)"/><path class="cls-4" d="M225.54,97.67c.1.18,2.16-1.48,2.26-1.3s-5.22,6.73-5.11,6.92c.23.4,11-6.89,11.24-6.49s-11.34,11.59-11.13,11.94c.3.52,15.57-9.68,15.87-9.16S225,113.24,225.26,113.67s16.16-10,16.46-9.51-11.52,12.91-11.31,13.29,11.73-7.33,12-6.91c.12.2-5.3,7.34-5.18,7.54s2.16-1.48,2.26-1.31" transform="translate(-20 -19.17)"/><path class="cls-5" d="M250.54,97.67c.1.18,2.16-1.48,2.26-1.3s-5.22,6.73-5.11,6.92c.23.4,11-6.89,11.24-6.49s-11.34,11.59-11.13,11.94c.3.52,15.57-9.68,15.87-9.16S250,113.24,250.26,113.67s16.16-10,16.46-9.51-11.52,12.91-11.31,13.29,11.73-7.33,12-6.91c.12.2-5.3,7.34-5.18,7.54s2.16-1.48,2.26-1.31" transform="translate(-20 -19.17)"/><path class="cls-2" d="M50.54,122.86c.1.18,2.16-1.48,2.26-1.31s-5.22,6.74-5.11,6.92c.23.4,11-6.89,11.24-6.49s-11.34,11.6-11.13,12c.3.52,15.57-9.68,15.87-9.17S50,138.43,50.26,138.85s16.16-10,16.46-9.51c.22.38-11.52,12.91-11.31,13.29s11.73-7.33,12-6.91c.12.2-5.3,7.35-5.18,7.54s2.16-1.48,2.26-1.3" transform="translate(-20 -19.17)"/><path class="cls-6" d="M100.54,122.86c.1.18,2.16-1.48,2.26-1.31s-5.22,6.74-5.11,6.92c.23.4,11-6.89,11.24-6.49s-11.34,11.6-11.13,12c.3.52,15.57-9.68,15.87-9.17S100,138.43,100.26,138.85s16.16-10,16.46-9.51c.22.38-11.52,12.91-11.31,13.29s11.73-7.33,12-6.91c.12.2-5.3,7.35-5.18,7.54s2.16-1.48,2.26-1.3" transform="translate(-20 -19.17)"/><path class="cls-4" d="M125.54,122.86c.1.18,2.16-1.48,2.26-1.31s-5.22,6.74-5.11,6.92c.23.4,11-6.89,11.24-6.49s-11.34,11.6-11.13,12c.3.52,15.57-9.68,15.87-9.17S125,138.43,125.26,138.85s16.16-10,16.46-9.51c.22.38-11.52,12.91-11.31,13.29s11.73-7.33,12-6.91c.12.2-5.3,7.35-5.18,7.54s2.16-1.48,2.26-1.3" transform="translate(-20 -19.17)"/><path class="cls-5" d="M150.54,122.86c.1.18,2.16-1.48,2.26-1.31s-5.22,6.74-5.11,6.92c.23.4,11-6.89,11.24-6.49s-11.34,11.6-11.13,12c.3.52,15.57-9.68,15.87-9.17S150,138.43,150.26,138.85s16.16-10,16.46-9.51c.22.38-11.52,12.91-11.31,13.29s11.73-7.33,12-6.91c.12.2-5.3,7.35-5.18,7.54s2.16-1.48,2.26-1.3" transform="translate(-20 -19.17)"/><path class="cls-5" d="M200.54,122.86c.1.18,2.16-1.48,2.26-1.31s-5.22,6.74-5.11,6.92c.23.4,11-6.89,11.24-6.49s-11.34,11.6-11.13,12c.3.52,15.57-9.68,15.87-9.17S200,138.43,200.26,138.85s16.16-10,16.46-9.51c.22.38-11.52,12.91-11.31,13.29s11.73-7.33,12-6.91c.12.2-5.3,7.35-5.18,7.54s2.16-1.48,2.26-1.3" transform="translate(-20 -19.17)"/><path class="cls-5" d="M225.54,122.86c.1.18,2.16-1.48,2.26-1.31s-5.22,6.74-5.11,6.92c.23.4,11-6.89,11.24-6.49s-11.34,11.6-11.13,12c.3.52,15.57-9.68,15.87-9.17S225,138.43,225.26,138.85s16.16-10,16.46-9.51c.22.38-11.52,12.91-11.31,13.29s11.73-7.33,12-6.91c.12.2-5.3,7.35-5.18,7.54s2.16-1.48,2.26-1.3" transform="translate(-20 -19.17)"/><path class="cls-2" d="M250.54,122.86c.1.18,2.16-1.48,2.26-1.31s-5.22,6.74-5.11,6.92c.23.4,11-6.89,11.24-6.49s-11.34,11.6-11.13,12c.3.52,15.57-9.68,15.87-9.17S250,138.43,250.26,138.85s16.16-10,16.46-9.51c.22.38-11.52,12.91-11.31,13.29s11.73-7.33,12-6.91c.12.2-5.3,7.35-5.18,7.54s2.16-1.48,2.26-1.3" transform="translate(-20 -19.17)"/><path class="cls-6" d="M25.54,148c.1.18,2.16-1.48,2.26-1.3s-5.22,6.73-5.11,6.92c.23.4,11-6.9,11.24-6.49S22.59,158.76,22.8,159.11c.3.52,15.57-9.68,15.87-9.16S25,163.61,25.26,164s16.16-10,16.46-9.5c.22.38-11.52,12.91-11.31,13.29s11.73-7.33,12-6.91c.12.2-5.3,7.34-5.18,7.54s2.16-1.49,2.26-1.31" transform="translate(-20 -19.17)"/><path class="cls-4" d="M50.54,148c.1.18,2.16-1.48,2.26-1.3s-5.22,6.73-5.11,6.92c.23.4,11-6.9,11.24-6.49S47.59,158.76,47.8,159.11c.3.52,15.57-9.68,15.87-9.16S50,163.61,50.26,164s16.16-10,16.46-9.5c.22.38-11.52,12.91-11.31,13.29s11.73-7.33,12-6.91c.12.2-5.3,7.34-5.18,7.54s2.16-1.49,2.26-1.31" transform="translate(-20 -19.17)"/><path class="cls-3" d="M100.54,148c.1.18,2.16-1.48,2.26-1.3s-5.22,6.73-5.11,6.92c.23.4,11-6.9,11.24-6.49S97.59,158.76,97.8,159.11c.3.52,15.57-9.68,15.87-9.16S100,163.61,100.26,164s16.16-10,16.46-9.5c.22.38-11.52,12.91-11.31,13.29s11.73-7.33,12-6.91c.12.2-5.3,7.34-5.18,7.54s2.16-1.49,2.26-1.31" transform="translate(-20 -19.17)"/><path class="cls-4" d="M125.54,148c.1.18,2.16-1.48,2.26-1.3s-5.22,6.73-5.11,6.92c.23.4,11-6.9,11.24-6.49s-11.34,11.59-11.13,11.94c.3.52,15.57-9.68,15.87-9.16S125,163.61,125.26,164s16.16-10,16.46-9.5c.22.38-11.52,12.91-11.31,13.29s11.73-7.33,12-6.91c.12.2-5.3,7.34-5.18,7.54s2.16-1.49,2.26-1.31" transform="translate(-20 -19.17)"/><path class="cls-3" d="M150.54,148c.1.18,2.16-1.48,2.26-1.3s-5.22,6.73-5.11,6.92c.23.4,11-6.9,11.24-6.49s-11.34,11.59-11.13,11.94c.3.52,15.57-9.68,15.87-9.16S150,163.61,150.26,164s16.16-10,16.46-9.5c.22.38-11.52,12.91-11.31,13.29s11.73-7.33,12-6.91c.12.2-5.3,7.34-5.18,7.54s2.16-1.49,2.26-1.31" transform="translate(-20 -19.17)"/><path class="cls-3" d="M175.54,148c.1.18,2.16-1.48,2.26-1.3s-5.22,6.73-5.11,6.92c.23.4,11-6.9,11.24-6.49s-11.34,11.59-11.13,11.94c.3.52,15.57-9.68,15.87-9.16S175,163.61,175.26,164s16.16-10,16.46-9.5c.22.38-11.52,12.91-11.31,13.29s11.73-7.33,12-6.91c.12.2-5.3,7.34-5.18,7.54s2.16-1.49,2.26-1.31" transform="translate(-20 -19.17)"/><path class="cls-4" d="M200.54,148c.1.18,2.16-1.48,2.26-1.3s-5.22,6.73-5.11,6.92c.23.4,11-6.9,11.24-6.49s-11.34,11.59-11.13,11.94c.3.52,15.57-9.68,15.87-9.16S200,163.61,200.26,164s16.16-10,16.46-9.5c.22.38-11.52,12.91-11.31,13.29s11.73-7.33,12-6.91c.12.2-5.3,7.34-5.18,7.54s2.16-1.49,2.26-1.31" transform="translate(-20 -19.17)"/><path class="cls-5" d="M250.54,148c.1.18,2.16-1.48,2.26-1.3s-5.22,6.73-5.11,6.92c.23.4,11-6.9,11.24-6.49s-11.34,11.59-11.13,11.94c.3.52,15.57-9.68,15.87-9.16S250,163.61,250.26,164s16.16-10,16.46-9.5c.22.38-11.52,12.91-11.31,13.29s11.73-7.33,12-6.91c.12.2-5.3,7.34-5.18,7.54s2.16-1.49,2.26-1.31" transform="translate(-20 -19.17)"/><path class="cls-6" d="M50.54,173.23c.1.17,2.16-1.49,2.26-1.31s-5.22,6.73-5.11,6.92c.23.4,11-6.89,11.24-6.49s-11.34,11.59-11.13,12,15.57-9.68,15.87-9.17S50,188.8,50.26,189.22s16.16-10,16.46-9.51c.22.38-11.52,12.91-11.31,13.29s11.73-7.33,12-6.91c.12.2-5.3,7.34-5.18,7.54s2.16-1.48,2.26-1.3" transform="translate(-20 -19.17)"/><path class="cls-5" d="M75.54,173.23c.1.17,2.16-1.49,2.26-1.31s-5.22,6.73-5.11,6.92c.23.4,11-6.89,11.24-6.49s-11.34,11.59-11.13,12,15.57-9.68,15.87-9.17S75,188.8,75.26,189.22s16.16-10,16.46-9.51c.22.38-11.52,12.91-11.31,13.29s11.73-7.33,12-6.91c.12.2-5.3,7.34-5.18,7.54s2.16-1.48,2.26-1.3" transform="translate(-20 -19.17)"/><path class="cls-4" d="M100.54,173.23c.1.17,2.16-1.49,2.26-1.31s-5.22,6.73-5.11,6.92c.23.4,11-6.89,11.24-6.49s-11.34,11.59-11.13,12,15.57-9.68,15.87-9.17S100,188.8,100.26,189.22s16.16-10,16.46-9.51c.22.38-11.52,12.91-11.31,13.29s11.73-7.33,12-6.91c.12.2-5.3,7.34-5.18,7.54s2.16-1.48,2.26-1.3" transform="translate(-20 -19.17)"/><path class="cls-6" d="M125.54,173.23c.1.17,2.16-1.49,2.26-1.31s-5.22,6.73-5.11,6.92c.23.4,11-6.89,11.24-6.49s-11.34,11.59-11.13,12,15.57-9.68,15.87-9.17S125,188.8,125.26,189.22s16.16-10,16.46-9.51c.22.38-11.52,12.91-11.31,13.29s11.73-7.33,12-6.91c.12.2-5.3,7.34-5.18,7.54s2.16-1.48,2.26-1.3" transform="translate(-20 -19.17)"/><path class="cls-6" d="M150.54,173.23c.1.17,2.16-1.49,2.26-1.31s-5.22,6.73-5.11,6.92c.23.4,11-6.89,11.24-6.49s-11.34,11.59-11.13,12,15.57-9.68,15.87-9.17S150,188.8,150.26,189.22s16.16-10,16.46-9.51c.22.38-11.52,12.91-11.31,13.29s11.73-7.33,12-6.91c.12.2-5.3,7.34-5.18,7.54s2.16-1.48,2.26-1.3" transform="translate(-20 -19.17)"/><path class="cls-4" d="M200.54,173.23c.1.17,2.16-1.49,2.26-1.31s-5.22,6.73-5.11,6.92c.23.4,11-6.89,11.24-6.49s-11.34,11.59-11.13,12,15.57-9.68,15.87-9.17S200,188.8,200.26,189.22s16.16-10,16.46-9.51c.22.38-11.52,12.91-11.31,13.29s11.73-7.33,12-6.91c.12.2-5.3,7.34-5.18,7.54s2.16-1.48,2.26-1.3" transform="translate(-20 -19.17)"/><path class="cls-4" d="M225.54,173.23c.1.17,2.16-1.49,2.26-1.31s-5.22,6.73-5.11,6.92c.23.4,11-6.89,11.24-6.49s-11.34,11.59-11.13,12,15.57-9.68,15.87-9.17S225,188.8,225.26,189.22s16.16-10,16.46-9.51c.22.38-11.52,12.91-11.31,13.29s11.73-7.33,12-6.91c.12.2-5.3,7.34-5.18,7.54s2.16-1.48,2.26-1.3" transform="translate(-20 -19.17)"/><path class="cls-5" d="M250.54,173.23c.1.17,2.16-1.49,2.26-1.31s-5.22,6.73-5.11,6.92c.23.4,11-6.89,11.24-6.49s-11.34,11.59-11.13,12,15.57-9.68,15.87-9.17S250,188.8,250.26,189.22s16.16-10,16.46-9.51c.22.38-11.52,12.91-11.31,13.29s11.73-7.33,12-6.91c.12.2-5.3,7.34-5.18,7.54s2.16-1.48,2.26-1.3" transform="translate(-20 -19.17)"/><path class="cls-2" d="M50.54,198.41c.1.18,2.16-1.48,2.26-1.3s-5.22,6.73-5.11,6.92c.23.4,11-6.9,11.24-6.5s-11.34,11.6-11.13,11.95c.3.52,15.57-9.68,15.87-9.16S50,214,50.26,214.4s16.16-10,16.46-9.5c.22.37-11.52,12.91-11.31,13.29s11.73-7.33,12-6.91c.12.19-5.3,7.34-5.18,7.54s2.16-1.49,2.26-1.31" transform="translate(-20 -19.17)"/><path class="cls-6" d="M100.54,198.41c.1.18,2.16-1.48,2.26-1.3s-5.22,6.73-5.11,6.92c.23.4,11-6.9,11.24-6.5s-11.34,11.6-11.13,11.95c.3.52,15.57-9.68,15.87-9.16S100,214,100.26,214.4s16.16-10,16.46-9.5c.22.37-11.52,12.91-11.31,13.29s11.73-7.33,12-6.91c.12.19-5.3,7.34-5.18,7.54s2.16-1.49,2.26-1.31" transform="translate(-20 -19.17)"/><path class="cls-3" d="M125.54,198.41c.1.18,2.16-1.48,2.26-1.3s-5.22,6.73-5.11,6.92c.23.4,11-6.9,11.24-6.5s-11.34,11.6-11.13,11.95c.3.52,15.57-9.68,15.87-9.16S125,214,125.26,214.4s16.16-10,16.46-9.5c.22.37-11.52,12.91-11.31,13.29s11.73-7.33,12-6.91c.12.19-5.3,7.34-5.18,7.54s2.16-1.49,2.26-1.31" transform="translate(-20 -19.17)"/><path class="cls-2" d="M150.54,198.41c.1.18,2.16-1.48,2.26-1.3s-5.22,6.73-5.11,6.92c.23.4,11-6.9,11.24-6.5s-11.34,11.6-11.13,11.95c.3.52,15.57-9.68,15.87-9.16S150,214,150.26,214.4s16.16-10,16.46-9.5c.22.37-11.52,12.91-11.31,13.29s11.73-7.33,12-6.91c.12.19-5.3,7.34-5.18,7.54s2.16-1.49,2.26-1.31" transform="translate(-20 -19.17)"/><path class="cls-3" d="M175.54,198.41c.1.18,2.16-1.48,2.26-1.3s-5.22,6.73-5.11,6.92c.23.4,11-6.9,11.24-6.5s-11.34,11.6-11.13,11.95c.3.52,15.57-9.68,15.87-9.16S175,214,175.26,214.4s16.16-10,16.46-9.5c.22.37-11.52,12.91-11.31,13.29s11.73-7.33,12-6.91c.12.19-5.3,7.34-5.18,7.54s2.16-1.49,2.26-1.31" transform="translate(-20 -19.17)"/><path class="cls-4" d="M200.54,198.41c.1.18,2.16-1.48,2.26-1.3s-5.22,6.73-5.11,6.92c.23.4,11-6.9,11.24-6.5s-11.34,11.6-11.13,11.95c.3.52,15.57-9.68,15.87-9.16S200,214,200.26,214.4s16.16-10,16.46-9.5c.22.37-11.52,12.91-11.31,13.29s11.73-7.33,12-6.91c.12.19-5.3,7.34-5.18,7.54s2.16-1.49,2.26-1.31" transform="translate(-20 -19.17)"/><path class="cls-6" d="M250.54,198.41c.1.18,2.16-1.48,2.26-1.3s-5.22,6.73-5.11,6.92c.23.4,11-6.9,11.24-6.5s-11.34,11.6-11.13,11.95c.3.52,15.57-9.68,15.87-9.16S250,214,250.26,214.4s16.16-10,16.46-9.5c.22.37-11.52,12.91-11.31,13.29s11.73-7.33,12-6.91c.12.19-5.3,7.34-5.18,7.54s2.16-1.49,2.26-1.31" transform="translate(-20 -19.17)"/><path class="cls-5" d="M25.54,223.6c.1.17,2.16-1.49,2.26-1.31s-5.22,6.73-5.11,6.92c.23.4,11-6.89,11.24-6.49S22.59,234.31,22.8,234.67c.3.51,15.57-9.69,15.87-9.17S25,239.17,25.26,239.59s16.16-10,16.46-9.51c.22.38-11.52,12.91-11.31,13.29s11.73-7.33,12-6.91c.12.2-5.3,7.34-5.18,7.54s2.16-1.48,2.26-1.31" transform="translate(-20 -19.17)"/><path class="cls-6" d="M50.54,223.6c.1.17,2.16-1.49,2.26-1.31s-5.22,6.73-5.11,6.92c.23.4,11-6.89,11.24-6.49S47.59,234.31,47.8,234.67c.3.51,15.57-9.69,15.87-9.17S50,239.17,50.26,239.59s16.16-10,16.46-9.51c.22.38-11.52,12.91-11.31,13.29s11.73-7.33,12-6.91c.12.2-5.3,7.34-5.18,7.54s2.16-1.48,2.26-1.31" transform="translate(-20 -19.17)"/><path class="cls-5" d="M100.54,223.6c.1.17,2.16-1.49,2.26-1.31s-5.22,6.73-5.11,6.92c.23.4,11-6.89,11.24-6.49S97.59,234.31,97.8,234.67c.3.51,15.57-9.69,15.87-9.17S100,239.17,100.26,239.59s16.16-10,16.46-9.51c.22.38-11.52,12.91-11.31,13.29s11.73-7.33,12-6.91c.12.2-5.3,7.34-5.18,7.54s2.16-1.48,2.26-1.31" transform="translate(-20 -19.17)"/><path class="cls-5" d="M125.54,223.6c.1.17,2.16-1.49,2.26-1.31s-5.22,6.73-5.11,6.92c.23.4,11-6.89,11.24-6.49s-11.34,11.59-11.13,11.95c.3.51,15.57-9.69,15.87-9.17S125,239.17,125.26,239.59s16.16-10,16.46-9.51c.22.38-11.52,12.91-11.31,13.29s11.73-7.33,12-6.91c.12.2-5.3,7.34-5.18,7.54s2.16-1.48,2.26-1.31" transform="translate(-20 -19.17)"/><path class="cls-6" d="M150.54,223.6c.1.17,2.16-1.49,2.26-1.31s-5.22,6.73-5.11,6.92c.23.4,11-6.89,11.24-6.49s-11.34,11.59-11.13,11.95c.3.51,15.57-9.69,15.87-9.17S150,239.17,150.26,239.59s16.16-10,16.46-9.51c.22.38-11.52,12.91-11.31,13.29s11.73-7.33,12-6.91c.12.2-5.3,7.34-5.18,7.54s2.16-1.48,2.26-1.31" transform="translate(-20 -19.17)"/><path class="cls-3" d="M175.54,223.6c.1.17,2.16-1.49,2.26-1.31s-5.22,6.73-5.11,6.92c.23.4,11-6.89,11.24-6.49s-11.34,11.59-11.13,11.95c.3.51,15.57-9.69,15.87-9.17S175,239.17,175.26,239.59s16.16-10,16.46-9.51c.22.38-11.52,12.91-11.31,13.29s11.73-7.33,12-6.91c.12.2-5.3,7.34-5.18,7.54s2.16-1.48,2.26-1.31" transform="translate(-20 -19.17)"/><path class="cls-2" d="M200.54,223.6c.1.17,2.16-1.49,2.26-1.31s-5.22,6.73-5.11,6.92c.23.4,11-6.89,11.24-6.49s-11.34,11.59-11.13,11.95c.3.51,15.57-9.69,15.87-9.17S200,239.17,200.26,239.59s16.16-10,16.46-9.51c.22.38-11.52,12.91-11.31,13.29s11.73-7.33,12-6.91c.12.2-5.3,7.34-5.18,7.54s2.16-1.48,2.26-1.31" transform="translate(-20 -19.17)"/><path class="cls-5" d="M250.54,223.6c.1.17,2.16-1.49,2.26-1.31s-5.22,6.73-5.11,6.92c.23.4,11-6.89,11.24-6.49s-11.34,11.59-11.13,11.95c.3.51,15.57-9.69,15.87-9.17S250,239.17,250.26,239.59s16.16-10,16.46-9.51c.22.38-11.52,12.91-11.31,13.29s11.73-7.33,12-6.91c.12.2-5.3,7.34-5.18,7.54s2.16-1.48,2.26-1.31" transform="translate(-20 -19.17)"/><path class="cls-5" d="M25.54,248.78c.1.18,2.16-1.48,2.26-1.31s-5.22,6.74-5.11,6.92c.23.41,11-6.89,11.24-6.49s-11.34,11.6-11.13,12c.3.52,15.57-9.68,15.87-9.16S25,264.35,25.26,264.77s16.16-10,16.46-9.5c.22.37-11.52,12.91-11.31,13.28s11.73-7.32,12-6.9c.12.19-5.3,7.34-5.18,7.54s2.16-1.49,2.26-1.31" transform="translate(-20 -19.17)"/><path class="cls-6" d="M50.54,248.78c.1.18,2.16-1.48,2.26-1.31s-5.22,6.74-5.11,6.92c.23.41,11-6.89,11.24-6.49s-11.34,11.6-11.13,12c.3.52,15.57-9.68,15.87-9.16S50,264.35,50.26,264.77s16.16-10,16.46-9.5c.22.37-11.52,12.91-11.31,13.28s11.73-7.32,12-6.9c.12.19-5.3,7.34-5.18,7.54s2.16-1.49,2.26-1.31" transform="translate(-20 -19.17)"/><path class="cls-6" d="M75.54,248.78c.1.18,2.16-1.48,2.26-1.31s-5.22,6.74-5.11,6.92c.23.41,11-6.89,11.24-6.49s-11.34,11.6-11.13,12c.3.52,15.57-9.68,15.87-9.16S75,264.35,75.26,264.77s16.16-10,16.46-9.5c.22.37-11.52,12.91-11.31,13.28s11.73-7.32,12-6.9c.12.19-5.3,7.34-5.18,7.54s2.16-1.49,2.26-1.31" transform="translate(-20 -19.17)"/><path class="cls-5" d="M100.54,248.78c.1.18,2.16-1.48,2.26-1.31s-5.22,6.74-5.11,6.92c.23.41,11-6.89,11.24-6.49s-11.34,11.6-11.13,12c.3.52,15.57-9.68,15.87-9.16S100,264.35,100.26,264.77s16.16-10,16.46-9.5c.22.37-11.52,12.91-11.31,13.28s11.73-7.32,12-6.9c.12.19-5.3,7.34-5.18,7.54s2.16-1.49,2.26-1.31" transform="translate(-20 -19.17)"/><path class="cls-5" d="M125.54,248.78c.1.18,2.16-1.48,2.26-1.31s-5.22,6.74-5.11,6.92c.23.41,11-6.89,11.24-6.49s-11.34,11.6-11.13,12c.3.52,15.57-9.68,15.87-9.16S125,264.35,125.26,264.77s16.16-10,16.46-9.5c.22.37-11.52,12.91-11.31,13.28s11.73-7.32,12-6.9c.12.19-5.3,7.34-5.18,7.54s2.16-1.49,2.26-1.31" transform="translate(-20 -19.17)"/><path class="cls-5" d="M150.54,248.78c.1.18,2.16-1.48,2.26-1.31s-5.22,6.74-5.11,6.92c.23.41,11-6.89,11.24-6.49s-11.34,11.6-11.13,12c.3.52,15.57-9.68,15.87-9.16S150,264.35,150.26,264.77s16.16-10,16.46-9.5c.22.37-11.52,12.91-11.31,13.28s11.73-7.32,12-6.9c.12.19-5.3,7.34-5.18,7.54s2.16-1.49,2.26-1.31" transform="translate(-20 -19.17)"/><path class="cls-3" d="M200.54,248.78c.1.18,2.16-1.48,2.26-1.31s-5.22,6.74-5.11,6.92c.23.41,11-6.89,11.24-6.49s-11.34,11.6-11.13,12c.3.52,15.57-9.68,15.87-9.16S200,264.35,200.26,264.77s16.16-10,16.46-9.5c.22.37-11.52,12.91-11.31,13.28s11.73-7.32,12-6.9c.12.19-5.3,7.34-5.18,7.54s2.16-1.49,2.26-1.31" transform="translate(-20 -19.17)"/><path class="cls-4" d="M225.54,248.78c.1.18,2.16-1.48,2.26-1.31s-5.22,6.74-5.11,6.92c.23.41,11-6.89,11.24-6.49s-11.34,11.6-11.13,12c.3.52,15.57-9.68,15.87-9.16S225,264.35,225.26,264.77s16.16-10,16.46-9.5c.22.37-11.52,12.91-11.31,13.28s11.73-7.32,12-6.9c.12.19-5.3,7.34-5.18,7.54s2.16-1.49,2.26-1.31" transform="translate(-20 -19.17)"/><path class="cls-6" d="M250.54,248.78c.1.18,2.16-1.48,2.26-1.31s-5.22,6.74-5.11,6.92c.23.41,11-6.89,11.24-6.49s-11.34,11.6-11.13,12c.3.52,15.57-9.68,15.87-9.16S250,264.35,250.26,264.77s16.16-10,16.46-9.5c.22.37-11.52,12.91-11.31,13.28s11.73-7.32,12-6.9c.12.19-5.3,7.34-5.18,7.54s2.16-1.49,2.26-1.31" transform="translate(-20 -19.17)"/></g><circle class="cls-7" cx="62.5" cy="12.5" r="12.5"/><circle class="cls-7" cx="112.5" cy="12.5" r="12.5"/><circle class="cls-7" cx="162.5" cy="12.5" r="12.5"/><circle class="cls-7" cx="12.5" cy="37.68" r="12.5"/><circle class="cls-8" cx="62.5" cy="37.68" r="12.5"/><circle class="cls-7" cx="162.5" cy="37.68" r="12.5"/><circle class="cls-9" cx="212.5" cy="37.68" r="12.5"/><circle class="cls-7" cx="62.5" cy="62.87" r="12.5"/><circle class="cls-9" cx="212.5" cy="62.87" r="12.5"/><circle class="cls-10" cx="12.5" cy="88.05" r="12.5"/><circle class="cls-7" cx="162.5" cy="88.05" r="12.5"/><circle class="cls-9" cx="12.5" cy="113.24" r="12.5"/><circle class="cls-8" cx="62.5" cy="113.24" r="12.5"/><circle class="cls-7" cx="162.5" cy="113.24" r="12.5"/><circle class="cls-10" cx="62.5" cy="138.42" r="12.5"/><circle class="cls-11" cx="212.5" cy="138.42" r="12.5"/><circle class="cls-10" cx="12.5" cy="163.61" r="12.5"/><circle class="cls-7" cx="162.5" cy="163.61" r="12.5"/><circle class="cls-8" cx="12.5" cy="188.79" r="12.5"/><circle class="cls-7" cx="62.5" cy="188.79" r="12.5"/><circle class="cls-8" cx="212.5" cy="188.79" r="12.5"/><circle class="cls-9" cx="62.5" cy="213.98" r="12.5"/><circle class="cls-11" cx="212.5" cy="213.98" r="12.5"/><circle class="cls-8" cx="162.5" cy="239.16" r="12.5"/></g></svg>