<svg id="Layer_1" data-name="Layer 1" xmlns="http://www.w3.org/2000/svg" viewBox="0 0 248.94 251.66"><defs><style>.cls-1{opacity:0.5;}.cls-2,.cls-3,.cls-4,.cls-5,.cls-6{fill:none;stroke-linecap:round;stroke-linejoin:round;stroke-width:2.77px;}.cls-2{stroke:#ee3e45;}.cls-3{stroke:#f48e7e;}.cls-4{stroke:#fbd2c0;}.cls-5{stroke:#7daa7d;}.cls-6{stroke:#0b8743;}.cls-7{fill:#f48e7e;}.cls-8{fill:#ee3e45;}.cls-9{fill:#7daa7d;}.cls-10{fill:#fbd2c0;}.cls-11{fill:#0b8743;}</style></defs><title>0302</title><g class="cls-1"><path class="cls-2" d="M25.54,22.12c.1.18,2.16-1.48,2.26-1.3s-5.5,9.31-5.36,9.54c.27.47,13.65-8.5,13.92-8S23.77,35.83,24,36.24s16.41-10.19,16.72-9.65S27,39.63,27.22,40s14.88-9.26,15.17-8.76c.19.32-9.54,11-9.36,11.29s8.47-5.35,8.67-5" transform="translate(-20 -19.17)"/></g><g class="cls-1"><path class="cls-2" d="M50.54,22.12c.1.18,2.16-1.48,2.26-1.3s-5.42,8.47-5.29,8.69c.26.45,12.86-8,13.12-7.58S48.06,34.33,48.28,34.72s16.14-10,16.45-9.5S50.77,38.6,51,39s15.76-9.79,16.06-9.27S53.82,40.85,54,41.23,67.27,33,67.53,33.43c.13.23-5.46,8.86-5.33,9.09s2.16-1.48,2.26-1.3" transform="translate(-20 -19.17)"/></g><g class="cls-1"><path class="cls-2" d="M100.54,22.12c.1.18,2.16-1.48,2.26-1.3s-5.38,8.1-5.26,8.32c.26.43,12.52-7.82,12.78-7.38S98,34.29,98.26,34.67s16.13-10,16.44-9.49S100.36,38.1,100.6,38.52s16-9.92,16.28-9.4-12.54,12-12.33,12.39,12.67-7.9,12.92-7.46c.13.22-5.4,8.26-5.27,8.47s2.16-1.48,2.26-1.3" transform="translate(-20 -19.17)"/></g><g class="cls-1"><path class="cls-3" d="M150.54,22.12c.1.18,2.16-1.48,2.26-1.3s-5.27,7.11-5.15,7.3c.23.42,11.45-7.16,11.69-6.75S147.79,33.46,148,33.83c.3.52,15.84-9.84,16.14-9.32S149.78,37.4,150,37.82s16.27-10.11,16.58-9.58-14.07,11.85-13.84,12.25,14.42-9,14.71-8.49c.16.28-7.56,10.46-7.4,10.74s5.53-3.54,5.68-3.28" transform="translate(-20 -19.17)"/></g><g class="cls-1"><path class="cls-2" d="M200.54,22.12c.1.18,2.16-1.48,2.26-1.3s-5.23,6.83-5.13,7c.24.4,11.14-7,11.37-6.56s-11.32,12-11.11,12.32c.3.52,15.76-9.8,16.06-9.28s-14.67,12.52-14.43,12.94,16.4-10.18,16.71-9.65S201.72,39.42,202,39.83s15.11-9.4,15.4-8.89c.2.35-12.17,10.59-12,10.94s11.75-7.34,12-6.92c.11.2-5.3,7.36-5.18,7.56s2.16-1.48,2.26-1.3" transform="translate(-20 -19.17)"/></g><g class="cls-1"><path class="cls-3" d="M225.54,22.12c.1.18,2.16-1.48,2.26-1.3s-5.44,8.62-5.31,8.85c.26.45,13-8.12,13.27-7.67S223,34.1,223.21,34.49s16.06-10,16.37-9.46-14.52,12.7-14.28,13.12,16.13-10,16.44-9.49c.21.38-11.52,12.86-11.3,13.24s11.69-7.31,11.93-6.89c.12.19-5.29,7.32-5.17,7.51s2.16-1.48,2.26-1.3" transform="translate(-20 -19.17)"/></g><g class="cls-1"><path class="cls-2" d="M250.54,22.12c.1.18,2.16-1.48,2.26-1.3s-5.5,9.17-5.37,9.41c.27.46,13.54-8.44,13.81-8s-13.24,11.89-13,12.27,16.08-10,16.39-9.46-13.31,14-13.07,14.41,15.44-9.6,15.73-9.08c.2.34-10.16,11.74-10,12.08s9.37-5.89,9.58-5.53" transform="translate(-20 -19.17)"/></g><g class="cls-1"><path class="cls-2" d="M50.54,47.31c.1.17,2.16-1.49,2.26-1.31s-5.38,8.16-5.26,8.38c.25.44,12.57-7.85,12.83-7.41S48.18,59.91,48.4,60.3,64.68,50.19,65,50.72,50.46,63.41,50.7,63.83s15.92-9.89,16.23-9.37S54.84,66.59,55.06,67s12.1-7.56,12.35-7.13c.13.23-6.79,7.8-6.66,8s4.61-3,4.74-2.73" transform="translate(-20 -19.17)"/></g><g class="cls-1"><path class="cls-3" d="M100.54,47.31c.1.17,2.16-1.49,2.26-1.31s-5.48,9.5-5.34,9.74c.27.47,13.8-8.6,14.08-8.13S98.49,60.5,98.72,60.9s16.4-10.19,16.71-9.65-14.14,13-13.9,13.41,15.44-9.61,15.74-9.09c.19.33-9.69,11.82-9.5,12.15s8.8-5.54,9-5.19" transform="translate(-20 -19.17)"/></g><g class="cls-1"><path class="cls-3" d="M125.54,47.31c.1.17,2.16-1.49,2.26-1.31s-5.48,9-5.34,9.21c.26.46,13.34-8.32,13.6-7.86s-13.19,11.57-13,12S139,49.4,139.34,49.93s-14.85,12.3-14.61,12.72S141.09,52.49,141.4,53s-12.21,13.19-12,13.59,12.82-8,13.08-7.55c.14.24-6.83,8.54-6.7,8.78s4.55-2.94,4.69-2.71" transform="translate(-20 -19.17)"/></g><g class="cls-1"><path class="cls-3" d="M150.54,47.31c.1.17,2.16-1.49,2.26-1.31s-5.41,8.39-5.28,8.61c.25.44,12.78-8,13-7.53s-12.72,11.75-12.5,12.13,15.91-9.89,16.21-9.36S149.61,62.38,149.86,62.8s16.32-10.14,16.63-9.6S152.8,65.47,153,65.87,167.22,57,167.5,57.52c.18.31-10,9.89-9.81,10.2s8.89-5.6,9.1-5.25" transform="translate(-20 -19.17)"/></g><g class="cls-1"><path class="cls-2" d="M200.54,47.31c.1.17,2.16-1.49,2.26-1.31s-5.38,8.13-5.26,8.35c.26.44,12.55-7.83,12.8-7.39s-12.09,13.1-11.87,13.48c.31.54,16.32-10.13,16.63-9.59s-13.84,13.36-13.6,13.78S217,55,217.26,55.53c.2.35-11.42,11.39-11.22,11.74s11-6.91,11.27-6.51c.11.19-5.22,6.76-5.11,6.95s2.16-1.48,2.26-1.31" transform="translate(-20 -19.17)"/></g><g class="cls-1"><path class="cls-2" d="M250.54,47.31c.1.17,2.16-1.49,2.26-1.31s-5.47,9.66-5.33,9.9c.28.48,14-8.68,14.22-8.21s-13.53,12.18-13.3,12.57,16.27-10.1,16.58-9.57S251.72,64.59,252,65s15.11-9.39,15.4-8.89c.19.34-11.23,10.9-11,11.24s10.66-6.68,10.89-6.29" transform="translate(-20 -19.17)"/></g><g class="cls-1"><path class="cls-2" d="M25.54,72.49c.1.18,2.16-1.48,2.26-1.3s-5.25,6.94-5.14,7.13c.24.4,11.26-7,11.49-6.64S22.79,83.83,23,84.19c.3.53,15.84-9.84,16.14-9.32S25.54,88.69,25.79,89.11,41.66,79.25,42,79.77,28.89,91.26,29.11,91.64s13.15-8.2,13.41-7.74c.13.22-5.45,8.77-5.32,9s2.16-1.48,2.26-1.3" transform="translate(-20 -19.17)"/></g><g class="cls-1"><path class="cls-2" d="M50.54,72.49c.1.18,2.16-1.48,2.26-1.3S47.48,78.77,47.6,79c.24.42,12-7.5,12.25-7.08S47.91,84.22,48.12,84.59c.31.53,16-9.92,16.28-9.4S49.46,87.39,49.71,87.81s16.36-10.17,16.67-9.63c.23.39-11.9,13.39-11.68,13.78s12.5-7.8,12.75-7.36c.14.24-7.57,8.27-7.43,8.51s5.6-3.58,5.75-3.32" transform="translate(-20 -19.17)"/></g><g class="cls-1"><path class="cls-2" d="M100.54,72.49c.1.18,2.16-1.48,2.26-1.3s-5.29,7.29-5.17,7.49c.24.41,11.66-7.29,11.9-6.88S97.54,83,97.74,83.36c.3.52,15.47-9.61,15.76-9.1S99,86.68,99.27,87.09s16.4-10.18,16.71-9.65S102.09,90.09,102.33,90.5s14.79-9.2,15.08-8.71c.18.33-10.07,10.77-9.88,11.09s9.1-5.72,9.3-5.37" transform="translate(-20 -19.17)"/></g><g class="cls-1"><path class="cls-2" d="M125.54,72.49c.1.18,2.16-1.48,2.26-1.3s-5.3,7.39-5.18,7.59c.24.42,11.78-7.36,12-6.94S122.74,83.68,123,84c.31.52,15.79-9.81,16.09-9.29S124.66,87.62,124.9,88s16.31-10.13,16.62-9.6S128.64,91.11,128.86,91.5s13.43-8.36,13.69-7.9c.14.24-5.72,9.08-5.59,9.32s2.57-1.74,2.68-1.55" transform="translate(-20 -19.17)"/></g><g class="cls-1"><path class="cls-4" d="M150.54,72.49c.1.18,2.16-1.48,2.26-1.3s-5.4,8.26-5.27,8.48c.25.44,12.67-7.91,12.93-7.46S147.71,83.58,147.92,84s15.76-9.79,16.06-9.27-14.94,12-14.69,12.44,16.4-10.18,16.71-9.65-12.76,13.42-12.53,13.82,13.8-8.6,14.08-8.13c.16.29-9,9.56-8.82,9.85s7.53-4.77,7.71-4.46" transform="translate(-20 -19.17)"/></g><g class="cls-1"><path class="cls-4" d="M175.54,72.49c.1.18,2.16-1.48,2.26-1.3s-5.26,7.09-5.15,7.28c.24.42,11.43-7.15,11.67-6.73S172.59,83.19,172.8,83.55c.3.52,15.56-9.67,15.86-9.16s-14.54,12.46-14.3,12.88,16.4-10.19,16.71-9.65S176.73,89.79,177,90.2s15.1-9.39,15.39-8.88c.19.32-9.56,11.29-9.37,11.61s8.52-5.37,8.72-5" transform="translate(-20 -19.17)"/></g><g class="cls-1"><path class="cls-3" d="M200.54,72.49c.1.18,2.16-1.48,2.26-1.3s-5.46,9.77-5.32,10c.28.48,14.05-8.75,14.33-8.27S198,84.67,198.27,85.07s16.14-10,16.45-9.5S199.89,87.9,200.13,88.32s16.22-10.07,16.53-9.54c.22.38-12,12.88-11.81,13.26s12.33-7.7,12.58-7.26c.15.24-7.84,8.08-7.7,8.33s6-3.84,6.17-3.57" transform="translate(-20 -19.17)"/></g><g class="cls-1"><path class="cls-2" d="M250.54,72.49c.1.18,2.16-1.48,2.26-1.3s-5.49,9.4-5.35,9.64c.27.47,13.73-8.56,14-8.09s-13.5,11.61-13.28,12,16-10,16.33-9.43-13.85,13.52-13.6,13.94,15.82-9.83,16.12-9.31-12.74,11.53-12.53,11.9,12.73-7.94,13-7.49c.12.22-5.5,8.33-5.37,8.55s2.31-1.58,2.42-1.4" transform="translate(-20 -19.17)"/></g><g class="cls-1"><path class="cls-4" d="M50.54,97.68c.1.17,2.16-1.49,2.26-1.31s-5.47,9.62-5.33,9.86c.27.47,13.91-8.67,14.18-8.19S48,109.57,48.18,110s16-10,16.34-9.44-14,13.37-13.73,13.79S66.67,104.45,67,105s-12.85,11.6-12.63,12,12.9-8,13.16-7.6c.12.22-5.43,8.51-5.3,8.73s2.16-1.48,2.26-1.31" transform="translate(-20 -19.17)"/></g><g class="cls-1"><path class="cls-3" d="M75.54,97.68c.1.17,2.16-1.49,2.26-1.31s-5.32,7.56-5.2,7.76c.25.43,12-7.48,12.22-7S72.48,108,72.69,108.37c.29.52,15.37-9.55,15.67-9s-14.44,12.32-14.2,12.74,16.4-10.19,16.71-9.65S76.5,114.79,76.74,115.2s15.29-9.51,15.59-9c.2.36-12.23,10.85-12,11.21s11.83-7.4,12.08-7c.11.2-5.31,7.44-5.19,7.64s2.16-1.48,2.26-1.31" transform="translate(-20 -19.17)"/></g><g class="cls-1"><path class="cls-4" d="M100.54,97.68c.1.17,2.16-1.49,2.26-1.31s-5.51,9.23-5.37,9.47c.27.46,13.58-8.47,13.85-8s-13.12,12.38-12.9,12.77c.31.54,16.27-10.1,16.57-9.56s-13.11,14-12.87,14.43,15-9.33,15.29-8.83c.2.33-10.58,10.95-10.39,11.28s9.81-6.15,10-5.78" transform="translate(-20 -19.17)"/></g><g class="cls-1"><path class="cls-3" d="M125.54,97.68c.1.17,2.16-1.49,2.26-1.31s-5.26,7.08-5.15,7.27c.24.41,11.41-7.14,11.65-6.73s-11.55,12-11.34,12.33c.3.52,15.79-9.81,16.09-9.29s-13.86,13.5-13.61,13.92,16.05-10,16.36-9.44c.22.38-13.25,11.82-13,12.21s13.52-8.42,13.78-8c.16.28-8.84,9.25-8.68,9.53s7.3-4.63,7.48-4.32" transform="translate(-20 -19.17)"/></g><g class="cls-1"><path class="cls-4" d="M150.54,97.68c.1.17,2.16-1.49,2.26-1.31s-5.5,9.29-5.37,9.53c.27.46,13.64-8.5,13.91-8s-13.45,11.48-13.23,11.86,16-9.91,16.27-9.39-14.19,13.11-13.94,13.53,16.05-10,16.36-9.44c.22.37-11.7,12.61-11.48,13s11.82-7.39,12.07-7c.11.2-5.35,7.43-5.24,7.63s2.24-1.53,2.34-1.35" transform="translate(-20 -19.17)"/></g><g class="cls-1"><path class="cls-5" d="M200.54,97.68c.1.17,2.16-1.49,2.26-1.31s-5.47,8.9-5.34,9.13c.27.46,13.27-8.27,13.54-7.82S198.33,110.57,198.56,111s16.34-10.15,16.65-9.62-14.64,12.56-14.39,13S216.68,104.48,217,105s-13.48,11.23-13.26,11.61,13.58-8.47,13.85-8c.15.25-7.07,9.37-6.92,9.62s4.74-3.06,4.88-2.82" transform="translate(-20 -19.17)"/></g><g class="cls-1"><path class="cls-6" d="M225.54,97.68c.1.17,2.16-1.49,2.26-1.31s-5.23,6.82-5.12,7c.23.41,11.11-6.95,11.35-6.55s-11.62,10.39-11.43,10.73c.29.5,14.85-9.24,15.14-8.74S223.35,110.61,223.58,111s16.35-10.15,16.66-9.62-14.08,13.11-13.83,13.53,15.52-9.64,15.81-9.13c.21.36-11.82,11.36-11.61,11.71s11.51-7.19,11.75-6.78c.11.2-5.27,7.16-5.16,7.36s2.16-1.48,2.26-1.31" transform="translate(-20 -19.17)"/></g><g class="cls-1"><path class="cls-3" d="M250.54,97.68c.1.17,2.16-1.49,2.26-1.31s-5.38,8.1-5.25,8.31c.25.44,12.5-7.81,12.76-7.37S248,109.69,248.22,110.07c.3.53,16.07-10,16.38-9.46s-13.91,13.45-13.67,13.87,15.8-9.82,16.1-9.3-13.41,11.11-13.19,11.49,13.45-8.38,13.72-7.92c.14.25-6.69,9.2-6.55,9.45s4.21-2.74,4.34-2.51" transform="translate(-20 -19.17)"/></g><g class="cls-1"><path class="cls-4" d="M50.54,122.86c.1.18,2.16-1.48,2.26-1.31s-5.49,9.06-5.35,9.29c.26.46,13.41-8.36,13.68-7.9S48.07,135.1,48.29,135.49s16.16-10,16.46-9.5-14.34,12.91-14.1,13.33,15.95-9.91,16.25-9.38c.22.37-12.35,12.05-12.13,12.42s12.42-7.75,12.68-7.32c.12.22-6,8.06-5.86,8.28s3.21-2.12,3.32-1.92" transform="translate(-20 -19.17)"/></g><g class="cls-1"><path class="cls-2" d="M100.54,122.86c.1.18,2.16-1.48,2.26-1.31s-5.44,8.64-5.31,8.86c.26.45,13-8.12,13.28-7.67s-13,11.25-12.83,11.63,15.77-9.8,16.07-9.28-13.61,13.8-13.36,14.23,15.95-9.91,16.25-9.39S104,141.7,104.24,142.08s13-8.12,13.27-7.67c.13.23-5.82,8.66-5.68,8.89s2.8-1.88,2.91-1.68" transform="translate(-20 -19.17)"/></g><g class="cls-1"><path class="cls-4" d="M125.54,122.86c.1.18,2.16-1.48,2.26-1.31s-5.26,7-5.15,7.24c.24.41,11.37-7.11,11.61-6.7s-11.8,10.91-11.6,11.26c.3.51,15.24-9.48,15.54-9s-13.83,13.27-13.58,13.68,16.38-10.17,16.69-9.64-14.37,11.92-14.13,12.33,14.92-9.28,15.21-8.78c.19.33-10.94,10.71-10.74,11s10.24-6.42,10.46-6" transform="translate(-20 -19.17)"/></g><g class="cls-1"><path class="cls-5" d="M150.54,122.86c.1.18,2.16-1.48,2.26-1.31s-5.48,9.5-5.34,9.74c.27.47,13.8-8.6,14.07-8.13s-12.72,13.49-12.48,13.89,16.4-10.18,16.71-9.64-14.28,12.54-14,13,15.31-9.52,15.61-9c.18.32-8.88,11.68-8.69,12s7.67-4.86,7.85-4.54" transform="translate(-20 -19.17)"/></g><g class="cls-1"><path class="cls-4" d="M200.54,122.86c.1.18,2.16-1.48,2.26-1.31s-5.44,8.65-5.31,8.87c.26.45,13-8.12,13.29-7.67S198,134.91,198.23,135.29c.3.53,16.09-10,16.39-9.46S200.46,139,200.7,139.38s15.92-9.9,16.22-9.37c.22.38-13.48,11.37-13.25,11.75s13.63-8.49,13.9-8c.13.24-5.51,9.28-5.37,9.52s2.16-1.48,2.26-1.3" transform="translate(-20 -19.17)"/></g><g class="cls-1"><path class="cls-5" d="M225.54,122.86c.1.18,2.16-1.48,2.26-1.31s-5.4,8.33-5.28,8.55c.26.44,12.73-7.94,13-7.5s-12.92,10.92-12.71,11.28c.3.52,15.54-9.66,15.84-9.14s-14.54,12.42-14.3,12.83,16.4-10.18,16.71-9.65-13.91,12.57-13.68,13,14.76-9.19,15-8.69c.17.3-8.1,10.94-7.93,11.24s6.4-4.07,6.56-3.79" transform="translate(-20 -19.17)"/></g><g class="cls-1"><path class="cls-3" d="M250.54,122.86c.1.18,2.16-1.48,2.26-1.31s-5.46,8.81-5.33,9c.27.45,13.18-8.22,13.45-7.77s-12.36,13.35-12.14,13.75,16.41-10.19,16.72-9.65-13.88,13.15-13.64,13.57,15.19-9.45,15.48-8.94c.2.33-10.22,11.33-10,11.67s9.37-5.9,9.58-5.54" transform="translate(-20 -19.17)"/></g><g class="cls-1"><path class="cls-6" d="M25.54,148c.1.18,2.16-1.48,2.26-1.3s-5.5,9.13-5.36,9.37c.27.46,13.49-8.41,13.76-8S23.15,160.58,23.38,161c.31.54,16.26-10.1,16.57-9.56s-13.18,14-12.94,14.38,15.06-9.36,15.35-8.86c.18.31-8.43,11.36-8.25,11.67s7-4.42,7.13-4.12" transform="translate(-20 -19.17)"/></g><g class="cls-1"><path class="cls-5" d="M50.54,148c.1.18,2.16-1.48,2.26-1.3s-5.3,7.44-5.19,7.64c.25.43,11.84-7.39,12.09-7s-12,11.76-11.76,12.13c.3.52,15.76-9.8,16.06-9.28S50.09,163.7,50.33,164.12s16.12-10,16.42-9.48-12,12.63-11.79,13,12.21-7.62,12.46-7.19c.12.21-5.34,7.78-5.22,8s2.16-1.49,2.26-1.31" transform="translate(-20 -19.17)"/></g><g class="cls-1"><path class="cls-5" d="M100.54,148c.1.18,2.16-1.48,2.26-1.3s-5.28,7.28-5.17,7.48c.24.42,11.65-7.28,11.89-6.87s-12,11.3-11.75,11.65c.3.52,15.51-9.64,15.81-9.12s-14.17,13-13.93,13.41,16.38-10.17,16.69-9.63-12.45,13.14-12.22,13.53,13.14-8.19,13.4-7.74c.16.27-8.18,8.92-8,9.19s6.38-4.06,6.54-3.78" transform="translate(-20 -19.17)"/></g><g class="cls-1"><path class="cls-3" d="M125.54,148c.1.18,2.16-1.48,2.26-1.3s-5.25,7-5.14,7.19c.23.4,11.32-7.08,11.55-6.67S122.42,157.7,122.61,158c.29.5,14.93-9.28,15.22-8.78s-14.33,12-14.1,12.39,16.4-10.18,16.71-9.65-13.88,13.2-13.64,13.62,15.24-9.48,15.54-9-11.05,11.16-10.85,11.5,10.45-6.55,10.68-6.16" transform="translate(-20 -19.17)"/></g><g class="cls-1"><path class="cls-5" d="M150.54,148c.1.18,2.16-1.48,2.26-1.3s-5.5,9.17-5.36,9.4c.26.47,13.52-8.43,13.79-8s-13.38,11.41-13.16,11.8,15.92-9.89,16.22-9.37-13.62,13.79-13.38,14.21,15.81-9.83,16.11-9.3c.22.37-12.32,11.74-12.11,12.11s12.27-7.66,12.52-7.23c.13.23-6.77,8-6.63,8.19s4.54-2.94,4.68-2.71" transform="translate(-20 -19.17)"/></g><g class="cls-1"><path class="cls-6" d="M175.54,148c.1.18,2.16-1.48,2.26-1.3s-5.49,9.44-5.35,9.68c.27.47,13.76-8.57,14-8.1s-13,13-12.73,13.38,16.4-10.19,16.71-9.65-14.59,12.58-14.35,13,15.7-9.76,16-9.24c.21.35-11.1,11.9-10.89,12.25s10.81-6.77,11-6.37" transform="translate(-20 -19.17)"/></g><g class="cls-1"><path class="cls-5" d="M200.54,148c.1.18,2.16-1.48,2.26-1.3s-5.48,9-5.34,9.2c.26.46,13.33-8.31,13.6-7.85s-13,12.14-12.79,12.53,16.14-10,16.44-9.5-14.58,12.63-14.33,13,16.09-10,16.39-9.47-12.05,12.56-11.83,12.94,12.23-7.64,12.48-7.21c.14.24-7.48,8-7.35,8.23s5.53-3.54,5.68-3.28" transform="translate(-20 -19.17)"/></g><g class="cls-1"><path class="cls-3" d="M250.54,148c.1.18,2.16-1.48,2.26-1.3s-5.29,7.31-5.17,7.51c.24.42,11.69-7.3,11.93-6.89s-12,11.15-11.83,11.51,15.44-9.6,15.74-9.09S249.55,163,249.79,163.46s16.34-10.15,16.65-9.62S252,165.57,252.23,166s14.88-9.25,15.16-8.76c.19.32-9.45,11-9.27,11.29s8.36-5.28,8.56-4.94" transform="translate(-20 -19.17)"/></g><g class="cls-1"><path class="cls-5" d="M50.54,173.23c.1.18,2.16-1.48,2.26-1.31s-5.38,8.16-5.26,8.38c.25.44,12.57-7.85,12.82-7.41s-12.82,10.87-12.61,11.23c.3.52,15.48-9.62,15.77-9.1S49.1,187.55,49.34,188s16.4-10.18,16.71-9.65-12.32,13.58-12.09,14,13.32-8.3,13.58-7.84c.13.23-5.47,9-5.34,9.18s2.16-1.48,2.26-1.31" transform="translate(-20 -19.17)"/></g><g class="cls-1"><path class="cls-6" d="M75.54,173.23c.1.18,2.16-1.48,2.26-1.31s-5.47,8.91-5.34,9.14c.27.46,13.28-8.28,13.55-7.82s-12.52,13.17-12.29,13.57,16.39-10.18,16.7-9.64S76.72,190.52,77,190.94s15.11-9.39,15.4-8.89c.18.32-9,11.36-8.81,11.68s7.8-4.94,8-4.62" transform="translate(-20 -19.17)"/></g><g class="cls-1"><path class="cls-4" d="M100.54,173.23c.1.18,2.16-1.48,2.26-1.31s-5.51,9.23-5.37,9.47c.27.46,13.58-8.47,13.85-8s-13.13,12.37-12.9,12.76,16.25-10.1,16.56-9.56-13.26,13.89-13,14.31,15.14-9.42,15.43-8.91c.2.35-11.9,10.73-11.69,11.08s11.46-7.16,11.69-6.75c.12.19-5.26,7.12-5.15,7.31s2.16-1.48,2.26-1.31" transform="translate(-20 -19.17)"/></g><g class="cls-1"><path class="cls-5" d="M125.54,173.23c.1.18,2.16-1.48,2.26-1.31s-5.45,8.78-5.32,9c.26.46,13.15-8.2,13.41-7.74s-12.72,12.62-12.5,13,16.27-10.11,16.58-9.57-14,13.32-13.71,13.74,15.61-9.7,15.91-9.18c.2.34-10.48,11.93-10.28,12.27s9.93-6.23,10.14-5.85" transform="translate(-20 -19.17)"/></g><g class="cls-1"><path class="cls-4" d="M150.54,173.23c.1.18,2.16-1.48,2.26-1.31s-5.48,9.54-5.34,9.78c.27.47,13.84-8.62,14.11-8.15s-13.28,12.5-13,12.9,16.33-10.14,16.64-9.61S151.8,190.59,152,191s15-9.35,15.33-8.84c.19.33-10.52,11-10.33,11.34s9.73-6.11,9.94-5.74" transform="translate(-20 -19.17)"/></g><g class="cls-1"><path class="cls-5" d="M200.54,173.23c.1.18,2.16-1.48,2.26-1.31s-5.43,8.56-5.3,8.78c.26.45,12.94-8.07,13.2-7.62s-12.52,12.77-12.29,13.16,16.29-10.12,16.59-9.58-14.26,13-14,13.43,15.77-9.81,16.08-9.29S203.93,192,204.15,192.39s13.11-8.17,13.37-7.72c.14.24-6.47,8.82-6.33,9.06s3.9-2.54,4-2.32" transform="translate(-20 -19.17)"/></g><g class="cls-1"><path class="cls-3" d="M225.54,173.23c.1.18,2.16-1.48,2.26-1.31s-5.43,8.58-5.3,8.8c.26.45,13-8.08,13.22-7.63s-13.09,11-12.87,11.34,15.63-9.72,15.93-9.2-13.46,13.93-13.22,14.35,16-9.93,16.3-9.41-13.27,11.66-13.05,12,13.48-8.4,13.75-7.94c.15.27-7.93,9.31-7.77,9.58s5.93-3.78,6.08-3.51" transform="translate(-20 -19.17)"/></g><g class="cls-1"><path class="cls-4" d="M250.54,173.23c.1.18,2.16-1.48,2.26-1.31s-5.48,9.55-5.34,9.79c.27.47,13.85-8.63,14.12-8.16S248,185.34,248.25,185.73s16.11-10,16.42-9.48S250.17,189,250.42,189.4s16.07-10,16.37-9.45-12.11,12.47-11.89,12.85,12.28-7.67,12.53-7.24c.12.21-5.35,7.86-5.23,8.07s2.16-1.48,2.26-1.31" transform="translate(-20 -19.17)"/></g><g class="cls-1"><path class="cls-4" d="M50.54,198.41c.1.18,2.16-1.48,2.26-1.3s-5.4,8.28-5.27,8.5c.25.44,12.68-7.92,12.94-7.48S48,210.55,48.25,210.93c.31.53,16.12-10,16.43-9.48s-14.36,12.89-14.12,13.31,16-9.93,16.3-9.41-12.59,12-12.37,12.42,12.73-8,13-7.5c.12.21-5.41,8.33-5.28,8.54s2.16-1.48,2.26-1.3" transform="translate(-20 -19.17)"/></g><g class="cls-1"><path class="cls-5" d="M100.54,198.41c.1.18,2.16-1.48,2.26-1.3s-5.39,8.22-5.27,8.44c.26.44,12.63-7.88,12.89-7.44S97.87,210,98.09,210.39c.3.53,15.93-9.9,16.23-9.37s-15,12.1-14.77,12.52,16.4-10.19,16.71-9.65-14.3,12-14.07,12.42,14.91-9.27,15.2-8.77c.19.33-10.82,10.73-10.63,11.06s10.09-6.33,10.31-5.95" transform="translate(-20 -19.17)"/></g><g class="cls-1"><path class="cls-3" d="M125.54,198.41c.1.18,2.16-1.48,2.26-1.3s-5.26,7.06-5.15,7.25c.24.41,11.39-7.12,11.63-6.71s-11.7,11.41-11.5,11.76c.3.52,15.53-9.65,15.83-9.14s-13.3,14.06-13.06,14.48,16-9.94,16.3-9.41-13.68,11.44-13.46,11.83,13.87-8.64,14.15-8.17c.16.28-8.42,9.7-8.26,10s6.7-4.25,6.87-4" transform="translate(-20 -19.17)"/></g><g class="cls-1"><path class="cls-5" d="M150.54,198.41c.1.18,2.16-1.48,2.26-1.3s-5.47,9.68-5.33,9.92c.28.48,14-8.7,14.24-8.22s-13.31,12.63-13.08,13,16.37-10.16,16.68-9.62-15,12.17-14.71,12.59,16-9.93,16.27-9.4c.22.36-11.09,12.58-10.88,13s11.1-6.94,11.33-6.54c.11.19-5.23,6.81-5.12,7s2.16-1.48,2.26-1.3" transform="translate(-20 -19.17)"/></g><g class="cls-1"><path class="cls-4" d="M175.54,198.41c.1.18,2.16-1.48,2.26-1.3s-5.43,8.53-5.3,8.75c.26.45,12.93-8.06,13.19-7.61s-12.84,11.72-12.62,12.1S189,200.46,189.29,201s-13.84,13.53-13.59,14,15.92-9.89,16.22-9.37-12.66,11.82-12.44,12.2,12.74-7.95,13-7.51c.13.22-5.41,8.35-5.28,8.56s2.16-1.48,2.26-1.3" transform="translate(-20 -19.17)"/></g><g class="cls-1"><path class="cls-5" d="M200.54,198.41c.1.18,2.16-1.48,2.26-1.3s-5.26,7-5.15,7.23c.24.41,11.37-7.11,11.61-6.7s-11.83,10.58-11.63,10.93c.29.5,15-9.35,15.32-8.84s-14.31,12.15-14.07,12.56,16.4-10.18,16.71-9.65-13.2,13.62-13,14,14.53-9,14.82-8.55c.16.28-7.36,10.61-7.19,10.89s5.27-3.39,5.42-3.13" transform="translate(-20 -19.17)"/></g><g class="cls-1"><path class="cls-2" d="M250.54,198.41c.1.18,2.16-1.48,2.26-1.3s-5.28,7.26-5.17,7.46c.24.41,11.63-7.27,11.87-6.86s-12,11.08-11.8,11.44,15.39-9.57,15.69-9.06S250,214,250.25,214.39s16.16-10,16.46-9.51c.22.38-11.57,12.91-11.35,13.28s11.78-7.36,12-6.94c.12.2-5.3,7.4-5.18,7.59s2.16-1.48,2.26-1.3" transform="translate(-20 -19.17)"/></g><g class="cls-1"><path class="cls-4" d="M25.54,223.6c.1.17,2.16-1.48,2.26-1.31s-5.3,7.41-5.18,7.61c.24.42,11.79-7.37,12-7s-12,11.49-11.8,11.86c.3.52,15.64-9.72,15.94-9.21s-13.36,14.07-13.11,14.49,15.93-9.9,16.23-9.37c.22.38-13.07,11.62-12.85,12s13.21-8.23,13.47-7.78c.13.24-5.94,8.87-5.8,9.11s3-2,3.08-1.79" transform="translate(-20 -19.17)"/></g><g class="cls-1"><path class="cls-5" d="M50.54,223.6c.1.17,2.16-1.48,2.26-1.31s-5.41,8.35-5.28,8.57c.26.44,12.75-8,13-7.51S47.79,235,48,235.33c.3.53,15.85-9.85,16.15-9.32S50.63,239.9,50.87,240.32,66.7,230.49,67,231,53.77,242.3,54,242.68s13.28-8.28,13.55-7.82c.13.23-5.94,8.95-5.8,9.19s2.95-2,3.07-1.78" transform="translate(-20 -19.17)"/></g><g class="cls-1"><path class="cls-4" d="M100.54,223.6c.1.17,2.16-1.48,2.26-1.31s-5.47,8.87-5.33,9.1c.26.45,13.23-8.26,13.5-7.8s-13,11.86-12.8,12.25,16-10,16.33-9.43-14.1,13.22-13.85,13.64,15.95-9.91,16.25-9.38c.21.36-10.64,12.66-10.44,13s10.49-6.57,10.71-6.18" transform="translate(-20 -19.17)"/></g><g class="cls-1"><path class="cls-4" d="M125.54,223.6c.1.17,2.16-1.48,2.26-1.31s-5.45,9.86-5.31,10.1c.28.48,14.12-8.78,14.39-8.3s-12.83,13.73-12.59,14.14,16.4-10.18,16.71-9.65-12.64,13.48-12.41,13.88,13.7-8.53,14-8.07c.16.29-8.72,9.47-8.56,9.75s7.12-4.51,7.29-4.21" transform="translate(-20 -19.17)"/></g><g class="cls-1"><path class="cls-4" d="M150.54,223.6c.1.17,2.16-1.48,2.26-1.31s-5.31,7.51-5.19,7.71c.24.42,11.91-7.44,12.15-7s-12.29,10.82-12.09,11.18c.3.51,15.29-9.51,15.58-9S149.87,239,150.11,239.4s16.23-10.08,16.53-9.55-13.2,12.26-13,12.66,13.63-8.5,13.9-8c.13.24-5.51,9.28-5.37,9.52s2.16-1.48,2.26-1.31" transform="translate(-20 -19.17)"/></g><g class="cls-1"><path class="cls-6" d="M175.54,223.6c.1.17,2.16-1.48,2.26-1.31s-5.46,8.81-5.33,9c.27.46,13.18-8.21,13.44-7.76s-12.57,13-12.34,13.35c.31.54,16.35-10.15,16.66-9.61s-13,14-12.8,14.39,14.7-9.15,15-8.66c.18.31-9.47,10.71-9.29,11s8.35-5.26,8.54-4.93" transform="translate(-20 -19.17)"/></g><g class="cls-1"><path class="cls-2" d="M200.54,223.6c.1.17,2.16-1.48,2.26-1.31s-5.45,8.77-5.32,9c.26.46,13.15-8.2,13.41-7.74S197.78,234.93,198,235.31s15.84-9.85,16.14-9.32-14.94,12.1-14.7,12.52,16.4-10.19,16.71-9.65S202,241.1,202.21,241.51s14.89-9.27,15.18-8.77c.2.34-11.46,10.51-11.27,10.85s10.94-6.85,11.17-6.45c.11.18-5.2,6.67-5.09,6.86s2.16-1.48,2.26-1.31" transform="translate(-20 -19.17)"/></g><g class="cls-1"><path class="cls-3" d="M250.54,223.6c.1.17,2.16-1.48,2.26-1.31s-5.47,8.89-5.34,9.12c.27.45,13.26-8.27,13.53-7.81s-12.42,13.33-12.19,13.73,16.4-10.19,16.71-9.65S251.84,241,252.08,241.4s15-9.34,15.29-8.83c.2.34-11.28,10.73-11.08,11.07s10.72-6.72,10.94-6.32" transform="translate(-20 -19.17)"/></g><g class="cls-1"><path class="cls-5" d="M25.54,248.78c.1.18,2.16-1.48,2.26-1.3s-5.44,8.66-5.31,8.88c.26.45,13-8.13,13.3-7.68s-13.13,11-12.91,11.4c.3.52,15.68-9.75,16-9.23s-14.52,12.67-14.28,13.09S41,253.76,41.29,254.3s-14.37,11.94-14.13,12.35,14.94-9.29,15.22-8.79c.2.34-11.05,10.7-10.86,11s10.41-6.52,10.63-6.13" transform="translate(-20 -19.17)"/></g><g class="cls-1"><path class="cls-4" d="M50.54,248.78c.1.18,2.16-1.48,2.26-1.3s-5.26,7-5.15,7.24c.24.41,11.38-7.12,11.62-6.71s-11.23,12.92-11,13.3,16.12-10,16.42-9.49-13.45,13.85-13.2,14.27S67,256.47,67.25,257c.2.35-11,11.54-10.8,11.89s10.5-6.58,10.73-6.19" transform="translate(-20 -19.17)"/></g><g class="cls-1"><path class="cls-5" d="M75.54,248.78c.1.18,2.16-1.48,2.26-1.3s-5.32,7.6-5.2,7.8c.24.43,12-7.51,12.27-7.08s-11.72,13.08-11.5,13.46c.31.54,16.24-10.08,16.55-9.55s-14,13.27-13.8,13.69,15.7-9.76,16-9.24-11.87,11.64-11.66,12,11.67-7.3,11.91-6.88c.12.2-5.29,7.31-5.17,7.5s2.16-1.48,2.26-1.3" transform="translate(-20 -19.17)"/></g><g class="cls-1"><path class="cls-4" d="M100.54,248.78c.1.18,2.16-1.48,2.26-1.3s-5.29,7.3-5.17,7.5c.24.42,11.68-7.3,11.92-6.88S97.82,260.22,98,260.59c.31.53,15.88-9.86,16.18-9.34S99.78,264.06,100,264.48s16.27-10.11,16.58-9.58S102.89,267,103.12,267.39s14.11-8.79,14.39-8.31c.15.26-6.47,9.95-6.32,10.21s3.9-2.55,4-2.33" transform="translate(-20 -19.17)"/></g><g class="cls-1"><path class="cls-3" d="M125.54,248.78c.1.18,2.16-1.48,2.26-1.3s-5.47,8.92-5.34,9.15c.27.46,13.29-8.29,13.56-7.83s-12.78,12.71-12.55,13.11,16.31-10.13,16.61-9.6-13.72,13.46-13.48,13.88,15.4-9.57,15.7-9.06c.19.33-9.26,11.79-9.07,12.12s8.23-5.2,8.42-4.86" transform="translate(-20 -19.17)"/></g><g class="cls-1"><path class="cls-3" d="M150.54,248.78c.1.18,2.16-1.48,2.26-1.3s-5.32,7.58-5.2,7.78c.24.43,12-7.49,12.25-7.07s-12.12,11.74-11.91,12.11S163.72,250.5,164,251s-14.5,12.72-14.26,13.14,16.35-10.15,16.66-9.61S152.84,267,153.08,267.37s14.15-8.81,14.42-8.33c.15.25-6.21,10-6.06,10.22s3.47-2.28,3.59-2.08" transform="translate(-20 -19.17)"/></g><g class="cls-1"><path class="cls-3" d="M200.54,248.78c.1.18,2.16-1.48,2.26-1.3s-5.5,9.21-5.37,9.44c.27.47,13.57-8.45,13.83-8s-13.34,11.63-13.11,12c.3.53,16-9.94,16.3-9.41s-14,13.38-13.71,13.8,15.9-9.88,16.2-9.35c.22.37-12.15,12.05-11.94,12.42s12.17-7.6,12.42-7.17c.12.21-5.44,7.75-5.33,7.95s2.34-1.59,2.45-1.41" transform="translate(-20 -19.17)"/></g><g class="cls-1"><path class="cls-2" d="M225.54,248.78c.1.18,2.16-1.48,2.26-1.3s-5.49,9.08-5.36,9.32c.27.46,13.45-8.38,13.72-7.92s-12.81,12.84-12.58,13.24,16.35-10.16,16.66-9.62-14.77,12.39-14.53,12.81,15.92-9.89,16.22-9.36c.22.38-13.44,11.38-13.22,11.76s13.59-8.47,13.86-8c.14.24-5.51,9.24-5.37,9.47s2.16-1.48,2.26-1.3" transform="translate(-20 -19.17)"/></g><g class="cls-1"><path class="cls-2" d="M250.54,248.78c.1.18,2.16-1.48,2.26-1.3s-5.47,8.91-5.34,9.14c.27.46,13.29-8.28,13.55-7.82s-13.3,11.07-13.08,11.45S263.68,250.46,264,251s-13.46,14-13.22,14.41S266.66,255.52,267,256c.21.36-10.8,12.45-10.59,12.81s10.61-6.65,10.84-6.26" transform="translate(-20 -19.17)"/></g><circle class="cls-7" cx="62.5" cy="12.5" r="12.5"/><circle class="cls-8" cx="112.5" cy="12.5" r="12.5"/><circle class="cls-8" cx="162.5" cy="12.5" r="12.5"/><circle class="cls-7" cx="12.5" cy="37.68" r="12.5"/><circle class="cls-9" cx="62.5" cy="37.68" r="12.5"/><circle class="cls-9" cx="162.5" cy="37.68" r="12.5"/><circle class="cls-9" cx="212.5" cy="37.68" r="12.5"/><circle class="cls-10" cx="62.5" cy="62.87" r="12.5"/><circle class="cls-11" cx="212.5" cy="62.87" r="12.5"/><circle class="cls-11" cx="12.5" cy="88.05" r="12.5"/><circle class="cls-11" cx="162.5" cy="88.05" r="12.5"/><circle class="cls-11" cx="12.5" cy="113.24" r="12.5"/><circle class="cls-11" cx="62.5" cy="113.24" r="12.5"/><circle class="cls-11" cx="162.5" cy="113.24" r="12.5"/><circle class="cls-11" cx="62.5" cy="138.42" r="12.5"/><circle class="cls-11" cx="212.5" cy="138.42" r="12.5"/><circle class="cls-11" cx="12.5" cy="163.61" r="12.5"/><circle class="cls-11" cx="162.5" cy="163.61" r="12.5"/><circle class="cls-11" cx="12.5" cy="188.79" r="12.5"/><circle class="cls-11" cx="62.5" cy="188.79" r="12.5"/><circle class="cls-11" cx="212.5" cy="188.79" r="12.5"/><circle class="cls-11" cx="62.5" cy="213.98" r="12.5"/><circle class="cls-11" cx="212.5" cy="213.98" r="12.5"/><circle class="cls-9" cx="162.5" cy="239.16" r="12.5"/></svg>