<svg id="Layer_1" data-name="Layer 1" xmlns="http://www.w3.org/2000/svg" viewBox="0 0 250 251.66"><defs><style>.cls-1{fill:#0b8743;}.cls-2{fill:#fbd2c0;}.cls-3{fill:#f48e7e;}.cls-4{fill:#7daa7d;}.cls-5{fill:#ee3e45;}</style></defs><title>0401</title><circle class="cls-1" cx="12.5" cy="12.5" r="12.5"/><circle class="cls-1" cx="37.5" cy="12.5" r="12.5"/><circle class="cls-1" cx="62.5" cy="12.5" r="12.5"/><circle class="cls-1" cx="87.5" cy="12.5" r="12.5"/><circle class="cls-1" cx="112.5" cy="12.5" r="12.5"/><circle class="cls-2" cx="137.5" cy="12.5" r="12.5"/><circle class="cls-1" cx="162.5" cy="12.5" r="12.5"/><circle class="cls-3" cx="187.5" cy="12.5" r="12.5"/><circle class="cls-1" cx="212.5" cy="12.5" r="12.5"/><circle class="cls-4" cx="237.5" cy="12.5" r="12.5"/><circle class="cls-1" cx="12.5" cy="37.68" r="12.5"/><circle class="cls-1" cx="37.5" cy="37.68" r="12.5"/><circle class="cls-2" cx="62.5" cy="37.68" r="12.5"/><circle class="cls-2" cx="87.5" cy="37.68" r="12.5"/><circle class="cls-1" cx="112.5" cy="37.68" r="12.5"/><circle class="cls-1" cx="137.5" cy="37.68" r="12.5"/><circle class="cls-4" cx="162.5" cy="37.68" r="12.5"/><circle class="cls-4" cx="187.5" cy="37.68" r="12.5"/><circle class="cls-2" cx="212.5" cy="37.68" r="12.5"/><circle class="cls-1" cx="237.5" cy="37.68" r="12.5"/><circle class="cls-1" cx="12.5" cy="62.87" r="12.5"/><circle class="cls-1" cx="37.5" cy="62.87" r="12.5"/><circle class="cls-4" cx="62.5" cy="62.87" r="12.5"/><circle class="cls-4" cx="87.5" cy="62.87" r="12.5"/><circle class="cls-4" cx="112.5" cy="62.87" r="12.5"/><circle class="cls-1" cx="137.5" cy="62.87" r="12.5"/><circle class="cls-4" cx="162.5" cy="62.87" r="12.5"/><circle class="cls-1" cx="187.5" cy="62.87" r="12.5"/><circle class="cls-2" cx="212.5" cy="62.87" r="12.5"/><circle class="cls-2" cx="237.5" cy="62.87" r="12.5"/><circle class="cls-4" cx="12.5" cy="88.05" r="12.5"/><circle class="cls-1" cx="37.5" cy="88.05" r="12.5"/><circle class="cls-2" cx="62.5" cy="88.05" r="12.5"/><circle class="cls-4" cx="87.5" cy="88.05" r="12.5"/><circle class="cls-1" cx="112.5" cy="88.05" r="12.5"/><circle class="cls-4" cx="137.5" cy="88.05" r="12.5"/><circle class="cls-3" cx="162.5" cy="88.05" r="12.5"/><circle class="cls-1" cx="187.5" cy="88.05" r="12.5"/><circle class="cls-2" cx="212.5" cy="88.05" r="12.5"/><circle class="cls-3" cx="237.5" cy="88.05" r="12.5"/><circle class="cls-3" cx="12.5" cy="113.24" r="12.5"/><circle class="cls-2" cx="37.5" cy="113.24" r="12.5"/><circle class="cls-2" cx="62.5" cy="113.24" r="12.5"/><circle class="cls-4" cx="87.5" cy="113.24" r="12.5"/><circle class="cls-3" cx="112.5" cy="113.24" r="12.5"/><circle class="cls-4" cx="137.5" cy="113.24" r="12.5"/><circle class="cls-2" cx="162.5" cy="113.24" r="12.5"/><circle class="cls-3" cx="187.5" cy="113.24" r="12.5"/><circle class="cls-2" cx="212.5" cy="113.24" r="12.5"/><circle class="cls-2" cx="237.5" cy="113.24" r="12.5"/><circle class="cls-3" cx="12.5" cy="138.42" r="12.5"/><circle class="cls-4" cx="37.5" cy="138.42" r="12.5"/><circle class="cls-3" cx="62.5" cy="138.42" r="12.5"/><circle class="cls-3" cx="87.5" cy="138.42" r="12.5"/><circle class="cls-4" cx="112.5" cy="138.42" r="12.5"/><circle class="cls-3" cx="137.5" cy="138.42" r="12.5"/><circle class="cls-3" cx="162.5" cy="138.42" r="12.5"/><circle class="cls-5" cx="187.5" cy="138.42" r="12.5"/><circle class="cls-5" cx="212.5" cy="138.42" r="12.5"/><circle class="cls-3" cx="237.5" cy="138.42" r="12.5"/><circle class="cls-2" cx="12.5" cy="163.61" r="12.5"/><circle class="cls-1" cx="37.5" cy="163.61" r="12.5"/><circle class="cls-4" cx="62.5" cy="163.61" r="12.5"/><circle class="cls-2" cx="87.5" cy="163.61" r="12.5"/><circle class="cls-5" cx="112.5" cy="163.61" r="12.5"/><circle class="cls-2" cx="137.5" cy="163.61" r="12.5"/><circle class="cls-5" cx="162.5" cy="163.61" r="12.5"/><circle class="cls-3" cx="187.5" cy="163.61" r="12.5"/><circle class="cls-2" cx="212.5" cy="163.61" r="12.5"/><circle class="cls-2" cx="237.5" cy="163.61" r="12.5"/><circle class="cls-3" cx="12.5" cy="188.79" r="12.5"/><circle class="cls-4" cx="37.5" cy="188.79" r="12.5"/><circle class="cls-4" cx="62.5" cy="188.79" r="12.5"/><circle class="cls-4" cx="87.5" cy="188.79" r="12.5"/><circle class="cls-5" cx="112.5" cy="188.79" r="12.5"/><circle class="cls-5" cx="137.5" cy="188.79" r="12.5"/><circle class="cls-2" cx="162.5" cy="188.79" r="12.5"/><circle class="cls-5" cx="187.5" cy="188.79" r="12.5"/><circle class="cls-4" cx="212.5" cy="188.79" r="12.5"/><circle class="cls-3" cx="237.5" cy="188.79" r="12.5"/><circle class="cls-2" cx="12.5" cy="213.98" r="12.5"/><circle class="cls-5" cx="37.5" cy="213.98" r="12.5"/><circle class="cls-5" cx="62.5" cy="213.98" r="12.5"/><circle class="cls-3" cx="87.5" cy="213.98" r="12.5"/><circle class="cls-3" cx="112.5" cy="213.98" r="12.5"/><circle class="cls-3" cx="137.5" cy="213.98" r="12.5"/><circle class="cls-5" cx="162.5" cy="213.98" r="12.5"/><circle class="cls-3" cx="187.5" cy="213.98" r="12.5"/><circle class="cls-5" cx="212.5" cy="213.98" r="12.5"/><circle class="cls-5" cx="237.5" cy="213.98" r="12.5"/><circle class="cls-4" cx="12.5" cy="239.16" r="12.5"/><circle class="cls-5" cx="37.5" cy="239.16" r="12.5"/><circle class="cls-5" cx="62.5" cy="239.16" r="12.5"/><circle class="cls-5" cx="87.5" cy="239.16" r="12.5"/><circle class="cls-5" cx="112.5" cy="239.16" r="12.5"/><circle class="cls-5" cx="137.5" cy="239.16" r="12.5"/><circle class="cls-3" cx="162.5" cy="239.16" r="12.5"/><circle class="cls-5" cx="187.5" cy="239.16" r="12.5"/><circle class="cls-5" cx="212.5" cy="239.16" r="12.5"/><circle class="cls-5" cx="237.5" cy="239.16" r="12.5"/></svg>