<svg id="Layer_1" data-name="Layer 1" xmlns="http://www.w3.org/2000/svg" viewBox="0 0 248.9 251.66"><defs><style>.cls-1{opacity:0.5;}.cls-2,.cls-3,.cls-4,.cls-5,.cls-6{fill:none;stroke-linecap:round;stroke-linejoin:round;stroke-width:2.83px;}.cls-2{stroke:#0b8743;}.cls-3{stroke:#fbd2c0;}.cls-4{stroke:#f48e7e;}.cls-5{stroke:#7daa7d;}.cls-6{stroke:#ee3e45;}.cls-7{fill:#0b8743;}.cls-8{fill:#fbd2c0;}.cls-9{fill:#7daa7d;}.cls-10{fill:#f48e7e;}.cls-11{fill:#ee3e45;}</style></defs><title>0402</title><g class="cls-1"><path class="cls-2" d="M25.57,22.12c.1.18,2.11-1.45,2.22-1.28s-5.18,6.84-5.07,7c.23.41,11.1-6.95,11.33-6.54S22.76,33.17,23,33.52c.3.53,15.64-9.72,15.94-9.2S25.12,37.72,25.37,38.14s16-9.95,16.32-9.42-13.73,11.6-13.5,12,14-8.72,14.27-8.24c.15.27-7,9.92-6.86,10.19s4.78-3.09,4.92-2.84" transform="translate(-20 -19.17)"/></g><g class="cls-1"><path class="cls-2" d="M50.57,22.12c.1.18,2.11-1.45,2.22-1.28s-5.38,9.86-5.24,10.1c.28.49,14.06-8.75,14.33-8.27S49.22,36.53,49.46,36.94s16.29-10.13,16.6-9.59S51.59,39.23,51.82,39.64,67,30.21,67.28,30.72c.2.34-11.25,11-11.05,11.38s10.76-6.75,11-6.35" transform="translate(-20 -19.17)"/></g><g class="cls-1"><path class="cls-2" d="M100.57,22.12c.1.18,2.11-1.45,2.22-1.28s-5.29,7.81-5.17,8c.25.43,12.19-7.62,12.44-7.18s-12.25,11.65-12,12,15.7-9.76,16-9.24S99.4,36.85,99.65,37.27s16.28-10.12,16.59-9.58-14,12.09-13.76,12.49,14.6-9.09,14.89-8.6c.18.32-10.55,10.43-10.37,10.76s9.74-6.12,10-5.75" transform="translate(-20 -19.17)"/></g><g class="cls-1"><path class="cls-3" d="M150.57,22.12c.1.18,2.11-1.45,2.22-1.28s-5.22,7.21-5.11,7.4c.24.42,11.52-7.2,11.76-6.79s-11.91,10.91-11.71,11.26c.29.51,15.22-9.47,15.52-8.95S148.72,35.61,149,36s16.3-10.12,16.61-9.59-14.1,12.7-13.87,13.12,15.27-9.5,15.57-9c.2.35-11.92,11-11.71,11.33s11.53-7.21,11.77-6.79c.12.21-6.07,7.28-5.95,7.49s3.57-2.35,3.7-2.13" transform="translate(-20 -19.17)"/></g><g class="cls-1"><path class="cls-4" d="M200.57,22.12c.1.18,2.11-1.45,2.22-1.28s-5.41,9.6-5.27,9.84c.28.47,13.84-8.62,14.11-8.15S198,34.07,198.26,34.45s16-9.92,16.26-9.39-14,13.12-13.78,13.54,15.82-9.84,16.13-9.31S203.75,40.75,204,41.13s13.26-8.27,13.53-7.81c.15.27-8.66,9-8.51,9.31s7.11-4.51,7.29-4.21" transform="translate(-20 -19.17)"/></g><g class="cls-1"><path class="cls-2" d="M225.57,22.12c.1.18,2.11-1.45,2.22-1.28s-5.28,7.78-5.17,8c.25.43,12.16-7.6,12.41-7.17S222.87,33.52,223.08,33.9s15.77-9.81,16.07-9.28-14.57,12.45-14.33,12.86,16.24-10.09,16.55-9.55c.23.38-11.9,13.21-11.67,13.6s12.45-7.78,12.71-7.34c.12.21-5.32,8.09-5.2,8.31s2.12-1.46,2.22-1.29" transform="translate(-20 -19.17)"/></g><g class="cls-1"><path class="cls-5" d="M250.57,22.12c.1.18,2.11-1.45,2.22-1.28s-5.4,8.77-5.27,9c.27.46,13.1-8.17,13.36-7.71s-12.25,13.32-12,13.71,16.29-10.13,16.6-9.59-13.54,13.26-13.3,13.67,14.88-9.26,15.17-8.75c.19.33-10.79,10.75-10.6,11.08s10.1-6.34,10.32-6" transform="translate(-20 -19.17)"/></g><g class="cls-1"><path class="cls-2" d="M50.57,47.31c.1.18,2.11-1.46,2.22-1.28s-5.43,9.3-5.3,9.54c.27.47,13.59-8.47,13.86-8S48.17,59.7,48.4,60.09s16.11-10,16.42-9.48S50.26,63.07,50.5,63.49s16-9.91,16.25-9.38C67,54.47,56.12,67,56.33,67.31S67,60.66,67.18,61.05" transform="translate(-20 -19.17)"/></g><g class="cls-1"><path class="cls-3" d="M100.57,47.31c.1.18,2.11-1.46,2.22-1.28s-5.38,9.86-5.24,10.1c.28.48,14.06-8.76,14.34-8.27S98.33,60.07,98.56,60.47s16.22-10.08,16.53-9.54S100.66,63.56,100.9,64s15.74-9.78,16-9.26S104.65,66.43,104.86,66.8s12.28-7.66,12.53-7.23c.13.24-7.26,8.07-7.13,8.31s5.24-3.37,5.38-3.11" transform="translate(-20 -19.17)"/></g><g class="cls-1"><path class="cls-2" d="M125.57,47.31c.1.18,2.11-1.46,2.22-1.28s-5.38,9.91-5.23,10.16c.27.48,14.1-8.79,14.38-8.3s-13.88,11.45-13.65,11.84,16-9.94,16.29-9.41S124.86,62.59,125.1,63s16.16-10,16.46-9.5c.23.38-12.21,12.76-12,13.14s12.6-7.86,12.85-7.42c.13.21-5.33,8.25-5.21,8.46s2.12-1.46,2.22-1.28" transform="translate(-20 -19.17)"/></g><g class="cls-1"><path class="cls-2" d="M150.57,47.31c.1.18,2.11-1.46,2.22-1.28s-5.39,9.72-5.25,10c.27.48,13.94-8.68,14.21-8.21S148.45,60.3,148.68,60.7s16.26-10.11,16.57-9.57S151,64,151.26,64.36s15.54-9.66,15.84-9.14c.2.34-10.19,12-10,12.33s9.6-6,9.81-5.66" transform="translate(-20 -19.17)"/></g><g class="cls-1"><path class="cls-5" d="M200.57,47.31c.1.18,2.11-1.46,2.22-1.28s-5.26,7.54-5.14,7.74c.24.43,11.92-7.45,12.16-7S197.69,58.13,197.9,58.49c.3.52,15.54-9.66,15.84-9.14S200.65,63.54,200.89,64s15.74-9.79,16.05-9.27-13,11.34-12.8,11.72,13.07-8.16,13.33-7.7c.14.24-6.32,8.83-6.18,9.06s3.71-2.43,3.84-2.21" transform="translate(-20 -19.17)"/></g><g class="cls-1"><path class="cls-2" d="M250.57,47.31c.1.18,2.11-1.46,2.22-1.28s-5.38,9.83-5.24,10.08c.28.48,14-8.75,14.31-8.27s-13.24,12.77-13,13.17,16.3-10.13,16.61-9.59-14.13,12.78-13.89,13.2,15.35-9.55,15.64-9c.19.33-9,11.85-8.82,12.17s8-5,8.18-4.72" transform="translate(-20 -19.17)"/></g><g class="cls-1"><path class="cls-2" d="M25.57,72.49c.1.18,2.11-1.46,2.22-1.28s-5.17,6.79-5.06,7c.23.4,11-6.91,11.27-6.51S23.11,84.67,23.33,85c.3.53,16-10,16.34-9.43S25.36,88.38,25.6,88.79s15.9-9.88,16.2-9.35c.22.38-12.86,11.78-12.64,12.16s13.05-8.14,13.31-7.69c.13.23-5.39,8.73-5.26,9s2.12-1.46,2.22-1.29" transform="translate(-20 -19.17)"/></g><g class="cls-1"><path class="cls-2" d="M50.57,72.49c.1.18,2.11-1.46,2.22-1.28s-5.2,7-5.09,7.21c.24.41,11.3-7.07,11.54-6.66S47.48,82.27,47.68,82.61c.29.5,14.92-9.28,15.21-8.78S48.75,86,49,86.45s16.29-10.13,16.6-9.59S51.48,89.51,51.72,89.93,67,80.44,67.27,81c.2.36-12.28,10.84-12.07,11.2s11.9-7.45,12.15-7c.13.22-6.6,7.65-6.47,7.87s4.4-2.85,4.53-2.62" transform="translate(-20 -19.17)"/></g><g class="cls-1"><path class="cls-5" d="M100.57,72.49c.1.18,2.11-1.46,2.22-1.28s-5.18,6.91-5.08,7.1c.24.4,11.18-7,11.41-6.59S97.48,82.19,97.67,82.53c.29.5,14.87-9.25,15.16-8.75S98.76,86.06,99,86.47s16.3-10.13,16.61-9.59S102.46,90.32,102.7,90.73s14.41-9,14.7-8.49c.18.32-10.11,10.29-9.93,10.6s9.13-5.74,9.33-5.38" transform="translate(-20 -19.17)"/></g><g class="cls-1"><path class="cls-5" d="M125.57,72.49c.1.18,2.11-1.46,2.22-1.28s-5.31,8-5.19,8.22c.25.44,12.38-7.73,12.63-7.29s-12.39,11.66-12.18,12,15.74-9.79,16-9.26-14.13,13-13.89,13.4,16.1-10,16.41-9.48-12.28,12.6-12.06,13,12.62-7.88,12.88-7.44c.14.25-7.48,8.45-7.34,8.7s5.47-3.51,5.62-3.24" transform="translate(-20 -19.17)"/></g><g class="cls-1"><path class="cls-2" d="M150.57,72.49c.1.18,2.11-1.46,2.22-1.28s-5.21,7.13-5.1,7.32c.24.42,11.43-7.15,11.67-6.73S147.79,83.61,148,84c.3.52,15.67-9.74,16-9.22s-14,13.17-13.74,13.58,16.09-10,16.4-9.47-13.46,11.93-13.24,12.32,13.82-8.61,14.1-8.14c.16.28-8.22,9.72-8,10s6.45-4.11,6.61-3.82" transform="translate(-20 -19.17)"/></g><g class="cls-1"><path class="cls-5" d="M175.57,72.49c.1.18,2.11-1.46,2.22-1.28s-5.42,9.42-5.28,9.66c.27.47,13.68-8.53,14-8.06S174,86.51,174.24,86.91s16.3-10.12,16.61-9.58-13.86,12.6-13.63,13,14.82-9.23,15.11-8.72c.19.31-9.39,11-9.2,11.29s8.31-5.25,8.51-4.91" transform="translate(-20 -19.17)"/></g><g class="cls-1"><path class="cls-2" d="M200.57,72.49c.1.18,2.11-1.46,2.22-1.28s-5.38,8.62-5.25,8.84c.26.46,13-8.08,13.21-7.63S198.47,85.51,198.69,85.9,215,75.8,215.27,76.33s-13.1,13.75-12.86,14.16,14.66-9.12,15-8.63c.17.3-8.16,10.88-8,11.18s6.52-4.16,6.69-3.87" transform="translate(-20 -19.17)"/></g><g class="cls-1"><path class="cls-3" d="M250.57,72.49c.1.18,2.11-1.46,2.22-1.28s-5.28,7.76-5.16,8c.25.43,12.13-7.58,12.38-7.15s-11.79,13-11.57,13.39,16.16-10,16.47-9.51-14.25,12.84-14,13.26,15.74-9.79,16-9.26c.21.36-11.61,12-11.4,12.35s11.54-7.21,11.78-6.8c.11.2-5.22,7.22-5.11,7.42s2.12-1.46,2.22-1.29" transform="translate(-20 -19.17)"/></g><g class="cls-1"><path class="cls-2" d="M50.57,97.68c.1.18,2.11-1.46,2.22-1.28s-5.35,8.39-5.23,8.61c.26.45,12.74-8,13-7.5S47.81,108.9,48,109.27c.3.53,15.71-9.76,16-9.24S49.65,112.7,49.89,113.12,66.11,103,66.42,103.57,54.57,116.75,54.8,117.14s12.34-7.72,12.6-7.28c.12.22-5.56,8-5.44,8.22s2.56-1.73,2.67-1.54" transform="translate(-20 -19.17)"/></g><g class="cls-1"><path class="cls-3" d="M75.57,97.68c.1.18,2.11-1.46,2.22-1.28s-5.39,9.76-5.25,10c.28.48,14-8.71,14.25-8.23s-13,13-12.81,13.45S90.27,101.49,90.59,102s-14.32,12.49-14.08,12.91,15.38-9.57,15.68-9.06-11.73,11.24-11.52,11.6,11.4-7.14,11.64-6.72c.11.19-5.21,7.1-5.1,7.29s2.12-1.46,2.22-1.28" transform="translate(-20 -19.17)"/></g><g class="cls-1"><path class="cls-5" d="M100.57,97.68c.1.18,2.11-1.46,2.22-1.28s-5.44,9.1-5.3,9.33c.27.47,13.41-8.36,13.68-7.9s-13.07,12-12.84,12.4,16-10,16.34-9.44-14.26,12.83-14,13.25,15.87-9.86,16.17-9.34S104.23,116.57,104.45,117s12.73-8,13-7.5c.14.25-7.73,8.57-7.58,8.82s5.8-3.71,6-3.44" transform="translate(-20 -19.17)"/></g><g class="cls-1"><path class="cls-2" d="M125.57,97.68c.1.18,2.11-1.46,2.22-1.28s-5.33,8.21-5.21,8.43c.26.44,12.57-7.85,12.83-7.41s-12.77,10.9-12.56,11.27,15.45-9.61,15.75-9.09-13.08,14.15-12.84,14.57,15.81-9.83,16.12-9.3c.21.37-12.06,12-11.85,12.39s12.09-7.55,12.34-7.12c.12.21-5.27,7.71-5.16,7.91s2.12-1.46,2.22-1.28" transform="translate(-20 -19.17)"/></g><g class="cls-1"><path class="cls-5" d="M150.57,97.68c.1.18,2.11-1.46,2.22-1.28s-5.32,8.08-5.2,8.29c.26.44,12.45-7.77,12.7-7.33s-12.62,11.07-12.41,11.43c.3.52,15.51-9.64,15.8-9.12s-14.27,12.74-14,13.16,16.29-10.12,16.6-9.59-11.82,13.43-11.6,13.82,12.51-7.81,12.76-7.37c.13.21-5.32,8.15-5.2,8.36s2.12-1.46,2.22-1.28" transform="translate(-20 -19.17)"/></g><g class="cls-1"><path class="cls-2" d="M200.57,97.68c.1.18,2.11-1.46,2.22-1.28s-5.28,7.75-5.16,7.95c.25.43,12.13-7.58,12.38-7.15s-12.21,11.66-12,12,15.7-9.76,16-9.24-14.82,12-14.58,12.46,16.3-10.13,16.61-9.59S203.22,116,203.45,116.41s13.76-8.58,14-8.11c.13.24-5.41,9.51-5.28,9.75s2.12-1.46,2.22-1.28" transform="translate(-20 -19.17)"/></g><g class="cls-1"><path class="cls-3" d="M225.57,97.68c.1.18,2.11-1.46,2.22-1.28s-5.2,7-5.09,7.21c.24.41,11.31-7.08,11.55-6.67s-11.22,12.66-11,13c.31.53,15.95-9.92,16.26-9.39s-13.45,13.76-13.21,14.18,15.52-9.65,15.82-9.13c.2.34-10.83,11.75-10.63,12.1s10.43-6.54,10.65-6.16" transform="translate(-20 -19.17)"/></g><g class="cls-1"><path class="cls-4" d="M250.57,97.68c.1.18,2.11-1.46,2.22-1.28s-5.24,7.36-5.12,7.56c.24.42,11.71-7.32,12-6.9S247.75,108.68,248,109c.3.52,15.62-9.72,15.93-9.2s-13.81,13.38-13.57,13.8,16-10,16.35-9.44-13.48,11.8-13.25,12.19,13.79-8.6,14.06-8.12c.17.28-8.82,9.61-8.65,9.9s7.35-4.67,7.53-4.36" transform="translate(-20 -19.17)"/></g><g class="cls-1"><path class="cls-3" d="M50.57,122.86c.1.18,2.11-1.46,2.22-1.28s-5.21,7.17-5.1,7.36c.24.42,11.48-7.18,11.72-6.76s-11.91,10.67-11.71,11c.3.5,15.06-9.37,15.35-8.87s-13.94,12.74-13.7,13.15,16.29-10.13,16.6-9.59S52,140.33,52.26,140.74s14.79-9.21,15.08-8.71c.18.31-8.61,11-8.43,11.33s7.23-4.59,7.41-4.28" transform="translate(-20 -19.17)"/></g><g class="cls-1"><path class="cls-5" d="M100.57,122.86c.1.18,2.11-1.46,2.22-1.28s-5.42,9.48-5.28,9.72c.27.47,13.74-8.56,14-8.09s-12.58,13.54-12.35,13.94,16.3-10.12,16.61-9.58-13.5,13-13.27,13.38,14.58-9.07,14.86-8.58c.19.33-10.72,10.33-10.54,10.65s10-6.25,10.19-5.88" transform="translate(-20 -19.17)"/></g><g class="cls-1"><path class="cls-4" d="M125.57,122.86c.1.18,2.11-1.46,2.22-1.28s-5.38,9.88-5.24,10.13c.28.48,14.08-8.77,14.36-8.29s-13.78,11.69-13.56,12.08c.31.54,16.07-10,16.38-9.45s-13.46,13.66-13.22,14.07,15.38-9.56,15.68-9.05-12.68,10.84-12.47,11.21,12.43-7.77,12.69-7.33c.14.24-7.55,8.26-7.41,8.51s5.59-3.58,5.74-3.32" transform="translate(-20 -19.17)"/></g><g class="cls-1"><path class="cls-5" d="M150.57,122.86c.1.18,2.11-1.46,2.22-1.28s-5.24,7.36-5.12,7.56c.24.42,11.7-7.32,11.94-6.9S148.09,135,148.3,135.34c.31.53,16-10,16.32-9.42S149.73,138,150,138.4s16.2-10.07,16.51-9.54S154.59,142,154.82,142.33s12.32-7.7,12.57-7.26c.12.21-5.3,8-5.18,8.16s2.12-1.46,2.22-1.28" transform="translate(-20 -19.17)"/></g><g class="cls-1"><path class="cls-4" d="M200.57,122.86c.1.18,2.11-1.46,2.22-1.28s-5.21,7.13-5.1,7.32c.24.42,11.43-7.15,11.67-6.74s-11.21,13-11,13.39,16.08-10,16.39-9.47-13,14-12.77,14.43,15-9.34,15.31-8.84c.19.32-9.38,11.29-9.19,11.61s8.34-5.27,8.53-4.93" transform="translate(-20 -19.17)"/></g><g class="cls-1"><path class="cls-3" d="M225.57,122.86c.1.18,2.11-1.46,2.22-1.28s-5.29,7.84-5.17,8c.25.43,12.21-7.63,12.46-7.2s-12.37,11.3-12.16,11.67c.3.52,15.56-9.68,15.86-9.16S224.39,137.57,224.63,138s16.29-10.13,16.6-9.59-14.1,12-13.86,12.43,14.7-9.15,15-8.65c.18.3-8.9,10.84-8.73,11.15s7.67-4.85,7.85-4.53" transform="translate(-20 -19.17)"/></g><g class="cls-1"><path class="cls-3" d="M250.57,122.86c.1.18,2.11-1.46,2.22-1.28s-5.31,8-5.19,8.21c.25.44,12.37-7.72,12.62-7.28s-12.15,12.39-11.94,12.77c.31.53,16-9.94,16.3-9.41s-14,13.11-13.78,13.53,15.79-9.82,16.09-9.29c.21.35-10.45,12.5-10.25,12.85s10.22-6.41,10.44-6" transform="translate(-20 -19.17)"/></g><g class="cls-1"><path class="cls-4" d="M25.57,148.05c.1.18,2.11-1.46,2.22-1.28s-5.4,9.62-5.26,9.86c.27.47,13.85-8.64,14.13-8.16S23.71,161.52,24,161.92s16.29-10.12,16.6-9.58-13.38,13.3-13.14,13.71,14.66-9.13,15-8.64c.19.33-11,10.36-10.86,10.69s10.4-6.52,10.63-6.13" transform="translate(-20 -19.17)"/></g><g class="cls-1"><path class="cls-5" d="M50.57,148.05c.1.18,2.11-1.46,2.22-1.28s-5.44,9.14-5.31,9.38c.27.46,13.46-8.39,13.72-7.93S47.89,159.53,48.11,159.9c.3.53,15.8-9.82,16.1-9.29S49.63,163,49.87,163.46s16.23-10.09,16.54-9.55-12.59,12.8-12.36,13.19,13.17-8.22,13.44-7.76c.14.25-7,9-6.87,9.24s4.75-3.07,4.89-2.82" transform="translate(-20 -19.17)"/></g><g class="cls-1"><path class="cls-4" d="M100.57,148.05c.1.18,2.11-1.46,2.22-1.28s-5.31,8-5.18,8.17c.25.44,12.33-7.7,12.58-7.27S97.72,159,97.93,159.33c.3.52,15.6-9.69,15.9-9.17s-14.31,12.75-14.07,13.17,16.26-10.11,16.57-9.57-13.66,12.29-13.43,12.69,14.24-8.87,14.52-8.39c.17.28-7.73,10.3-7.57,10.58s5.81-3.72,6-3.44" transform="translate(-20 -19.17)"/></g><g class="cls-1"><path class="cls-5" d="M125.57,148.05c.1.18,2.11-1.46,2.22-1.28s-5.17,6.74-5.06,6.93c.23.4,11-6.88,11.22-6.48s-11,12.6-10.75,13c.3.52,15.89-9.88,16.2-9.36s-13.19,14-12.94,14.43,15.41-9.59,15.71-9.07c.19.33-9.36,11.93-9.16,12.26s8.46-5.34,8.66-5" transform="translate(-20 -19.17)"/></g><g class="cls-1"><path class="cls-4" d="M150.57,148.05c.1.18,2.11-1.46,2.22-1.28s-5.38,9.92-5.23,10.16c.28.49,14.11-8.79,14.39-8.3s-12.86,13.59-12.62,14,16.3-10.13,16.61-9.59-12.46,13.48-12.22,13.88,13.52-8.44,13.79-8c.16.27-8.16,9.38-8,9.65s6.33-4,6.49-3.75" transform="translate(-20 -19.17)"/></g><g class="cls-1"><path class="cls-4" d="M175.57,148.05c.1.18,2.11-1.46,2.22-1.28s-5.33,8.21-5.21,8.43c.26.44,12.57-7.85,12.83-7.41s-12.13,12.93-11.91,13.32S189.7,151,190,151.58,176.35,165,176.59,165.37s15.33-9.54,15.63-9c.2.36-11.85,11.12-11.65,11.47s11.5-7.19,11.75-6.78c.11.2-5.22,7.19-5.11,7.39s2.12-1.46,2.22-1.28" transform="translate(-20 -19.17)"/></g><g class="cls-1"><path class="cls-6" d="M200.57,148.05c.1.18,2.11-1.46,2.22-1.28s-5.36,8.44-5.23,8.66c.26.45,12.79-8,13-7.53s-12.27,12.91-12,13.3,16.22-10.08,16.53-9.54-13.92,13.14-13.68,13.55,15.45-9.61,15.75-9.09c.2.34-10.24,11.83-10,12.17s9.6-6,9.81-5.66" transform="translate(-20 -19.17)"/></g><g class="cls-1"><path class="cls-4" d="M250.57,148.05c.1.18,2.11-1.46,2.22-1.28s-5.42,9.47-5.28,9.71c.27.47,13.73-8.56,14-8.09s-13.41,11.85-13.18,12.24,16-10,16.35-9.44-14.06,13.07-13.81,13.49,15.75-9.79,16.05-9.27-13.08,11.32-12.87,11.7,13.16-8.21,13.42-7.75c.13.22-5.4,8.83-5.27,9.06s2.12-1.46,2.22-1.28" transform="translate(-20 -19.17)"/></g><g class="cls-1"><path class="cls-2" d="M50.57,173.23c.1.18,2.11-1.46,2.22-1.28s-5.19,6.93-5.08,7.12c.24.41,11.2-7,11.44-6.6s-11.23,12.3-11,12.67c.3.52,15.81-9.84,16.11-9.31s-14.9,12-14.66,12.46,16.3-10.13,16.61-9.59-13.6,12.47-13.37,12.87,14.31-8.91,14.59-8.42c.19.31-10.81,9.91-10.62,10.23s10-6.3,10.24-5.92" transform="translate(-20 -19.17)"/></g><g class="cls-1"><path class="cls-5" d="M75.57,173.23c.1.18,2.11-1.46,2.22-1.28s-5.33,8.22-5.21,8.43c.26.44,12.57-7.85,12.83-7.4S72.8,184.42,73,184.79c.3.52,15.69-9.76,16-9.24s-14.68,12.29-14.44,12.7,16.29-10.12,16.6-9.59-14.2,12-14,12.4,14.84-9.23,15.13-8.73c.19.32-10.12,10.91-9.94,11.23s9.23-5.8,9.44-5.44" transform="translate(-20 -19.17)"/></g><g class="cls-1"><path class="cls-3" d="M100.57,173.23c.1.18,2.11-1.46,2.22-1.28s-5.4,8.75-5.27,9c.27.45,13.08-8.16,13.35-7.71S98,185.14,98.25,185.52s15.94-9.91,16.25-9.38S101.14,190,101.38,190.38s15.46-9.62,15.76-9.1c.21.35-11.43,11.47-11.23,11.83s11.14-7,11.37-6.57c.11.19-5.17,6.88-5.07,7.06s2.12-1.46,2.22-1.28" transform="translate(-20 -19.17)"/></g><g class="cls-1"><path class="cls-6" d="M125.57,173.23c.1.18,2.11-1.46,2.22-1.28s-5.38,8.61-5.25,8.84c.26.45,13-8.08,13.21-7.63s-12.16,13.32-11.93,13.72,16.3-10.13,16.61-9.59-14.06,12.87-13.82,13.29,15.32-9.53,15.62-9c.19.32-8.91,11.8-8.73,12.13s7.85-5,8-4.64" transform="translate(-20 -19.17)"/></g><g class="cls-1"><path class="cls-3" d="M150.57,173.23c.1.18,2.11-1.46,2.22-1.28s-5.27,7.65-5.15,7.86c.25.43,12-7.53,12.28-7.1s-12.4,10.71-12.2,11.07,15.2-9.45,15.5-8.94-13.54,13.46-13.3,13.87,16.22-10.08,16.53-9.54-12.93,12.55-12.71,13,13.51-8.42,13.78-8c.14.25-6.23,9.28-6.09,9.52s3.47-2.28,3.59-2.07" transform="translate(-20 -19.17)"/></g><g class="cls-1"><path class="cls-4" d="M200.57,173.23c.1.18,2.11-1.46,2.22-1.28s-5.4,8.79-5.27,9c.26.46,13.11-8.18,13.38-7.72S197.85,184.57,198.07,185s15.75-9.79,16.05-9.27-13.65,13.57-13.4,14,15.83-9.84,16.14-9.31c.21.36-11.23,12.36-11,12.72s11.21-7,11.45-6.6c.11.18-5.18,6.93-5.08,7.12s2.12-1.46,2.22-1.28" transform="translate(-20 -19.17)"/></g><g class="cls-1"><path class="cls-3" d="M225.57,173.23c.1.18,2.11-1.46,2.22-1.28s-5.38,9.89-5.24,10.14c.28.48,14.09-8.78,14.37-8.3s-13.36,12.64-13.13,13,16.3-10.13,16.61-9.59-14.46,12.56-14.22,13,15.59-9.69,15.89-9.17c.2.34-10.41,12-10.21,12.35s9.93-6.24,10.15-5.86" transform="translate(-20 -19.17)"/></g><g class="cls-1"><path class="cls-3" d="M250.57,173.23c.1.18,2.11-1.46,2.22-1.28s-5.37,8.54-5.24,8.76c.26.45,12.87-8,13.13-7.58s-12.2,13.14-12,13.53c.31.54,16.27-10.11,16.58-9.57s-12.77,14-12.53,14.42,14.37-8.94,14.65-8.46c.17.3-8.41,10.41-8.24,10.7s6.85-4.35,7-4.05" transform="translate(-20 -19.17)"/></g><g class="cls-1"><path class="cls-5" d="M50.57,198.42c.1.17,2.11-1.46,2.22-1.29s-5.18,6.85-5.07,7c.23.4,11.1-6.95,11.34-6.55s-11.54,11-11.34,11.33c.3.51,15.19-9.44,15.49-8.94s-14.28,12.27-14.05,12.68,16.3-10.12,16.61-9.59-14.23,12.38-14,12.8,15.2-9.46,15.49-9S54.81,217.63,55,218s12.1-7.56,12.35-7.13c.12.2-5.27,7.72-5.16,7.93s2.12-1.46,2.22-1.28" transform="translate(-20 -19.17)"/></g><g class="cls-1"><path class="cls-5" d="M100.57,198.42c.1.17,2.11-1.46,2.22-1.29s-5.25,7.45-5.13,7.65c.24.42,11.8-7.38,12-7S97.6,209,97.81,209.31s15.39-9.57,15.69-9.06-13.12,14.07-12.88,14.49,15.89-9.87,16.19-9.34c.21.36-10.62,12.68-10.41,13s10.53-6.6,10.76-6.21" transform="translate(-20 -19.17)"/></g><g class="cls-1"><path class="cls-6" d="M125.57,198.42c.1.17,2.11-1.46,2.22-1.29s-5.25,7.48-5.13,7.68c.24.43,11.84-7.4,12.08-7s-12,11.56-11.79,11.93,15.63-9.72,15.93-9.2S125.71,214.72,126,215.14s15.71-9.77,16-9.25c.21.35-10.39,12.32-10.18,12.67s10-6.3,10.25-5.93" transform="translate(-20 -19.17)"/></g><g class="cls-1"><path class="cls-6" d="M150.57,198.42c.1.17,2.11-1.46,2.22-1.29s-5.3,7.94-5.18,8.15c.25.44,12.3-7.69,12.56-7.25s-12,12.74-11.79,13.12c.31.53,16.1-10,16.41-9.47s-14.24,12.86-14,13.27,15.8-9.82,16.1-9.29c.21.36-10.83,12.38-10.63,12.74s10.72-6.72,11-6.32" transform="translate(-20 -19.17)"/></g><g class="cls-1"><path class="cls-3" d="M175.57,198.42c.1.17,2.11-1.46,2.22-1.29s-5.42,8.93-5.28,9.16c.26.46,13.24-8.26,13.51-7.8s-12.16,13.67-11.93,14.07,16.3-10.13,16.61-9.59S177.19,216,177.43,216.43s14.64-9.12,14.93-8.62c.18.31-9.75,10.67-9.57,11s8.73-5.5,8.93-5.16" transform="translate(-20 -19.17)"/></g><g class="cls-1"><path class="cls-6" d="M200.57,198.42c.1.17,2.11-1.46,2.22-1.29s-5.44,9.15-5.31,9.38c.27.47,13.45-8.38,13.72-7.92s-13.35,11.18-13.13,11.55c.3.53,15.75-9.79,16.06-9.27s-14.11,13-13.87,13.44,16.07-10,16.38-9.46c.22.38-11.36,12.94-11.14,13.31s11.58-7.24,11.82-6.82c.11.19-5.22,7.25-5.11,7.45s2.12-1.46,2.22-1.28" transform="translate(-20 -19.17)"/></g><g class="cls-1"><path class="cls-4" d="M250.57,198.42c.1.17,2.11-1.46,2.22-1.29s-5.4,9.63-5.26,9.88c.27.47,13.86-8.64,14.14-8.17s-13.32,12.38-13.09,12.78,16.23-10.08,16.54-9.55-13.4,13.56-13.16,14,15-9.36,15.34-8.85c.19.33-10.92,11-10.72,11.31s10.3-6.47,10.52-6.08" transform="translate(-20 -19.17)"/></g><g class="cls-1"><path class="cls-3" d="M25.57,223.6c.1.18,2.11-1.46,2.22-1.28s-5.24,7.37-5.12,7.57c.24.42,11.71-7.33,12-6.91S23.25,236.22,23.47,236.6c.31.54,16.19-10.06,16.5-9.52s-13.25,13.74-13,14.15,15-9.35,15.34-8.85c.19.34-10.84,11-10.65,11.32s10.2-6.4,10.43-6" transform="translate(-20 -19.17)"/></g><g class="cls-1"><path class="cls-6" d="M50.57,223.6c.1.18,2.11-1.46,2.22-1.28s-5.16,6.7-5,6.88c.23.4,10.93-6.84,11.16-6.44S47.75,234.6,48,235c.3.52,15.62-9.72,15.92-9.2s-14.74,12.1-14.5,12.52,16.3-10.13,16.61-9.59-13.68,12.62-13.45,13,14.55-9.06,14.84-8.56c.18.31-10,10.5-9.78,10.81s9-5.64,9.17-5.29" transform="translate(-20 -19.17)"/></g><g class="cls-1"><path class="cls-4" d="M100.57,223.6c.1.18,2.11-1.46,2.22-1.28s-5.39,8.72-5.26,8.94c.26.46,13-8.14,13.31-7.68s-12.42,13-12.19,13.35,16.25-10.1,16.56-9.56S101.49,240.62,101.73,241s15.24-9.48,15.54-9S104.82,242.82,105,243.18s12.1-7.56,12.35-7.13c.12.21-5.27,7.72-5.16,7.92s2.12-1.46,2.22-1.28" transform="translate(-20 -19.17)"/></g><g class="cls-1"><path class="cls-4" d="M125.57,223.6c.1.18,2.11-1.46,2.22-1.28s-5.38,9.88-5.24,10.13c.28.48,14.08-8.77,14.36-8.29s-13.16,13-12.92,13.4,16.29-10.13,16.6-9.59-14.39,12.41-14.15,12.83,15.43-9.6,15.72-9.08c.2.34-10.11,11.83-9.92,12.17s9.43-5.93,9.64-5.57" transform="translate(-20 -19.17)"/></g><g class="cls-1"><path class="cls-4" d="M150.57,223.6c.1.18,2.11-1.46,2.22-1.28s-5.39,9.8-5.25,10.05c.28.48,14-8.73,14.29-8.25S148,235.56,148.26,236s16-9.92,16.28-9.39S151,240.19,151.21,240.61s15.57-9.69,15.87-9.17c.2.35-10,12.13-9.75,12.47s9.31-5.85,9.52-5.49" transform="translate(-20 -19.17)"/></g><g class="cls-1"><path class="cls-6" d="M175.57,223.6c.1.18,2.11-1.46,2.22-1.28s-5.25,7.51-5.14,7.71c.25.43,11.88-7.42,12.13-7s-12.05,11.51-11.84,11.88c.3.52,15.6-9.71,15.9-9.19s-14.35,12.71-14.11,13.13,16.27-10.11,16.58-9.57-13.23,12.57-13,13,13.89-8.65,14.16-8.18c.17.29-8.85,9.73-8.68,10s7.42-4.7,7.6-4.38" transform="translate(-20 -19.17)"/></g><g class="cls-1"><path class="cls-4" d="M200.57,223.6c.1.18,2.11-1.46,2.22-1.28s-5.24,7.39-5.13,7.58c.25.43,11.74-7.33,12-6.91s-11.67,12.33-11.46,12.7c.31.53,15.88-9.87,16.19-9.34s-14.64,12.37-14.4,12.79,16.21-10.07,16.51-9.53c.23.39-13.14,12.38-12.92,12.78s13.67-8.52,13.94-8c.16.28-8.14,9.54-8,9.82s6.31-4,6.47-3.74" transform="translate(-20 -19.17)"/></g><g class="cls-1"><path class="cls-6" d="M250.57,223.6c.1.18,2.11-1.46,2.22-1.28s-5.24,7.42-5.13,7.62c.25.43,11.78-7.36,12-6.94s-12.16,10.77-12,11.13c.3.51,15.18-9.45,15.48-8.94s-13.94,12.89-13.7,13.3,16.29-10.12,16.6-9.59-13,13-12.78,13.36,13.88-8.65,14.15-8.17c.18.3-9.86,9.59-9.69,9.89s8.74-5.5,8.94-5.16" transform="translate(-20 -19.17)"/></g><g class="cls-1"><path class="cls-5" d="M25.57,248.79c.1.17,2.11-1.46,2.22-1.29s-5.36,8.44-5.23,8.66c.26.45,12.78-8,13-7.53s-12.39,12.63-12.17,13,16.15-10,16.46-9.5-14.13,13-13.89,13.41,15.69-9.75,16-9.23S29.19,267.66,29.4,268s12.78-8,13-7.53c.13.22-5.35,8.44-5.23,8.66s2.12-1.46,2.22-1.28" transform="translate(-20 -19.17)"/></g><g class="cls-1"><path class="cls-6" d="M50.57,248.79c.1.17,2.11-1.46,2.22-1.29s-5.24,7.42-5.13,7.62c.25.42,11.77-7.36,12-6.94s-12,11.29-11.81,11.65c.3.52,15.47-9.62,15.77-9.1S49.7,263.87,49.94,264.29s16.21-10.08,16.52-9.54-14.19,11.71-14,12.11,14.59-9.08,14.87-8.59c.18.31-9.31,10.63-9.13,10.94s8.18-5.16,8.37-4.83" transform="translate(-20 -19.17)"/></g><g class="cls-1"><path class="cls-6" d="M75.57,248.79c.1.17,2.11-1.46,2.22-1.29s-5.19,7-5.08,7.18c.23.41,11.26-7.05,11.5-6.64s-11.47,11.71-11.27,12.07c.31.52,15.62-9.71,15.92-9.19s-14,13.11-13.79,13.53,16.17-10,16.48-9.52-12.1,12.86-11.88,13.24,12.49-7.79,12.74-7.35c.12.21-5.32,8.12-5.2,8.34s2.12-1.46,2.22-1.28" transform="translate(-20 -19.17)"/></g><g class="cls-1"><path class="cls-6" d="M100.57,248.79c.1.17,2.11-1.46,2.22-1.29s-5.37,8.56-5.25,8.78c.27.45,12.9-8,13.16-7.59s-12.41,12.79-12.18,13.18c.31.54,16.2-10.07,16.51-9.53s-14.63,12.38-14.39,12.8,15.88-9.87,16.18-9.34c.21.36-11,12.53-10.8,12.89s11-6.9,11.25-6.5c.11.19-5.16,6.78-5.06,7s2.12-1.46,2.22-1.28" transform="translate(-20 -19.17)"/></g><g class="cls-1"><path class="cls-6" d="M125.57,248.79c.1.17,2.11-1.46,2.22-1.29s-5.38,9.93-5.23,10.18c.28.48,14.12-8.79,14.4-8.31s-12.93,13.47-12.7,13.88,16.3-10.13,16.61-9.59-13.88,12.56-13.65,13,14.83-9.22,15.11-8.72c.19.33-10.48,10.77-10.29,11.1s9.69-6.09,9.91-5.72" transform="translate(-20 -19.17)"/></g><g class="cls-1"><path class="cls-6" d="M150.57,248.79c.1.17,2.11-1.46,2.22-1.29s-5.38,8.59-5.25,8.81c.26.45,12.92-8.06,13.18-7.61s-13,11-12.79,11.34,15.58-9.68,15.88-9.16-13.94,13.2-13.7,13.61,16.15-10,16.46-9.5-13.46,12.07-13.23,12.46,13.86-8.64,14.13-8.16c.14.24-5.4,9.62-5.26,9.87s2.12-1.46,2.22-1.28" transform="translate(-20 -19.17)"/></g><g class="cls-1"><path class="cls-6" d="M200.57,248.79c.1.17,2.11-1.46,2.22-1.29s-5.25,7.48-5.13,7.68c.24.42,11.83-7.4,12.08-7s-11.45,13.29-11.22,13.67c.3.54,16.2-10.07,16.51-9.53s-12.88,14-12.64,14.43,14.68-9.14,15-8.64c.19.33-11.37,10.28-11.18,10.61s10.82-6.78,11-6.38" transform="translate(-20 -19.17)"/></g><g class="cls-1"><path class="cls-6" d="M225.57,248.79c.1.17,2.11-1.46,2.22-1.29s-5.32,8.06-5.19,8.27c.25.44,12.41-7.76,12.67-7.32s-12.55,11.23-12.34,11.6,15.58-9.69,15.88-9.17-13.45,13.79-13.2,14.21,15.89-9.88,16.19-9.35c.22.37-11.83,12.32-11.62,12.69s11.93-7.45,12.17-7c.13.23-6.77,7.69-6.64,7.91s4.63-3,4.77-2.75" transform="translate(-20 -19.17)"/></g><g class="cls-1"><path class="cls-6" d="M250.57,248.79c.1.17,2.11-1.46,2.22-1.29s-5.43,9.06-5.3,9.29c.27.46,13.37-8.33,13.64-7.87s-12.23,13.69-12,14.09,16.29-10.12,16.6-9.59-13.19,13.27-13,13.67,14.35-8.93,14.63-8.44c.18.32-10.65,10-10.47,10.33s9.82-6.17,10-5.8" transform="translate(-20 -19.17)"/></g><circle class="cls-7" cx="62.5" cy="12.5" r="12.5"/><circle class="cls-7" cx="112.5" cy="12.5" r="12.5"/><circle class="cls-7" cx="162.5" cy="12.5" r="12.5"/><circle class="cls-7" cx="12.5" cy="37.68" r="12.5"/><circle class="cls-8" cx="62.5" cy="37.68" r="12.5"/><circle class="cls-9" cx="162.5" cy="37.68" r="12.5"/><circle class="cls-8" cx="212.5" cy="37.68" r="12.5"/><circle class="cls-9" cx="62.5" cy="62.87" r="12.5"/><circle class="cls-8" cx="212.5" cy="62.87" r="12.5"/><circle class="cls-9" cx="12.5" cy="88.05" r="12.5"/><circle class="cls-10" cx="162.5" cy="88.05" r="12.5"/><circle class="cls-10" cx="12.5" cy="113.24" r="12.5"/><circle class="cls-8" cx="62.5" cy="113.24" r="12.5"/><circle class="cls-8" cx="162.5" cy="113.24" r="12.5"/><circle class="cls-10" cx="62.5" cy="138.42" r="12.5"/><circle class="cls-11" cx="212.5" cy="138.42" r="12.5"/><circle class="cls-8" cx="12.5" cy="163.61" r="12.5"/><circle class="cls-11" cx="162.5" cy="163.61" r="12.5"/><circle class="cls-10" cx="12.5" cy="188.79" r="12.5"/><circle class="cls-9" cx="62.5" cy="188.79" r="12.5"/><circle class="cls-9" cx="212.5" cy="188.79" r="12.5"/><circle class="cls-11" cx="62.5" cy="213.98" r="12.5"/><circle class="cls-11" cx="212.5" cy="213.98" r="12.5"/><circle class="cls-10" cx="162.5" cy="239.16" r="12.5"/></svg>