<svg id="Layer_1" data-name="Layer 1" xmlns="http://www.w3.org/2000/svg" viewBox="0 0 248.91 251.66"><defs><style>.cls-1,.cls-2,.cls-3,.cls-4,.cls-5{fill:none;stroke-linecap:round;stroke-linejoin:round;stroke-width:2.77px;opacity:0.5;}.cls-1{stroke:#ee3e45;}.cls-2{stroke:#f48e7e;}.cls-3{stroke:#fbd2c0;}.cls-4{stroke:#0b8743;}.cls-5{stroke:#7daa7d;}.cls-6{fill:#7daa7d;}.cls-7{fill:#fbd2c0;}.cls-8{fill:#0b8743;}</style></defs><title>0302</title><path class="cls-1" d="M25.54,22.12c.1.18,2.16-1.48,2.26-1.3s-5.49,9.42-5.35,9.66c.27.47,13.74-8.57,14-8.1S23.32,35,23.55,35.4,39.89,25.25,40.2,25.79,25.47,38.24,25.71,38.66s15.92-9.89,16.22-9.36c.22.38-13,11.6-12.81,12s13.14-8.2,13.4-7.74c.15.26-7.9,8.94-7.75,9.2s6-3.8,6.12-3.53" transform="translate(-20 -19.17)"/><path class="cls-1" d="M50.54,22.12c.1.18,2.16-1.48,2.26-1.3s-5.49,9.42-5.35,9.66c.27.47,13.74-8.57,14-8.1S48.32,35,48.55,35.4,64.89,25.25,65.2,25.79,50.47,38.24,50.71,38.66s15.92-9.89,16.22-9.36c.22.38-13,11.6-12.81,12s13.14-8.2,13.4-7.74c.15.26-7.9,8.94-7.75,9.2s6-3.8,6.12-3.53" transform="translate(-20 -19.17)"/><path class="cls-1" d="M100.54,22.12c.1.18,2.16-1.48,2.26-1.3s-5.49,9.42-5.35,9.66c.27.47,13.74-8.57,14-8.1S98.32,35,98.55,35.4s16.34-10.15,16.65-9.61-14.73,12.45-14.49,12.87,15.92-9.89,16.22-9.36c.22.38-13,11.6-12.81,12s13.14-8.2,13.4-7.74c.15.26-7.9,8.94-7.75,9.2s6-3.8,6.12-3.53" transform="translate(-20 -19.17)"/><path class="cls-2" d="M150.54,22.12c.1.18,2.16-1.48,2.26-1.3s-5.49,9.42-5.35,9.66c.27.47,13.74-8.57,14-8.1S148.32,35,148.55,35.4s16.34-10.15,16.65-9.61-14.73,12.45-14.49,12.87,15.92-9.89,16.22-9.36c.22.38-13,11.6-12.81,12s13.14-8.2,13.4-7.74c.15.26-7.9,8.94-7.75,9.2s6-3.8,6.12-3.53" transform="translate(-20 -19.17)"/><path class="cls-1" d="M200.54,22.12c.1.18,2.16-1.48,2.26-1.3s-5.49,9.42-5.35,9.66c.27.47,13.74-8.57,14-8.1S198.32,35,198.55,35.4s16.34-10.15,16.65-9.61-14.73,12.45-14.49,12.87,15.92-9.89,16.22-9.36c.22.38-13,11.6-12.81,12s13.14-8.2,13.4-7.74c.15.26-7.9,8.94-7.75,9.2s6-3.8,6.12-3.53" transform="translate(-20 -19.17)"/><path class="cls-3" d="M225.54,22.12c.1.18,2.16-1.48,2.26-1.3s-5.49,9.42-5.35,9.66c.27.47,13.74-8.57,14-8.1S223.32,35,223.55,35.4s16.34-10.15,16.65-9.61-14.73,12.45-14.49,12.87,15.92-9.89,16.22-9.36c.22.38-13,11.6-12.81,12s13.14-8.2,13.4-7.74c.15.26-7.9,8.94-7.75,9.2s6-3.8,6.12-3.53" transform="translate(-20 -19.17)"/><path class="cls-1" d="M250.54,22.12c.1.18,2.16-1.48,2.26-1.3s-5.49,9.42-5.35,9.66c.27.47,13.74-8.57,14-8.1S248.32,35,248.55,35.4s16.34-10.15,16.65-9.61-14.73,12.45-14.49,12.87,15.92-9.89,16.22-9.36c.22.38-13,11.6-12.81,12s13.14-8.2,13.4-7.74c.15.26-7.9,8.94-7.75,9.2s6-3.8,6.12-3.53" transform="translate(-20 -19.17)"/><path class="cls-4" d="M50.54,47.31c.1.17,2.16-1.49,2.26-1.31s-5.49,9.42-5.35,9.66c.27.47,13.74-8.56,14-8.09s-13.15,12.62-12.92,13S64.89,50.44,65.2,51,50.47,63.43,50.71,63.85,66.63,54,66.93,54.48s-13,11.6-12.81,12,13.14-8.19,13.4-7.74c.15.26-7.9,9-7.75,9.21s6-3.81,6.12-3.53" transform="translate(-20 -19.17)"/><path class="cls-5" d="M100.54,47.31c.1.17,2.16-1.49,2.26-1.31s-5.49,9.42-5.35,9.66c.27.47,13.74-8.56,14-8.09s-13.15,12.62-12.92,13S114.89,50.44,115.2,51s-14.73,12.46-14.49,12.88,15.92-9.9,16.22-9.37-13,11.6-12.81,12,13.14-8.19,13.4-7.74c.15.26-7.9,9-7.75,9.21s6-3.81,6.12-3.53" transform="translate(-20 -19.17)"/><path class="cls-1" d="M125.54,47.31c.1.17,2.16-1.49,2.26-1.31s-5.49,9.42-5.35,9.66c.27.47,13.74-8.56,14-8.09s-13.15,12.62-12.92,13S139.89,50.44,140.2,51s-14.73,12.46-14.49,12.88,15.92-9.9,16.22-9.37-13,11.6-12.81,12,13.14-8.19,13.4-7.74c.15.26-7.9,9-7.75,9.21s6-3.81,6.12-3.53" transform="translate(-20 -19.17)"/><path class="cls-1" d="M150.54,47.31c.1.17,2.16-1.49,2.26-1.31s-5.49,9.42-5.35,9.66c.27.47,13.74-8.56,14-8.09s-13.15,12.62-12.92,13S164.89,50.44,165.2,51s-14.73,12.46-14.49,12.88,15.92-9.9,16.22-9.37-13,11.6-12.81,12,13.14-8.19,13.4-7.74c.15.26-7.9,9-7.75,9.21s6-3.81,6.12-3.53" transform="translate(-20 -19.17)"/><path class="cls-1" d="M200.54,47.31c.1.17,2.16-1.49,2.26-1.31s-5.49,9.42-5.35,9.66c.27.47,13.74-8.56,14-8.09s-13.15,12.62-12.92,13S214.89,50.44,215.2,51s-14.73,12.46-14.49,12.88,15.92-9.9,16.22-9.37-13,11.6-12.81,12,13.14-8.19,13.4-7.74c.15.26-7.9,9-7.75,9.21s6-3.81,6.12-3.53" transform="translate(-20 -19.17)"/><path class="cls-1" d="M250.54,47.31c.1.17,2.16-1.49,2.26-1.31s-5.49,9.42-5.35,9.66c.27.47,13.74-8.56,14-8.09s-13.15,12.62-12.92,13S264.89,50.44,265.2,51s-14.73,12.46-14.49,12.88,15.92-9.9,16.22-9.37-13,11.6-12.81,12,13.14-8.19,13.4-7.74c.15.26-7.9,9-7.75,9.21s6-3.81,6.12-3.53" transform="translate(-20 -19.17)"/><path class="cls-1" d="M25.54,72.49c.1.18,2.16-1.48,2.26-1.31s-5.49,9.43-5.35,9.66c.27.48,13.74-8.56,14-8.09s-13.15,12.63-12.92,13c.31.54,16.34-10.15,16.65-9.61S25.47,88.61,25.71,89s15.92-9.89,16.22-9.37-13,11.61-12.81,12,13.14-8.2,13.4-7.74c.15.26-7.9,8.94-7.75,9.2s6-3.8,6.12-3.53" transform="translate(-20 -19.17)"/><path class="cls-2" d="M50.54,72.49c.1.18,2.16-1.48,2.26-1.31s-5.49,9.43-5.35,9.66c.27.48,13.74-8.56,14-8.09s-13.15,12.63-12.92,13c.31.54,16.34-10.15,16.65-9.61S50.47,88.61,50.71,89s15.92-9.89,16.22-9.37-13,11.61-12.81,12,13.14-8.2,13.4-7.74c.15.26-7.9,8.94-7.75,9.2s6-3.8,6.12-3.53" transform="translate(-20 -19.17)"/><path class="cls-1" d="M100.54,72.49c.1.18,2.16-1.48,2.26-1.31s-5.49,9.43-5.35,9.66c.27.48,13.74-8.56,14-8.09s-13.15,12.63-12.92,13c.31.54,16.34-10.15,16.65-9.61S100.47,88.61,100.71,89s15.92-9.89,16.22-9.37-13,11.61-12.81,12,13.14-8.2,13.4-7.74c.15.26-7.9,8.94-7.75,9.2s6-3.8,6.12-3.53" transform="translate(-20 -19.17)"/><path class="cls-1" d="M125.54,72.49c.1.18,2.16-1.48,2.26-1.31s-5.49,9.43-5.35,9.66c.27.48,13.74-8.56,14-8.09s-13.15,12.63-12.92,13c.31.54,16.34-10.15,16.65-9.61S125.47,88.61,125.71,89s15.92-9.89,16.22-9.37-13,11.61-12.81,12,13.14-8.2,13.4-7.74c.15.26-7.9,8.94-7.75,9.2s6-3.8,6.12-3.53" transform="translate(-20 -19.17)"/><path class="cls-3" d="M150.54,72.49c.1.18,2.16-1.48,2.26-1.31s-5.49,9.43-5.35,9.66c.27.48,13.74-8.56,14-8.09s-13.15,12.63-12.92,13c.31.54,16.34-10.15,16.65-9.61S150.47,88.61,150.71,89s15.92-9.89,16.22-9.37-13,11.61-12.81,12,13.14-8.2,13.4-7.74c.15.26-7.9,8.94-7.75,9.2s6-3.8,6.12-3.53" transform="translate(-20 -19.17)"/><path class="cls-3" d="M175.54,72.49c.1.18,2.16-1.48,2.26-1.31s-5.49,9.43-5.35,9.66c.27.48,13.74-8.56,14-8.09s-13.15,12.63-12.92,13c.31.54,16.34-10.15,16.65-9.61S175.47,88.61,175.71,89s15.92-9.89,16.22-9.37-13,11.61-12.81,12,13.14-8.2,13.4-7.74c.15.26-7.9,8.94-7.75,9.2s6-3.8,6.12-3.53" transform="translate(-20 -19.17)"/><path class="cls-4" d="M200.54,72.49c.1.18,2.16-1.48,2.26-1.31s-5.49,9.43-5.35,9.66c.27.48,13.74-8.56,14-8.09s-13.15,12.63-12.92,13c.31.54,16.34-10.15,16.65-9.61S200.47,88.61,200.71,89s15.92-9.89,16.22-9.37-13,11.61-12.81,12,13.14-8.2,13.4-7.74c.15.26-7.9,8.94-7.75,9.2s6-3.8,6.12-3.53" transform="translate(-20 -19.17)"/><path class="cls-2" d="M250.54,72.49c.1.18,2.16-1.48,2.26-1.31s-5.49,9.43-5.35,9.66c.27.48,13.74-8.56,14-8.09s-13.15,12.63-12.92,13c.31.54,16.34-10.15,16.65-9.61S250.47,88.61,250.71,89s15.92-9.89,16.22-9.37-13,11.61-12.81,12,13.14-8.2,13.4-7.74c.15.26-7.9,8.94-7.75,9.2s6-3.8,6.12-3.53" transform="translate(-20 -19.17)"/><path class="cls-5" d="M50.54,97.68c.1.17,2.16-1.49,2.26-1.31s-5.49,9.42-5.35,9.66c.27.47,13.74-8.57,14-8.09s-13.15,12.62-12.92,13,16.34-10.15,16.65-9.62-14.73,12.45-14.49,12.87,15.92-9.89,16.22-9.36-13,11.6-12.81,12,13.14-8.19,13.4-7.74c.15.26-7.9,9-7.75,9.21s6-3.81,6.12-3.54" transform="translate(-20 -19.17)"/><path class="cls-3" d="M75.54,97.68c.1.17,2.16-1.49,2.26-1.31s-5.49,9.42-5.35,9.66c.27.47,13.74-8.57,14-8.09s-13.15,12.62-12.92,13,16.34-10.15,16.65-9.62-14.73,12.45-14.49,12.87,15.92-9.89,16.22-9.36-13,11.6-12.81,12,13.14-8.19,13.4-7.74c.15.26-7.9,9-7.75,9.21s6-3.81,6.12-3.54" transform="translate(-20 -19.17)"/><path class="cls-4" d="M100.54,97.68c.1.17,2.16-1.49,2.26-1.31s-5.49,9.42-5.35,9.66c.27.47,13.74-8.57,14-8.09s-13.15,12.62-12.92,13,16.34-10.15,16.65-9.62-14.73,12.45-14.49,12.87,15.92-9.89,16.22-9.36-13,11.6-12.81,12,13.14-8.19,13.4-7.74c.15.26-7.9,9-7.75,9.21s6-3.81,6.12-3.54" transform="translate(-20 -19.17)"/><path class="cls-5" d="M125.54,97.68c.1.17,2.16-1.49,2.26-1.31s-5.49,9.42-5.35,9.66c.27.47,13.74-8.57,14-8.09s-13.15,12.62-12.92,13,16.34-10.15,16.65-9.62-14.73,12.45-14.49,12.87,15.92-9.89,16.22-9.36-13,11.6-12.81,12,13.14-8.19,13.4-7.74c.15.26-7.9,9-7.75,9.21s6-3.81,6.12-3.54" transform="translate(-20 -19.17)"/><path class="cls-1" d="M150.54,97.68c.1.17,2.16-1.49,2.26-1.31s-5.49,9.42-5.35,9.66c.27.47,13.74-8.57,14-8.09s-13.15,12.62-12.92,13,16.34-10.15,16.65-9.62-14.73,12.45-14.49,12.87,15.92-9.89,16.22-9.36-13,11.6-12.81,12,13.14-8.19,13.4-7.74c.15.26-7.9,9-7.75,9.21s6-3.81,6.12-3.54" transform="translate(-20 -19.17)"/><path class="cls-2" d="M200.54,97.68c.1.17,2.16-1.49,2.26-1.31s-5.49,9.42-5.35,9.66c.27.47,13.74-8.57,14-8.09s-13.15,12.62-12.92,13,16.34-10.15,16.65-9.62-14.73,12.45-14.49,12.87,15.92-9.89,16.22-9.36-13,11.6-12.81,12,13.14-8.19,13.4-7.74c.15.26-7.9,9-7.75,9.21s6-3.81,6.12-3.54" transform="translate(-20 -19.17)"/><path class="cls-4" d="M225.54,97.68c.1.17,2.16-1.49,2.26-1.31s-5.49,9.42-5.35,9.66c.27.47,13.74-8.57,14-8.09s-13.15,12.62-12.92,13,16.34-10.15,16.65-9.62-14.73,12.45-14.49,12.87,15.92-9.89,16.22-9.36-13,11.6-12.81,12,13.14-8.19,13.4-7.74c.15.26-7.9,9-7.75,9.21s6-3.81,6.12-3.54" transform="translate(-20 -19.17)"/><path class="cls-4" d="M250.54,97.68c.1.17,2.16-1.49,2.26-1.31s-5.49,9.42-5.35,9.66c.27.47,13.74-8.57,14-8.09s-13.15,12.62-12.92,13,16.34-10.15,16.65-9.62-14.73,12.45-14.49,12.87,15.92-9.89,16.22-9.36-13,11.6-12.81,12,13.14-8.19,13.4-7.74c.15.26-7.9,9-7.75,9.21s6-3.81,6.12-3.54" transform="translate(-20 -19.17)"/><path class="cls-2" d="M50.54,122.86c.1.18,2.16-1.48,2.26-1.31s-5.49,9.42-5.35,9.66c.27.47,13.74-8.56,14-8.09s-13.15,12.62-12.92,13S64.89,126,65.2,126.53,50.47,139,50.71,139.4s15.92-9.89,16.22-9.37-13,11.61-12.81,12,13.14-8.19,13.4-7.73c.15.26-7.9,8.94-7.75,9.2s6-3.8,6.12-3.53" transform="translate(-20 -19.17)"/><path class="cls-2" d="M100.54,122.86c.1.18,2.16-1.48,2.26-1.31s-5.49,9.42-5.35,9.66c.27.47,13.74-8.56,14-8.09s-13.15,12.62-12.92,13,16.34-10.15,16.65-9.61S100.47,139,100.71,139.4s15.92-9.89,16.22-9.37-13,11.61-12.81,12,13.14-8.19,13.4-7.73c.15.26-7.9,8.94-7.75,9.2s6-3.8,6.12-3.53" transform="translate(-20 -19.17)"/><path class="cls-3" d="M125.54,122.86c.1.18,2.16-1.48,2.26-1.31s-5.49,9.42-5.35,9.66c.27.47,13.74-8.56,14-8.09s-13.15,12.62-12.92,13,16.34-10.15,16.65-9.61S125.47,139,125.71,139.4s15.92-9.89,16.22-9.37-13,11.61-12.81,12,13.14-8.19,13.4-7.73c.15.26-7.9,8.94-7.75,9.2s6-3.8,6.12-3.53" transform="translate(-20 -19.17)"/><path class="cls-3" d="M150.54,122.86c.1.18,2.16-1.48,2.26-1.31s-5.49,9.42-5.35,9.66c.27.47,13.74-8.56,14-8.09s-13.15,12.62-12.92,13,16.34-10.15,16.65-9.61S150.47,139,150.71,139.4s15.92-9.89,16.22-9.37-13,11.61-12.81,12,13.14-8.19,13.4-7.73c.15.26-7.9,8.94-7.75,9.2s6-3.8,6.12-3.53" transform="translate(-20 -19.17)"/><path class="cls-1" d="M200.54,122.86c.1.18,2.16-1.48,2.26-1.31s-5.49,9.42-5.35,9.66c.27.47,13.74-8.56,14-8.09s-13.15,12.62-12.92,13,16.34-10.15,16.65-9.61S200.47,139,200.71,139.4s15.92-9.89,16.22-9.37-13,11.61-12.81,12,13.14-8.19,13.4-7.73c.15.26-7.9,8.94-7.75,9.2s6-3.8,6.12-3.53" transform="translate(-20 -19.17)"/><path class="cls-5" d="M225.54,122.86c.1.18,2.16-1.48,2.26-1.31s-5.49,9.42-5.35,9.66c.27.47,13.74-8.56,14-8.09s-13.15,12.62-12.92,13,16.34-10.15,16.65-9.61S225.47,139,225.71,139.4s15.92-9.89,16.22-9.37-13,11.61-12.81,12,13.14-8.19,13.4-7.73c.15.26-7.9,8.94-7.75,9.2s6-3.8,6.12-3.53" transform="translate(-20 -19.17)"/><path class="cls-2" d="M250.54,122.86c.1.18,2.16-1.48,2.26-1.31s-5.49,9.42-5.35,9.66c.27.47,13.74-8.56,14-8.09s-13.15,12.62-12.92,13,16.34-10.15,16.65-9.61S250.47,139,250.71,139.4s15.92-9.89,16.22-9.37-13,11.61-12.81,12,13.14-8.19,13.4-7.73c.15.26-7.9,8.94-7.75,9.2s6-3.8,6.12-3.53" transform="translate(-20 -19.17)"/><path class="cls-4" d="M25.54,148c.1.18,2.16-1.48,2.26-1.3s-5.49,9.42-5.35,9.66c.27.47,13.74-8.57,14-8.1s-13.15,12.63-12.92,13,16.34-10.16,16.65-9.62-14.73,12.45-14.49,12.87,15.92-9.89,16.22-9.36c.22.38-13,11.6-12.81,12s13.14-8.19,13.4-7.74c.15.26-7.9,8.95-7.75,9.21s6-3.81,6.12-3.54" transform="translate(-20 -19.17)"/><path class="cls-5" d="M50.54,148c.1.18,2.16-1.48,2.26-1.3s-5.49,9.42-5.35,9.66c.27.47,13.74-8.57,14-8.1s-13.15,12.63-12.92,13,16.34-10.16,16.65-9.62-14.73,12.45-14.49,12.87,15.92-9.89,16.22-9.36c.22.38-13,11.6-12.81,12s13.14-8.19,13.4-7.74c.15.26-7.9,8.95-7.75,9.21s6-3.81,6.12-3.54" transform="translate(-20 -19.17)"/><path class="cls-5" d="M100.54,148c.1.18,2.16-1.48,2.26-1.3s-5.49,9.42-5.35,9.66c.27.47,13.74-8.57,14-8.1s-13.15,12.63-12.92,13,16.34-10.16,16.65-9.62-14.73,12.45-14.49,12.87,15.92-9.89,16.22-9.36c.22.38-13,11.6-12.81,12s13.14-8.19,13.4-7.74c.15.26-7.9,8.95-7.75,9.21s6-3.81,6.12-3.54" transform="translate(-20 -19.17)"/><path class="cls-5" d="M125.54,148c.1.18,2.16-1.48,2.26-1.3s-5.49,9.42-5.35,9.66c.27.47,13.74-8.57,14-8.1s-13.15,12.63-12.92,13,16.34-10.16,16.65-9.62-14.73,12.45-14.49,12.87,15.92-9.89,16.22-9.36c.22.38-13,11.6-12.81,12s13.14-8.19,13.4-7.74c.15.26-7.9,8.95-7.75,9.21s6-3.81,6.12-3.54" transform="translate(-20 -19.17)"/><path class="cls-5" d="M150.54,148c.1.18,2.16-1.48,2.26-1.3s-5.49,9.42-5.35,9.66c.27.47,13.74-8.57,14-8.1s-13.15,12.63-12.92,13,16.34-10.16,16.65-9.62-14.73,12.45-14.49,12.87,15.92-9.89,16.22-9.36c.22.38-13,11.6-12.81,12s13.14-8.19,13.4-7.74c.15.26-7.9,8.95-7.75,9.21s6-3.81,6.12-3.54" transform="translate(-20 -19.17)"/><path class="cls-5" d="M175.54,148c.1.18,2.16-1.48,2.26-1.3s-5.49,9.42-5.35,9.66c.27.47,13.74-8.57,14-8.1s-13.15,12.63-12.92,13,16.34-10.16,16.65-9.62-14.73,12.45-14.49,12.87,15.92-9.89,16.22-9.36c.22.38-13,11.6-12.81,12s13.14-8.19,13.4-7.74c.15.26-7.9,8.95-7.75,9.21s6-3.81,6.12-3.54" transform="translate(-20 -19.17)"/><path class="cls-3" d="M200.54,148c.1.18,2.16-1.48,2.26-1.3s-5.49,9.42-5.35,9.66c.27.47,13.74-8.57,14-8.1s-13.15,12.63-12.92,13,16.34-10.16,16.65-9.62-14.73,12.45-14.49,12.87,15.92-9.89,16.22-9.36c.22.38-13,11.6-12.81,12s13.14-8.19,13.4-7.74c.15.26-7.9,8.95-7.75,9.21s6-3.81,6.12-3.54" transform="translate(-20 -19.17)"/><path class="cls-2" d="M250.54,148c.1.18,2.16-1.48,2.26-1.3s-5.49,9.42-5.35,9.66c.27.47,13.74-8.57,14-8.1s-13.15,12.63-12.92,13,16.34-10.16,16.65-9.62-14.73,12.45-14.49,12.87,15.92-9.89,16.22-9.36c.22.38-13,11.6-12.81,12s13.14-8.19,13.4-7.74c.15.26-7.9,8.95-7.75,9.21s6-3.81,6.12-3.54" transform="translate(-20 -19.17)"/><path class="cls-5" d="M50.54,173.23c.1.17,2.16-1.48,2.26-1.31s-5.49,9.42-5.35,9.66c.27.47,13.74-8.56,14-8.09s-13.15,12.62-12.92,13,16.34-10.15,16.65-9.61-14.73,12.45-14.49,12.87,15.92-9.89,16.22-9.37-13,11.6-12.81,12,13.14-8.19,13.4-7.73c.15.26-7.9,8.94-7.75,9.2s6-3.8,6.12-3.53" transform="translate(-20 -19.17)"/><path class="cls-4" d="M75.54,173.23c.1.17,2.16-1.48,2.26-1.31s-5.49,9.42-5.35,9.66c.27.47,13.74-8.56,14-8.09s-13.15,12.62-12.92,13,16.34-10.15,16.65-9.61-14.73,12.45-14.49,12.87,15.92-9.89,16.22-9.37-13,11.6-12.81,12,13.14-8.19,13.4-7.73c.15.26-7.9,8.94-7.75,9.2s6-3.8,6.12-3.53" transform="translate(-20 -19.17)"/><path class="cls-3" d="M100.54,173.23c.1.17,2.16-1.48,2.26-1.31s-5.49,9.42-5.35,9.66c.27.47,13.74-8.56,14-8.09s-13.15,12.62-12.92,13,16.34-10.15,16.65-9.61-14.73,12.45-14.49,12.87,15.92-9.89,16.22-9.37-13,11.6-12.81,12,13.14-8.19,13.4-7.73c.15.26-7.9,8.94-7.75,9.2s6-3.8,6.12-3.53" transform="translate(-20 -19.17)"/><path class="cls-5" d="M125.54,173.23c.1.17,2.16-1.48,2.26-1.31s-5.49,9.42-5.35,9.66c.27.47,13.74-8.56,14-8.09s-13.15,12.62-12.92,13,16.34-10.15,16.65-9.61-14.73,12.45-14.49,12.87,15.92-9.89,16.22-9.37-13,11.6-12.81,12,13.14-8.19,13.4-7.73c.15.26-7.9,8.94-7.75,9.2s6-3.8,6.12-3.53" transform="translate(-20 -19.17)"/><path class="cls-1" d="M150.54,173.23c.1.17,2.16-1.48,2.26-1.31s-5.49,9.42-5.35,9.66c.27.47,13.74-8.56,14-8.09s-13.15,12.62-12.92,13,16.34-10.15,16.65-9.61-14.73,12.45-14.49,12.87,15.92-9.89,16.22-9.37-13,11.6-12.81,12,13.14-8.19,13.4-7.73c.15.26-7.9,8.94-7.75,9.2s6-3.8,6.12-3.53" transform="translate(-20 -19.17)"/><path class="cls-3" d="M200.54,173.23c.1.17,2.16-1.48,2.26-1.31s-5.49,9.42-5.35,9.66c.27.47,13.74-8.56,14-8.09s-13.15,12.62-12.92,13,16.34-10.15,16.65-9.61-14.73,12.45-14.49,12.87,15.92-9.89,16.22-9.37-13,11.6-12.81,12,13.14-8.19,13.4-7.73c.15.26-7.9,8.94-7.75,9.2s6-3.8,6.12-3.53" transform="translate(-20 -19.17)"/><path class="cls-2" d="M225.54,173.23c.1.17,2.16-1.48,2.26-1.31s-5.49,9.42-5.35,9.66c.27.47,13.74-8.56,14-8.09s-13.15,12.62-12.92,13,16.34-10.15,16.65-9.61-14.73,12.45-14.49,12.87,15.92-9.89,16.22-9.37-13,11.6-12.81,12,13.14-8.19,13.4-7.73c.15.26-7.9,8.94-7.75,9.2s6-3.8,6.12-3.53" transform="translate(-20 -19.17)"/><path class="cls-3" d="M250.54,173.23c.1.17,2.16-1.48,2.26-1.31s-5.49,9.42-5.35,9.66c.27.47,13.74-8.56,14-8.09s-13.15,12.62-12.92,13,16.34-10.15,16.65-9.61-14.73,12.45-14.49,12.87,15.92-9.89,16.22-9.37-13,11.6-12.81,12,13.14-8.19,13.4-7.73c.15.26-7.9,8.94-7.75,9.2s6-3.8,6.12-3.53" transform="translate(-20 -19.17)"/><path class="cls-3" d="M50.54,198.41c.1.18,2.16-1.48,2.26-1.3s-5.49,9.42-5.35,9.66c.27.47,13.74-8.57,14-8.1s-13.15,12.63-12.92,13c.31.54,16.34-10.15,16.65-9.61S50.47,214.53,50.71,215s15.92-9.89,16.22-9.36c.22.38-13,11.6-12.81,12s13.14-8.19,13.4-7.74c.15.26-7.9,8.94-7.75,9.2s6-3.8,6.12-3.53" transform="translate(-20 -19.17)"/><path class="cls-3" d="M100.54,198.41c.1.18,2.16-1.48,2.26-1.3s-5.49,9.42-5.35,9.66c.27.47,13.74-8.57,14-8.1s-13.15,12.63-12.92,13c.31.54,16.34-10.15,16.65-9.61S100.47,214.53,100.71,215s15.92-9.89,16.22-9.36c.22.38-13,11.6-12.81,12s13.14-8.19,13.4-7.74c.15.26-7.9,8.94-7.75,9.2s6-3.8,6.12-3.53" transform="translate(-20 -19.17)"/><path class="cls-3" d="M125.54,198.41c.1.18,2.16-1.48,2.26-1.3s-5.49,9.42-5.35,9.66c.27.47,13.74-8.57,14-8.1s-13.15,12.63-12.92,13c.31.54,16.34-10.15,16.65-9.61S125.47,214.53,125.71,215s15.92-9.89,16.22-9.36c.22.38-13,11.6-12.81,12s13.14-8.19,13.4-7.74c.15.26-7.9,8.94-7.75,9.2s6-3.8,6.12-3.53" transform="translate(-20 -19.17)"/><path class="cls-2" d="M150.54,198.41c.1.18,2.16-1.48,2.26-1.3s-5.49,9.42-5.35,9.66c.27.47,13.74-8.57,14-8.1s-13.15,12.63-12.92,13c.31.54,16.34-10.15,16.65-9.61S150.47,214.53,150.71,215s15.92-9.89,16.22-9.36c.22.38-13,11.6-12.81,12s13.14-8.19,13.4-7.74c.15.26-7.9,8.94-7.75,9.2s6-3.8,6.12-3.53" transform="translate(-20 -19.17)"/><path class="cls-2" d="M175.54,198.41c.1.18,2.16-1.48,2.26-1.3s-5.49,9.42-5.35,9.66c.27.47,13.74-8.57,14-8.1s-13.15,12.63-12.92,13c.31.54,16.34-10.15,16.65-9.61S175.47,214.53,175.71,215s15.92-9.89,16.22-9.36c.22.38-13,11.6-12.81,12s13.14-8.19,13.4-7.74c.15.26-7.9,8.94-7.75,9.2s6-3.8,6.12-3.53" transform="translate(-20 -19.17)"/><path class="cls-2" d="M200.54,198.41c.1.18,2.16-1.48,2.26-1.3s-5.49,9.42-5.35,9.66c.27.47,13.74-8.57,14-8.1s-13.15,12.63-12.92,13c.31.54,16.34-10.15,16.65-9.61S200.47,214.53,200.71,215s15.92-9.89,16.22-9.36c.22.38-13,11.6-12.81,12s13.14-8.19,13.4-7.74c.15.26-7.9,8.94-7.75,9.2s6-3.8,6.12-3.53" transform="translate(-20 -19.17)"/><path class="cls-1" d="M250.54,198.41c.1.18,2.16-1.48,2.26-1.3s-5.49,9.42-5.35,9.66c.27.47,13.74-8.57,14-8.1s-13.15,12.63-12.92,13c.31.54,16.34-10.15,16.65-9.61S250.47,214.53,250.71,215s15.92-9.89,16.22-9.36c.22.38-13,11.6-12.81,12s13.14-8.19,13.4-7.74c.15.26-7.9,8.94-7.75,9.2s6-3.8,6.12-3.53" transform="translate(-20 -19.17)"/><path class="cls-2" d="M25.54,223.6c.1.17,2.16-1.48,2.26-1.31s-5.49,9.42-5.35,9.66c.27.47,13.74-8.56,14-8.09s-13.15,12.62-12.92,13,16.34-10.15,16.65-9.62-14.73,12.46-14.49,12.88,15.92-9.89,16.22-9.37-13,11.6-12.81,12,13.14-8.19,13.4-7.73c.15.26-7.9,8.94-7.75,9.2s6-3.81,6.12-3.53" transform="translate(-20 -19.17)"/><path class="cls-2" d="M50.54,223.6c.1.17,2.16-1.48,2.26-1.31s-5.49,9.42-5.35,9.66c.27.47,13.74-8.56,14-8.09s-13.15,12.62-12.92,13,16.34-10.15,16.65-9.62-14.73,12.46-14.49,12.88,15.92-9.89,16.22-9.37-13,11.6-12.81,12,13.14-8.19,13.4-7.73c.15.26-7.9,8.94-7.75,9.2s6-3.81,6.12-3.53" transform="translate(-20 -19.17)"/><path class="cls-2" d="M100.54,223.6c.1.17,2.16-1.48,2.26-1.31s-5.49,9.42-5.35,9.66c.27.47,13.74-8.56,14-8.09s-13.15,12.62-12.92,13,16.34-10.15,16.65-9.62-14.73,12.46-14.49,12.88,15.92-9.89,16.22-9.37-13,11.6-12.81,12,13.14-8.19,13.4-7.73c.15.26-7.9,8.94-7.75,9.2s6-3.81,6.12-3.53" transform="translate(-20 -19.17)"/><path class="cls-3" d="M125.54,223.6c.1.17,2.16-1.48,2.26-1.31s-5.49,9.42-5.35,9.66c.27.47,13.74-8.56,14-8.09s-13.15,12.62-12.92,13,16.34-10.15,16.65-9.62-14.73,12.46-14.49,12.88,15.92-9.89,16.22-9.37-13,11.6-12.81,12,13.14-8.19,13.4-7.73c.15.26-7.9,8.94-7.75,9.2s6-3.81,6.12-3.53" transform="translate(-20 -19.17)"/><path class="cls-2" d="M150.54,223.6c.1.17,2.16-1.48,2.26-1.31s-5.49,9.42-5.35,9.66c.27.47,13.74-8.56,14-8.09s-13.15,12.62-12.92,13,16.34-10.15,16.65-9.62-14.73,12.46-14.49,12.88,15.92-9.89,16.22-9.37-13,11.6-12.81,12,13.14-8.19,13.4-7.73c.15.26-7.9,8.94-7.75,9.2s6-3.81,6.12-3.53" transform="translate(-20 -19.17)"/><path class="cls-5" d="M175.54,223.6c.1.17,2.16-1.48,2.26-1.31s-5.49,9.42-5.35,9.66c.27.47,13.74-8.56,14-8.09s-13.15,12.62-12.92,13,16.34-10.15,16.65-9.62-14.73,12.46-14.49,12.88,15.92-9.89,16.22-9.37-13,11.6-12.81,12,13.14-8.19,13.4-7.73c.15.26-7.9,8.94-7.75,9.2s6-3.81,6.12-3.53" transform="translate(-20 -19.17)"/><path class="cls-1" d="M200.54,223.6c.1.17,2.16-1.48,2.26-1.31s-5.49,9.42-5.35,9.66c.27.47,13.74-8.56,14-8.09s-13.15,12.62-12.92,13,16.34-10.15,16.65-9.62-14.73,12.46-14.49,12.88,15.92-9.89,16.22-9.37-13,11.6-12.81,12,13.14-8.19,13.4-7.73c.15.26-7.9,8.94-7.75,9.2s6-3.81,6.12-3.53" transform="translate(-20 -19.17)"/><path class="cls-2" d="M250.54,223.6c.1.17,2.16-1.48,2.26-1.31s-5.49,9.42-5.35,9.66c.27.47,13.74-8.56,14-8.09s-13.15,12.62-12.92,13,16.34-10.15,16.65-9.62-14.73,12.46-14.49,12.88,15.92-9.89,16.22-9.37-13,11.6-12.81,12,13.14-8.19,13.4-7.73c.15.26-7.9,8.94-7.75,9.2s6-3.81,6.12-3.53" transform="translate(-20 -19.17)"/><path class="cls-5" d="M25.54,248.78c.1.18,2.16-1.48,2.26-1.3s-5.49,9.42-5.35,9.66c.27.47,13.74-8.57,14-8.1s-13.15,12.63-12.92,13c.31.54,16.34-10.15,16.65-9.61S25.47,264.9,25.71,265.32s15.92-9.89,16.22-9.36c.22.38-13,11.6-12.81,12s13.14-8.2,13.4-7.74c.15.26-7.9,8.94-7.75,9.2s6-3.8,6.12-3.53" transform="translate(-20 -19.17)"/><path class="cls-3" d="M50.54,248.78c.1.18,2.16-1.48,2.26-1.3s-5.49,9.42-5.35,9.66c.27.47,13.74-8.57,14-8.1s-13.15,12.63-12.92,13c.31.54,16.34-10.15,16.65-9.61S50.47,264.9,50.71,265.32s15.92-9.89,16.22-9.36c.22.38-13,11.6-12.81,12s13.14-8.2,13.4-7.74c.15.26-7.9,8.94-7.75,9.2s6-3.8,6.12-3.53" transform="translate(-20 -19.17)"/><path class="cls-4" d="M75.54,248.78c.1.18,2.16-1.48,2.26-1.3s-5.49,9.42-5.35,9.66c.27.47,13.74-8.57,14-8.1s-13.15,12.63-12.92,13c.31.54,16.34-10.15,16.65-9.61S75.47,264.9,75.71,265.32s15.92-9.89,16.22-9.36c.22.38-13,11.6-12.81,12s13.14-8.2,13.4-7.74c.15.26-7.9,8.94-7.75,9.2s6-3.8,6.12-3.53" transform="translate(-20 -19.17)"/><path class="cls-2" d="M100.54,248.78c.1.18,2.16-1.48,2.26-1.3s-5.49,9.42-5.35,9.66c.27.47,13.74-8.57,14-8.1s-13.15,12.63-12.92,13c.31.54,16.34-10.15,16.65-9.61s-14.73,12.45-14.49,12.87,15.92-9.89,16.22-9.36c.22.38-13,11.6-12.81,12s13.14-8.2,13.4-7.74c.15.26-7.9,8.94-7.75,9.2s6-3.8,6.12-3.53" transform="translate(-20 -19.17)"/><path class="cls-3" d="M125.54,248.78c.1.18,2.16-1.48,2.26-1.3s-5.49,9.42-5.35,9.66c.27.47,13.74-8.57,14-8.1s-13.15,12.63-12.92,13c.31.54,16.34-10.15,16.65-9.61s-14.73,12.45-14.49,12.87,15.92-9.89,16.22-9.36c.22.38-13,11.6-12.81,12s13.14-8.2,13.4-7.74c.15.26-7.9,8.94-7.75,9.2s6-3.8,6.12-3.53" transform="translate(-20 -19.17)"/><path class="cls-2" d="M150.54,248.78c.1.18,2.16-1.48,2.26-1.3s-5.49,9.42-5.35,9.66c.27.47,13.74-8.57,14-8.1s-13.15,12.63-12.92,13c.31.54,16.34-10.15,16.65-9.61s-14.73,12.45-14.49,12.87,15.92-9.89,16.22-9.36c.22.38-13,11.6-12.81,12s13.14-8.2,13.4-7.74c.15.26-7.9,8.94-7.75,9.2s6-3.8,6.12-3.53" transform="translate(-20 -19.17)"/><path class="cls-2" d="M200.54,248.78c.1.18,2.16-1.48,2.26-1.3s-5.49,9.42-5.35,9.66c.27.47,13.74-8.57,14-8.1s-13.15,12.63-12.92,13c.31.54,16.34-10.15,16.65-9.61s-14.73,12.45-14.49,12.87,15.92-9.89,16.22-9.36c.22.38-13,11.6-12.81,12s13.14-8.2,13.4-7.74c.15.26-7.9,8.94-7.75,9.2s6-3.8,6.12-3.53" transform="translate(-20 -19.17)"/><path class="cls-1" d="M225.54,248.78c.1.18,2.16-1.48,2.26-1.3s-5.49,9.42-5.35,9.66c.27.47,13.74-8.57,14-8.1s-13.15,12.63-12.92,13c.31.54,16.34-10.15,16.65-9.61s-14.73,12.45-14.49,12.87,15.92-9.89,16.22-9.36c.22.38-13,11.6-12.81,12s13.14-8.2,13.4-7.74c.15.26-7.9,8.94-7.75,9.2s6-3.8,6.12-3.53" transform="translate(-20 -19.17)"/><path class="cls-1" d="M250.54,248.78c.1.18,2.16-1.48,2.26-1.3s-5.49,9.42-5.35,9.66c.27.47,13.74-8.57,14-8.1s-13.15,12.63-12.92,13c.31.54,16.34-10.15,16.65-9.61s-14.73,12.45-14.49,12.87,15.92-9.89,16.22-9.36c.22.38-13,11.6-12.81,12s13.14-8.2,13.4-7.74c.15.26-7.9,8.94-7.75,9.2s6-3.8,6.12-3.53" transform="translate(-20 -19.17)"/><circle class="cls-6" cx="62.5" cy="12.5" r="12.5"/><circle class="cls-6" cx="112.5" cy="12.5" r="12.5"/><circle class="cls-7" cx="162.5" cy="12.5" r="12.5"/><circle class="cls-7" cx="12.5" cy="37.68" r="12.5"/><circle class="cls-8" cx="62.5" cy="37.68" r="12.5"/><circle class="cls-8" cx="162.5" cy="37.68" r="12.5"/><circle class="cls-6" cx="212.5" cy="37.68" r="12.5"/><circle class="cls-6" cx="62.5" cy="62.87" r="12.5"/><circle class="cls-8" cx="212.5" cy="62.87" r="12.5"/><circle class="cls-6" cx="12.5" cy="88.05" r="12.5"/><circle class="cls-8" cx="162.5" cy="88.05" r="12.5"/><circle class="cls-7" cx="12.5" cy="113.24" r="12.5"/><circle class="cls-8" cx="62.5" cy="113.24" r="12.5"/><circle class="cls-8" cx="162.5" cy="113.24" r="12.5"/><circle class="cls-8" cx="62.5" cy="138.42" r="12.5"/><circle class="cls-8" cx="212.5" cy="138.42" r="12.5"/><circle class="cls-6" cx="12.5" cy="163.61" r="12.5"/><circle class="cls-8" cx="162.5" cy="163.61" r="12.5"/><circle class="cls-8" cx="12.5" cy="188.79" r="12.5"/><circle class="cls-7" cx="62.5" cy="188.79" r="12.5"/><circle class="cls-6" cx="212.5" cy="188.79" r="12.5"/><circle class="cls-8" cx="62.5" cy="213.98" r="12.5"/><circle class="cls-8" cx="212.5" cy="213.98" r="12.5"/><circle class="cls-8" cx="162.5" cy="239.16" r="12.5"/></svg>