<svg id="Layer_1" data-name="Layer 1" xmlns="http://www.w3.org/2000/svg" viewBox="0 0 248.84 251.66"><defs><style>.cls-1{opacity:0.5;}.cls-2,.cls-3,.cls-4,.cls-5,.cls-6{fill:none;stroke-linecap:round;stroke-linejoin:round;stroke-width:2.76px;}.cls-2{stroke:#ee3e45;}.cls-3{stroke:#fbd2c0;}.cls-4{stroke:#7daa7d;}.cls-5{stroke:#0b8743;}.cls-6{stroke:#f48e7e;}.cls-7{fill:#ee3e45;}.cls-8{fill:#7daa7d;}.cls-9{fill:#fbd2c0;}.cls-10{fill:#f48e7e;}.cls-11{fill:#0b8743;}</style></defs><title>0602</title><g class="cls-1"><path class="cls-2" d="M25.54,22.12c.1.18,2.16-1.48,2.26-1.31s-5.4,8.25-5.27,8.47c.25.44,12.65-7.9,12.91-7.46S22.56,32.76,22.78,33.12c.29.52,15.54-9.66,15.83-9.14S24.72,37.34,25,37.76s16.31-10.13,16.62-9.59c.22.38-12.09,13-11.87,13.43s12.49-7.8,12.75-7.36c.13.23-6.91,8.2-6.78,8.44s4.7-3,4.84-2.8" transform="translate(-20 -19.17)"/><path class="cls-3" d="M50.54,22.12c.1.18,2.16-1.48,2.26-1.31s-5.4,8.25-5.27,8.47c.25.44,12.65-7.9,12.91-7.46S47.56,32.76,47.78,33.12c.29.52,15.54-9.66,15.83-9.14S49.72,37.34,50,37.76s16.31-10.13,16.62-9.59c.22.38-12.09,13-11.87,13.43s12.49-7.8,12.75-7.36c.13.23-6.91,8.2-6.78,8.44s4.7-3,4.84-2.8" transform="translate(-20 -19.17)"/><path class="cls-4" d="M100.54,22.12c.1.18,2.16-1.48,2.26-1.31s-5.4,8.25-5.27,8.47c.25.44,12.65-7.9,12.91-7.46S97.56,32.76,97.78,33.12c.29.52,15.54-9.66,15.83-9.14S99.72,37.34,100,37.76s16.31-10.13,16.62-9.59c.22.38-12.09,13-11.87,13.43s12.49-7.8,12.75-7.36c.13.23-6.91,8.2-6.78,8.44s4.7-3,4.84-2.8" transform="translate(-20 -19.17)"/><path class="cls-5" d="M150.54,22.12c.1.18,2.16-1.48,2.26-1.31s-5.4,8.25-5.27,8.47c.25.44,12.65-7.9,12.91-7.46s-12.88,10.94-12.66,11.3c.29.52,15.54-9.66,15.83-9.14S149.72,37.34,150,37.76s16.31-10.13,16.62-9.59c.22.38-12.09,13-11.87,13.43s12.49-7.8,12.75-7.36c.13.23-6.91,8.2-6.78,8.44s4.7-3,4.84-2.8" transform="translate(-20 -19.17)"/><path class="cls-3" d="M200.54,22.12c.1.18,2.16-1.48,2.26-1.31s-5.4,8.25-5.27,8.47c.25.44,12.65-7.9,12.91-7.46s-12.88,10.94-12.66,11.3c.29.52,15.54-9.66,15.83-9.14S199.72,37.34,200,37.76s16.31-10.13,16.62-9.59c.22.38-12.09,13-11.87,13.43s12.49-7.8,12.75-7.36c.13.23-6.91,8.2-6.78,8.44s4.7-3,4.84-2.8" transform="translate(-20 -19.17)"/><path class="cls-2" d="M225.54,22.12c.1.18,2.16-1.48,2.26-1.31s-5.4,8.25-5.27,8.47c.25.44,12.65-7.9,12.91-7.46s-12.88,10.94-12.66,11.3c.29.52,15.54-9.66,15.83-9.14S224.72,37.34,225,37.76s16.31-10.13,16.62-9.59c.22.38-12.09,13-11.87,13.43s12.49-7.8,12.75-7.36c.13.23-6.91,8.2-6.78,8.44s4.7-3,4.84-2.8" transform="translate(-20 -19.17)"/><path class="cls-3" d="M250.54,22.12c.1.18,2.16-1.48,2.26-1.31s-5.4,8.25-5.27,8.47c.25.44,12.65-7.9,12.91-7.46s-12.88,10.94-12.66,11.3c.29.52,15.54-9.66,15.83-9.14S249.72,37.34,250,37.76s16.31-10.13,16.62-9.59c.22.38-12.09,13-11.87,13.43s12.49-7.8,12.75-7.36c.13.23-6.91,8.2-6.78,8.44s4.7-3,4.84-2.8" transform="translate(-20 -19.17)"/><path class="cls-6" d="M50.54,47.31c.1.17,2.16-1.49,2.26-1.31s-5.4,8.24-5.27,8.46c.25.44,12.65-7.9,12.91-7.45S47.56,57.94,47.78,58.31s15.54-9.66,15.83-9.15S49.72,62.52,50,62.94s16.31-10.13,16.62-9.59-12.09,13-11.87,13.43S67.2,59,67.46,59.42c.13.24-6.91,8.21-6.78,8.44s4.7-3,4.84-2.79" transform="translate(-20 -19.17)"/><path class="cls-3" d="M100.54,47.31c.1.17,2.16-1.49,2.26-1.31s-5.4,8.24-5.27,8.46c.25.44,12.65-7.9,12.91-7.45S97.56,57.94,97.78,58.31s15.54-9.66,15.83-9.15S99.72,62.52,100,62.94s16.31-10.13,16.62-9.59-12.09,13-11.87,13.43,12.49-7.8,12.75-7.36c.13.24-6.91,8.21-6.78,8.44s4.7-3,4.84-2.79" transform="translate(-20 -19.17)"/><path class="cls-2" d="M125.54,47.31c.1.17,2.16-1.49,2.26-1.31s-5.4,8.24-5.27,8.46c.25.44,12.65-7.9,12.91-7.45s-12.88,10.93-12.66,11.3,15.54-9.66,15.83-9.15S124.72,62.52,125,62.94s16.31-10.13,16.62-9.59-12.09,13-11.87,13.43,12.49-7.8,12.75-7.36c.13.24-6.91,8.21-6.78,8.44s4.7-3,4.84-2.79" transform="translate(-20 -19.17)"/><path class="cls-6" d="M150.54,47.31c.1.17,2.16-1.49,2.26-1.31s-5.4,8.24-5.27,8.46c.25.44,12.65-7.9,12.91-7.45s-12.88,10.93-12.66,11.3,15.54-9.66,15.83-9.15S149.72,62.52,150,62.94s16.31-10.13,16.62-9.59-12.09,13-11.87,13.43,12.49-7.8,12.75-7.36c.13.24-6.91,8.21-6.78,8.44s4.7-3,4.84-2.79" transform="translate(-20 -19.17)"/><path class="cls-2" d="M200.54,47.31c.1.17,2.16-1.49,2.26-1.31s-5.4,8.24-5.27,8.46c.25.44,12.65-7.9,12.91-7.45s-12.88,10.93-12.66,11.3,15.54-9.66,15.83-9.15S199.72,62.52,200,62.94s16.31-10.13,16.62-9.59-12.09,13-11.87,13.43,12.49-7.8,12.75-7.36c.13.24-6.91,8.21-6.78,8.44s4.7-3,4.84-2.79" transform="translate(-20 -19.17)"/><path class="cls-5" d="M250.54,47.31c.1.17,2.16-1.49,2.26-1.31s-5.4,8.24-5.27,8.46c.25.44,12.65-7.9,12.91-7.45s-12.88,10.93-12.66,11.3,15.54-9.66,15.83-9.15S249.72,62.52,250,62.94s16.31-10.13,16.62-9.59-12.09,13-11.87,13.43,12.49-7.8,12.75-7.36c.13.24-6.91,8.21-6.78,8.44s4.7-3,4.84-2.79" transform="translate(-20 -19.17)"/><path class="cls-6" d="M25.54,72.49c.1.18,2.16-1.48,2.26-1.31s-5.4,8.25-5.27,8.46c.25.45,12.65-7.89,12.91-7.45S22.56,83.12,22.78,83.49c.29.52,15.54-9.66,15.83-9.14S24.72,87.71,25,88.13,41.27,78,41.58,78.53,29.49,91.58,29.71,92s12.49-7.8,12.75-7.36c.13.23-6.91,8.2-6.78,8.44s4.7-3,4.84-2.8" transform="translate(-20 -19.17)"/><path class="cls-2" d="M50.54,72.49c.1.18,2.16-1.48,2.26-1.31s-5.4,8.25-5.27,8.46c.25.45,12.65-7.89,12.91-7.45S47.56,83.12,47.78,83.49c.29.52,15.54-9.66,15.83-9.14S49.72,87.71,50,88.13,66.27,78,66.58,78.53,54.49,91.58,54.71,92s12.49-7.8,12.75-7.36c.13.23-6.91,8.2-6.78,8.44s4.7-3,4.84-2.8" transform="translate(-20 -19.17)"/><path class="cls-5" d="M100.54,72.49c.1.18,2.16-1.48,2.26-1.31s-5.4,8.25-5.27,8.46c.25.45,12.65-7.89,12.91-7.45S97.56,83.12,97.78,83.49c.29.52,15.54-9.66,15.83-9.14S99.72,87.71,100,88.13s16.31-10.13,16.62-9.6-12.09,13-11.87,13.44,12.49-7.8,12.75-7.36c.13.23-6.91,8.2-6.78,8.44s4.7-3,4.84-2.8" transform="translate(-20 -19.17)"/><path class="cls-3" d="M125.54,72.49c.1.18,2.16-1.48,2.26-1.31s-5.4,8.25-5.27,8.46c.25.45,12.65-7.89,12.91-7.45s-12.88,10.93-12.66,11.3c.29.52,15.54-9.66,15.83-9.14S124.72,87.71,125,88.13s16.31-10.13,16.62-9.6-12.09,13-11.87,13.44,12.49-7.8,12.75-7.36c.13.23-6.91,8.2-6.78,8.44s4.7-3,4.84-2.8" transform="translate(-20 -19.17)"/><path class="cls-4" d="M150.54,72.49c.1.18,2.16-1.48,2.26-1.31s-5.4,8.25-5.27,8.46c.25.45,12.65-7.89,12.91-7.45s-12.88,10.93-12.66,11.3c.29.52,15.54-9.66,15.83-9.14S149.72,87.71,150,88.13s16.31-10.13,16.62-9.6-12.09,13-11.87,13.44,12.49-7.8,12.75-7.36c.13.23-6.91,8.2-6.78,8.44s4.7-3,4.84-2.8" transform="translate(-20 -19.17)"/><path class="cls-2" d="M175.54,72.49c.1.18,2.16-1.48,2.26-1.31s-5.4,8.25-5.27,8.46c.25.45,12.65-7.89,12.91-7.45s-12.88,10.93-12.66,11.3c.29.52,15.54-9.66,15.83-9.14S174.72,87.71,175,88.13s16.31-10.13,16.62-9.6-12.09,13-11.87,13.44,12.49-7.8,12.75-7.36c.13.23-6.91,8.2-6.78,8.44s4.7-3,4.84-2.8" transform="translate(-20 -19.17)"/><path class="cls-2" d="M200.54,72.49c.1.18,2.16-1.48,2.26-1.31s-5.4,8.25-5.27,8.46c.25.45,12.65-7.89,12.91-7.45s-12.88,10.93-12.66,11.3c.29.52,15.54-9.66,15.83-9.14S199.72,87.71,200,88.13s16.31-10.13,16.62-9.6-12.09,13-11.87,13.44,12.49-7.8,12.75-7.36c.13.23-6.91,8.2-6.78,8.44s4.7-3,4.84-2.8" transform="translate(-20 -19.17)"/><path class="cls-4" d="M250.54,72.49c.1.18,2.16-1.48,2.26-1.31s-5.4,8.25-5.27,8.46c.25.45,12.65-7.89,12.91-7.45s-12.88,10.93-12.66,11.3c.29.52,15.54-9.66,15.83-9.14S249.72,87.71,250,88.13s16.31-10.13,16.62-9.6-12.09,13-11.87,13.44,12.49-7.8,12.75-7.36c.13.23-6.91,8.2-6.78,8.44s4.7-3,4.84-2.8" transform="translate(-20 -19.17)"/><path class="cls-3" d="M50.54,97.67c.1.18,2.16-1.48,2.26-1.3s-5.4,8.24-5.27,8.46c.25.44,12.65-7.9,12.91-7.46s-12.88,10.94-12.66,11.31S63.32,99,63.61,99.53,49.72,112.89,50,113.31s16.31-10.13,16.62-9.59-12.09,13-11.87,13.43,12.49-7.8,12.75-7.36c.13.24-6.91,8.21-6.78,8.44s4.7-3,4.84-2.79" transform="translate(-20 -19.17)"/><path class="cls-2" d="M75.54,97.67c.1.18,2.16-1.48,2.26-1.3s-5.4,8.24-5.27,8.46c.25.44,12.65-7.9,12.91-7.46s-12.88,10.94-12.66,11.31S88.32,99,88.61,99.53,74.72,112.89,75,113.31s16.31-10.13,16.62-9.59-12.09,13-11.87,13.43,12.49-7.8,12.75-7.36c.13.24-6.91,8.21-6.78,8.44s4.7-3,4.84-2.79" transform="translate(-20 -19.17)"/><path class="cls-6" d="M100.54,97.67c.1.18,2.16-1.48,2.26-1.3s-5.4,8.24-5.27,8.46c.25.44,12.65-7.9,12.91-7.46s-12.88,10.94-12.66,11.31,15.54-9.66,15.83-9.15S99.72,112.89,100,113.31s16.31-10.13,16.62-9.59-12.09,13-11.87,13.43,12.49-7.8,12.75-7.36c.13.24-6.91,8.21-6.78,8.44s4.7-3,4.84-2.79" transform="translate(-20 -19.17)"/><path class="cls-3" d="M125.54,97.67c.1.18,2.16-1.48,2.26-1.3s-5.4,8.24-5.27,8.46c.25.44,12.65-7.9,12.91-7.46s-12.88,10.94-12.66,11.31,15.54-9.66,15.83-9.15S124.72,112.89,125,113.31s16.31-10.13,16.62-9.59-12.09,13-11.87,13.43,12.49-7.8,12.75-7.36c.13.24-6.91,8.21-6.78,8.44s4.7-3,4.84-2.79" transform="translate(-20 -19.17)"/><path class="cls-5" d="M150.54,97.67c.1.18,2.16-1.48,2.26-1.3s-5.4,8.24-5.27,8.46c.25.44,12.65-7.9,12.91-7.46s-12.88,10.94-12.66,11.31,15.54-9.66,15.83-9.15S149.72,112.89,150,113.31s16.31-10.13,16.62-9.59-12.09,13-11.87,13.43,12.49-7.8,12.75-7.36c.13.24-6.91,8.21-6.78,8.44s4.7-3,4.84-2.79" transform="translate(-20 -19.17)"/><path class="cls-5" d="M200.54,97.67c.1.18,2.16-1.48,2.26-1.3s-5.4,8.24-5.27,8.46c.25.44,12.65-7.9,12.91-7.46s-12.88,10.94-12.66,11.31,15.54-9.66,15.83-9.15S199.72,112.89,200,113.31s16.31-10.13,16.62-9.59-12.09,13-11.87,13.43,12.49-7.8,12.75-7.36c.13.24-6.91,8.21-6.78,8.44s4.7-3,4.84-2.79" transform="translate(-20 -19.17)"/><path class="cls-6" d="M225.54,97.67c.1.18,2.16-1.48,2.26-1.3s-5.4,8.24-5.27,8.46c.25.44,12.65-7.9,12.91-7.46s-12.88,10.94-12.66,11.31,15.54-9.66,15.83-9.15S224.72,112.89,225,113.31s16.31-10.13,16.62-9.59-12.09,13-11.87,13.43,12.49-7.8,12.75-7.36c.13.24-6.91,8.21-6.78,8.44s4.7-3,4.84-2.79" transform="translate(-20 -19.17)"/><path class="cls-5" d="M250.54,97.67c.1.18,2.16-1.48,2.26-1.3s-5.4,8.24-5.27,8.46c.25.44,12.65-7.9,12.91-7.46s-12.88,10.94-12.66,11.31,15.54-9.66,15.83-9.15S249.72,112.89,250,113.31s16.31-10.13,16.62-9.59-12.09,13-11.87,13.43,12.49-7.8,12.75-7.36c.13.24-6.91,8.21-6.78,8.44s4.7-3,4.84-2.79" transform="translate(-20 -19.17)"/><path class="cls-3" d="M50.54,122.86c.1.18,2.16-1.48,2.26-1.31s-5.4,8.25-5.27,8.46c.25.45,12.65-7.89,12.91-7.45s-12.88,10.93-12.66,11.3,15.54-9.66,15.83-9.14S49.72,138.08,50,138.5s16.31-10.13,16.62-9.6-12.09,13-11.87,13.44,12.49-7.8,12.75-7.36c.13.23-6.91,8.2-6.78,8.44s4.7-3,4.84-2.8" transform="translate(-20 -19.17)"/><path class="cls-4" d="M100.54,122.86c.1.18,2.16-1.48,2.26-1.31s-5.4,8.25-5.27,8.46c.25.45,12.65-7.89,12.91-7.45s-12.88,10.93-12.66,11.3,15.54-9.66,15.83-9.14S99.72,138.08,100,138.5s16.31-10.13,16.62-9.6-12.09,13-11.87,13.44,12.49-7.8,12.75-7.36c.13.23-6.91,8.2-6.78,8.44s4.7-3,4.84-2.8" transform="translate(-20 -19.17)"/><path class="cls-4" d="M125.54,122.86c.1.18,2.16-1.48,2.26-1.31s-5.4,8.25-5.27,8.46c.25.45,12.65-7.89,12.91-7.45s-12.88,10.93-12.66,11.3,15.54-9.66,15.83-9.14S124.72,138.08,125,138.5s16.31-10.13,16.62-9.6-12.09,13-11.87,13.44,12.49-7.8,12.75-7.36c.13.23-6.91,8.2-6.78,8.44s4.7-3,4.84-2.8" transform="translate(-20 -19.17)"/><path class="cls-4" d="M150.54,122.86c.1.18,2.16-1.48,2.26-1.31s-5.4,8.25-5.27,8.46c.25.45,12.65-7.89,12.91-7.45s-12.88,10.93-12.66,11.3,15.54-9.66,15.83-9.14S149.72,138.08,150,138.5s16.31-10.13,16.62-9.6-12.09,13-11.87,13.44,12.49-7.8,12.75-7.36c.13.23-6.91,8.2-6.78,8.44s4.7-3,4.84-2.8" transform="translate(-20 -19.17)"/><path class="cls-4" d="M200.54,122.86c.1.18,2.16-1.48,2.26-1.31s-5.4,8.25-5.27,8.46c.25.45,12.65-7.89,12.91-7.45s-12.88,10.93-12.66,11.3,15.54-9.66,15.83-9.14S199.72,138.08,200,138.5s16.31-10.13,16.62-9.6-12.09,13-11.87,13.44,12.49-7.8,12.75-7.36c.13.23-6.91,8.2-6.78,8.44s4.7-3,4.84-2.8" transform="translate(-20 -19.17)"/><path class="cls-3" d="M225.54,122.86c.1.18,2.16-1.48,2.26-1.31s-5.4,8.25-5.27,8.46c.25.45,12.65-7.89,12.91-7.45s-12.88,10.93-12.66,11.3,15.54-9.66,15.83-9.14S224.72,138.08,225,138.5s16.31-10.13,16.62-9.6-12.09,13-11.87,13.44,12.49-7.8,12.75-7.36c.13.23-6.91,8.2-6.78,8.44s4.7-3,4.84-2.8" transform="translate(-20 -19.17)"/><path class="cls-4" d="M250.54,122.86c.1.18,2.16-1.48,2.26-1.31s-5.4,8.25-5.27,8.46c.25.45,12.65-7.89,12.91-7.45s-12.88,10.93-12.66,11.3,15.54-9.66,15.83-9.14S249.72,138.08,250,138.5s16.31-10.13,16.62-9.6-12.09,13-11.87,13.44,12.49-7.8,12.75-7.36c.13.23-6.91,8.2-6.78,8.44s4.7-3,4.84-2.8" transform="translate(-20 -19.17)"/><path class="cls-6" d="M25.54,148c.1.18,2.16-1.48,2.26-1.3s-5.4,8.24-5.27,8.46c.25.44,12.65-7.9,12.91-7.46s-12.88,10.94-12.66,11.31,15.54-9.66,15.83-9.15S24.72,163.26,25,163.68s16.31-10.13,16.62-9.59c.22.39-12.09,13-11.87,13.43s12.49-7.8,12.75-7.36c.13.24-6.91,8.21-6.78,8.44s4.7-3,4.84-2.79" transform="translate(-20 -19.17)"/><path class="cls-4" d="M50.54,148c.1.18,2.16-1.48,2.26-1.3s-5.4,8.24-5.27,8.46c.25.44,12.65-7.9,12.91-7.46s-12.88,10.94-12.66,11.31,15.54-9.66,15.83-9.15S49.72,163.26,50,163.68s16.31-10.13,16.62-9.59c.22.39-12.09,13-11.87,13.43s12.49-7.8,12.75-7.36c.13.24-6.91,8.21-6.78,8.44s4.7-3,4.84-2.79" transform="translate(-20 -19.17)"/><path class="cls-6" d="M100.54,148c.1.18,2.16-1.48,2.26-1.3s-5.4,8.24-5.27,8.46c.25.44,12.65-7.9,12.91-7.46s-12.88,10.94-12.66,11.31,15.54-9.66,15.83-9.15S99.72,163.26,100,163.68s16.31-10.13,16.62-9.59c.22.39-12.09,13-11.87,13.43s12.49-7.8,12.75-7.36c.13.24-6.91,8.21-6.78,8.44s4.7-3,4.84-2.79" transform="translate(-20 -19.17)"/><path class="cls-2" d="M125.54,148c.1.18,2.16-1.48,2.26-1.3s-5.4,8.24-5.27,8.46c.25.44,12.65-7.9,12.91-7.46s-12.88,10.94-12.66,11.31,15.54-9.66,15.83-9.15S124.72,163.26,125,163.68s16.31-10.13,16.62-9.59c.22.39-12.09,13-11.87,13.43s12.49-7.8,12.75-7.36c.13.24-6.91,8.21-6.78,8.44s4.7-3,4.84-2.79" transform="translate(-20 -19.17)"/><path class="cls-6" d="M150.54,148c.1.18,2.16-1.48,2.26-1.3s-5.4,8.24-5.27,8.46c.25.44,12.65-7.9,12.91-7.46s-12.88,10.94-12.66,11.31,15.54-9.66,15.83-9.15S149.72,163.26,150,163.68s16.31-10.13,16.62-9.59c.22.39-12.09,13-11.87,13.43s12.49-7.8,12.75-7.36c.13.24-6.91,8.21-6.78,8.44s4.7-3,4.84-2.79" transform="translate(-20 -19.17)"/><path class="cls-3" d="M175.54,148c.1.18,2.16-1.48,2.26-1.3s-5.4,8.24-5.27,8.46c.25.44,12.65-7.9,12.91-7.46s-12.88,10.94-12.66,11.31,15.54-9.66,15.83-9.15S174.72,163.26,175,163.68s16.31-10.13,16.62-9.59c.22.39-12.09,13-11.87,13.43s12.49-7.8,12.75-7.36c.13.24-6.91,8.21-6.78,8.44s4.7-3,4.84-2.79" transform="translate(-20 -19.17)"/><path class="cls-6" d="M200.54,148c.1.18,2.16-1.48,2.26-1.3s-5.4,8.24-5.27,8.46c.25.44,12.65-7.9,12.91-7.46s-12.88,10.94-12.66,11.31,15.54-9.66,15.83-9.15S199.72,163.26,200,163.68s16.31-10.13,16.62-9.59c.22.39-12.09,13-11.87,13.43s12.49-7.8,12.75-7.36c.13.24-6.91,8.21-6.78,8.44s4.7-3,4.84-2.79" transform="translate(-20 -19.17)"/><path class="cls-5" d="M250.54,148c.1.18,2.16-1.48,2.26-1.3s-5.4,8.24-5.27,8.46c.25.44,12.65-7.9,12.91-7.46s-12.88,10.94-12.66,11.31,15.54-9.66,15.83-9.15S249.72,163.26,250,163.68s16.31-10.13,16.62-9.59c.22.39-12.09,13-11.87,13.43s12.49-7.8,12.75-7.36c.13.24-6.91,8.21-6.78,8.44s4.7-3,4.84-2.79" transform="translate(-20 -19.17)"/><path class="cls-4" d="M50.54,173.23c.1.17,2.16-1.49,2.26-1.31s-5.4,8.25-5.27,8.46c.25.44,12.65-7.89,12.91-7.45s-12.88,10.93-12.66,11.3c.29.52,15.54-9.66,15.83-9.14S49.72,188.45,50,188.87s16.31-10.13,16.62-9.6-12.09,13-11.87,13.44,12.49-7.8,12.75-7.36c.13.23-6.91,8.2-6.78,8.44s4.7-3,4.84-2.8" transform="translate(-20 -19.17)"/><path class="cls-6" d="M75.54,173.23c.1.17,2.16-1.49,2.26-1.31s-5.4,8.25-5.27,8.46c.25.44,12.65-7.89,12.91-7.45s-12.88,10.93-12.66,11.3c.29.52,15.54-9.66,15.83-9.14S74.72,188.45,75,188.87s16.31-10.13,16.62-9.6-12.09,13-11.87,13.44,12.49-7.8,12.75-7.36c.13.23-6.91,8.2-6.78,8.44s4.7-3,4.84-2.8" transform="translate(-20 -19.17)"/><path class="cls-6" d="M100.54,173.23c.1.17,2.16-1.49,2.26-1.31s-5.4,8.25-5.27,8.46c.25.44,12.65-7.89,12.91-7.45s-12.88,10.93-12.66,11.3c.29.52,15.54-9.66,15.83-9.14S99.72,188.45,100,188.87s16.31-10.13,16.62-9.6-12.09,13-11.87,13.44,12.49-7.8,12.75-7.36c.13.23-6.91,8.2-6.78,8.44s4.7-3,4.84-2.8" transform="translate(-20 -19.17)"/><path class="cls-4" d="M125.54,173.23c.1.17,2.16-1.49,2.26-1.31s-5.4,8.25-5.27,8.46c.25.44,12.65-7.89,12.91-7.45s-12.88,10.93-12.66,11.3c.29.52,15.54-9.66,15.83-9.14S124.72,188.45,125,188.87s16.31-10.13,16.62-9.6-12.09,13-11.87,13.44,12.49-7.8,12.75-7.36c.13.23-6.91,8.2-6.78,8.44s4.7-3,4.84-2.8" transform="translate(-20 -19.17)"/><path class="cls-4" d="M150.54,173.23c.1.17,2.16-1.49,2.26-1.31s-5.4,8.25-5.27,8.46c.25.44,12.65-7.89,12.91-7.45s-12.88,10.93-12.66,11.3c.29.52,15.54-9.66,15.83-9.14S149.72,188.45,150,188.87s16.31-10.13,16.62-9.6-12.09,13-11.87,13.44,12.49-7.8,12.75-7.36c.13.23-6.91,8.2-6.78,8.44s4.7-3,4.84-2.8" transform="translate(-20 -19.17)"/><path class="cls-5" d="M200.54,173.23c.1.17,2.16-1.49,2.26-1.31s-5.4,8.25-5.27,8.46c.25.44,12.65-7.89,12.91-7.45s-12.88,10.93-12.66,11.3c.29.52,15.54-9.66,15.83-9.14S199.72,188.45,200,188.87s16.31-10.13,16.62-9.6-12.09,13-11.87,13.44,12.49-7.8,12.75-7.36c.13.23-6.91,8.2-6.78,8.44s4.7-3,4.84-2.8" transform="translate(-20 -19.17)"/><path class="cls-2" d="M225.54,173.23c.1.17,2.16-1.49,2.26-1.31s-5.4,8.25-5.27,8.46c.25.44,12.65-7.89,12.91-7.45s-12.88,10.93-12.66,11.3c.29.52,15.54-9.66,15.83-9.14S224.72,188.45,225,188.87s16.31-10.13,16.62-9.6-12.09,13-11.87,13.44,12.49-7.8,12.75-7.36c.13.23-6.91,8.2-6.78,8.44s4.7-3,4.84-2.8" transform="translate(-20 -19.17)"/><path class="cls-5" d="M250.54,173.23c.1.17,2.16-1.49,2.26-1.31s-5.4,8.25-5.27,8.46c.25.44,12.65-7.89,12.91-7.45s-12.88,10.93-12.66,11.3c.29.52,15.54-9.66,15.83-9.14S249.72,188.45,250,188.87s16.31-10.13,16.62-9.6-12.09,13-11.87,13.44,12.49-7.8,12.75-7.36c.13.23-6.91,8.2-6.78,8.44s4.7-3,4.84-2.8" transform="translate(-20 -19.17)"/><path class="cls-5" d="M50.54,198.41c.1.18,2.16-1.48,2.26-1.3s-5.4,8.24-5.27,8.46c.25.44,12.65-7.9,12.91-7.46s-12.88,10.94-12.66,11.3c.29.52,15.54-9.66,15.83-9.14S49.72,213.63,50,214.05s16.31-10.13,16.62-9.59c.22.38-12.09,13-11.87,13.43s12.49-7.8,12.75-7.36c.13.23-6.91,8.21-6.78,8.44s4.7-3,4.84-2.8" transform="translate(-20 -19.17)"/><path class="cls-3" d="M100.54,198.41c.1.18,2.16-1.48,2.26-1.3s-5.4,8.24-5.27,8.46c.25.44,12.65-7.9,12.91-7.46s-12.88,10.94-12.66,11.3c.29.52,15.54-9.66,15.83-9.14S99.72,213.63,100,214.05s16.31-10.13,16.62-9.59c.22.38-12.09,13-11.87,13.43s12.49-7.8,12.75-7.36c.13.23-6.91,8.21-6.78,8.44s4.7-3,4.84-2.8" transform="translate(-20 -19.17)"/><path class="cls-4" d="M125.54,198.41c.1.18,2.16-1.48,2.26-1.3s-5.4,8.24-5.27,8.46c.25.44,12.65-7.9,12.91-7.46s-12.88,10.94-12.66,11.3c.29.52,15.54-9.66,15.83-9.14S124.72,213.63,125,214.05s16.31-10.13,16.62-9.59c.22.38-12.09,13-11.87,13.43s12.49-7.8,12.75-7.36c.13.23-6.91,8.21-6.78,8.44s4.7-3,4.84-2.8" transform="translate(-20 -19.17)"/><path class="cls-6" d="M150.54,198.41c.1.18,2.16-1.48,2.26-1.3s-5.4,8.24-5.27,8.46c.25.44,12.65-7.9,12.91-7.46s-12.88,10.94-12.66,11.3c.29.52,15.54-9.66,15.83-9.14S149.72,213.63,150,214.05s16.31-10.13,16.62-9.59c.22.39-12.09,13-11.87,13.43s12.49-7.8,12.75-7.36c.13.23-6.91,8.21-6.78,8.44s4.7-3,4.84-2.8" transform="translate(-20 -19.17)"/><path class="cls-3" d="M175.54,198.41c.1.18,2.16-1.48,2.26-1.3s-5.4,8.24-5.27,8.46c.25.44,12.65-7.9,12.91-7.46s-12.88,10.94-12.66,11.3c.29.52,15.54-9.66,15.83-9.14S174.72,213.63,175,214.05s16.31-10.13,16.62-9.59c.22.39-12.09,13-11.87,13.43s12.49-7.8,12.75-7.36c.13.23-6.91,8.21-6.78,8.44s4.7-3,4.84-2.8" transform="translate(-20 -19.17)"/><path class="cls-3" d="M200.54,198.41c.1.18,2.16-1.48,2.26-1.3s-5.4,8.24-5.27,8.46c.25.44,12.65-7.9,12.91-7.46s-12.88,10.94-12.66,11.3c.29.52,15.54-9.66,15.83-9.14S199.72,213.63,200,214.05s16.31-10.13,16.62-9.59c.22.39-12.09,13-11.87,13.43s12.49-7.8,12.75-7.36c.13.23-6.91,8.21-6.78,8.44s4.7-3,4.84-2.8" transform="translate(-20 -19.17)"/><path class="cls-5" d="M250.54,198.41c.1.18,2.16-1.48,2.26-1.3s-5.4,8.24-5.27,8.46c.25.44,12.65-7.9,12.91-7.46s-12.88,10.94-12.66,11.3c.29.52,15.54-9.66,15.83-9.14S249.72,213.63,250,214.05s16.31-10.13,16.62-9.59c.22.39-12.09,13-11.87,13.43s12.49-7.8,12.75-7.36c.13.23-6.91,8.21-6.78,8.44s4.7-3,4.84-2.8" transform="translate(-20 -19.17)"/><path class="cls-2" d="M25.54,223.6c.1.17,2.16-1.49,2.26-1.31s-5.4,8.25-5.27,8.46c.25.44,12.65-7.9,12.91-7.45s-12.88,10.93-12.66,11.3,15.54-9.66,15.83-9.15S24.72,238.81,25,239.23s16.31-10.12,16.62-9.59-12.09,13.05-11.87,13.43,12.49-7.79,12.75-7.36c.13.24-6.91,8.21-6.78,8.44s4.7-3,4.84-2.79" transform="translate(-20 -19.17)"/><path class="cls-5" d="M50.54,223.6c.1.17,2.16-1.49,2.26-1.31s-5.4,8.25-5.27,8.46c.25.44,12.65-7.9,12.91-7.45s-12.88,10.93-12.66,11.3,15.54-9.66,15.83-9.15S49.72,238.81,50,239.23s16.31-10.12,16.62-9.59-12.09,13.05-11.87,13.43,12.49-7.79,12.75-7.36c.13.24-6.91,8.21-6.78,8.44s4.7-3,4.84-2.79" transform="translate(-20 -19.17)"/><path class="cls-5" d="M100.54,223.6c.1.17,2.16-1.49,2.26-1.31s-5.4,8.25-5.27,8.46c.25.44,12.65-7.9,12.91-7.45s-12.88,10.93-12.66,11.3,15.54-9.66,15.83-9.15S99.72,238.81,100,239.23s16.31-10.12,16.62-9.59-12.09,13.05-11.87,13.43,12.49-7.79,12.75-7.36c.13.24-6.91,8.21-6.78,8.44s4.7-3,4.84-2.79" transform="translate(-20 -19.17)"/><path class="cls-5" d="M125.54,223.6c.1.17,2.16-1.49,2.26-1.31s-5.4,8.25-5.27,8.46c.25.44,12.65-7.9,12.91-7.45s-12.88,10.93-12.66,11.3,15.54-9.66,15.83-9.15S124.72,238.81,125,239.23s16.31-10.12,16.62-9.59-12.09,13.05-11.87,13.43,12.49-7.79,12.75-7.36c.13.24-6.91,8.21-6.78,8.44s4.7-3,4.84-2.79" transform="translate(-20 -19.17)"/><path class="cls-4" d="M150.54,223.6c.1.17,2.16-1.49,2.26-1.31s-5.4,8.25-5.27,8.46c.25.44,12.65-7.9,12.91-7.45s-12.88,10.93-12.66,11.3,15.54-9.66,15.83-9.15S149.72,238.81,150,239.23s16.31-10.12,16.62-9.59-12.09,13.05-11.87,13.43,12.49-7.79,12.75-7.36c.13.24-6.91,8.21-6.78,8.44s4.7-3,4.84-2.79" transform="translate(-20 -19.17)"/><path class="cls-5" d="M175.54,223.6c.1.17,2.16-1.49,2.26-1.31s-5.4,8.25-5.27,8.46c.25.44,12.65-7.9,12.91-7.45s-12.88,10.93-12.66,11.3,15.54-9.66,15.83-9.15S174.72,238.81,175,239.23s16.31-10.12,16.62-9.59-12.09,13.05-11.87,13.43,12.49-7.79,12.75-7.36c.13.24-6.91,8.21-6.78,8.44s4.7-3,4.84-2.79" transform="translate(-20 -19.17)"/><path class="cls-5" d="M200.54,223.6c.1.17,2.16-1.49,2.26-1.31s-5.4,8.25-5.27,8.46c.25.44,12.65-7.9,12.91-7.45s-12.88,10.93-12.66,11.3,15.54-9.66,15.83-9.15S199.72,238.81,200,239.23s16.31-10.12,16.62-9.59-12.09,13.05-11.87,13.43,12.49-7.79,12.75-7.36c.13.24-6.91,8.21-6.78,8.44s4.7-3,4.84-2.79" transform="translate(-20 -19.17)"/><path class="cls-5" d="M250.54,223.6c.1.17,2.16-1.49,2.26-1.31s-5.4,8.25-5.27,8.46c.25.44,12.65-7.9,12.91-7.45s-12.88,10.93-12.66,11.3,15.54-9.66,15.83-9.15S249.72,238.81,250,239.23s16.31-10.12,16.62-9.59-12.09,13.05-11.87,13.43,12.49-7.79,12.75-7.36c.13.24-6.91,8.21-6.78,8.44s4.7-3,4.84-2.79" transform="translate(-20 -19.17)"/><path class="cls-6" d="M25.54,248.78c.1.18,2.16-1.48,2.26-1.31s-5.4,8.25-5.27,8.47c.25.44,12.65-7.9,12.91-7.46s-12.88,10.94-12.66,11.3c.29.52,15.54-9.66,15.83-9.14S24.72,264,25,264.42s16.31-10.13,16.62-9.59c.22.38-12.09,13-11.87,13.43s12.49-7.8,12.75-7.36c.13.23-6.91,8.2-6.78,8.44s4.7-3,4.84-2.8" transform="translate(-20 -19.17)"/><path class="cls-4" d="M50.54,248.78c.1.18,2.16-1.48,2.26-1.31s-5.4,8.25-5.27,8.47c.25.44,12.65-7.9,12.91-7.46s-12.88,10.94-12.66,11.3c.29.52,15.54-9.66,15.83-9.14S49.72,264,50,264.42s16.31-10.13,16.62-9.59c.22.38-12.09,13-11.87,13.43s12.49-7.8,12.75-7.36c.13.23-6.91,8.2-6.78,8.44s4.7-3,4.84-2.8" transform="translate(-20 -19.17)"/><path class="cls-5" d="M75.54,248.78c.1.18,2.16-1.48,2.26-1.31s-5.4,8.25-5.27,8.47c.25.44,12.65-7.9,12.91-7.46s-12.88,10.94-12.66,11.3c.29.52,15.54-9.66,15.83-9.14S74.72,264,75,264.42s16.31-10.13,16.62-9.59c.22.38-12.09,13-11.87,13.43s12.49-7.8,12.75-7.36c.13.23-6.91,8.2-6.78,8.44s4.7-3,4.84-2.8" transform="translate(-20 -19.17)"/><path class="cls-4" d="M100.54,248.78c.1.18,2.16-1.48,2.26-1.31s-5.4,8.25-5.27,8.47c.25.44,12.65-7.9,12.91-7.46s-12.88,10.94-12.66,11.3c.29.52,15.54-9.66,15.83-9.14S99.72,264,100,264.42s16.31-10.13,16.62-9.59c.22.38-12.09,13-11.87,13.43s12.49-7.8,12.75-7.36c.13.23-6.91,8.2-6.78,8.44s4.7-3,4.84-2.8" transform="translate(-20 -19.17)"/><path class="cls-3" d="M125.54,248.78c.1.18,2.16-1.48,2.26-1.31s-5.4,8.25-5.27,8.47c.25.44,12.65-7.9,12.91-7.46s-12.88,10.94-12.66,11.3c.29.52,15.54-9.66,15.83-9.14S124.72,264,125,264.42s16.31-10.13,16.62-9.59c.22.38-12.09,13-11.87,13.43s12.49-7.8,12.75-7.36c.13.23-6.91,8.2-6.78,8.44s4.7-3,4.84-2.8" transform="translate(-20 -19.17)"/><path class="cls-3" d="M150.54,248.78c.1.18,2.16-1.48,2.26-1.31s-5.4,8.25-5.27,8.47c.25.44,12.65-7.9,12.91-7.46s-12.88,10.94-12.66,11.3c.29.52,15.54-9.66,15.83-9.14S149.72,264,150,264.42s16.31-10.13,16.62-9.59c.22.38-12.09,13-11.87,13.43s12.49-7.8,12.75-7.36c.13.23-6.91,8.2-6.78,8.44s4.7-3,4.84-2.8" transform="translate(-20 -19.17)"/><path class="cls-5" d="M200.54,248.78c.1.18,2.16-1.48,2.26-1.31s-5.4,8.25-5.27,8.47c.25.44,12.65-7.9,12.91-7.46s-12.88,10.94-12.66,11.3c.29.52,15.54-9.66,15.83-9.14S199.72,264,200,264.42s16.31-10.13,16.62-9.59c.22.38-12.09,13-11.87,13.43s12.49-7.8,12.75-7.36c.13.23-6.91,8.2-6.78,8.44s4.7-3,4.84-2.8" transform="translate(-20 -19.17)"/><path class="cls-6" d="M225.54,248.78c.1.18,2.16-1.48,2.26-1.31s-5.4,8.25-5.27,8.47c.25.44,12.65-7.9,12.91-7.46s-12.88,10.94-12.66,11.3c.29.52,15.54-9.66,15.83-9.14S224.72,264,225,264.42s16.31-10.13,16.62-9.59c.22.38-12.09,13-11.87,13.43s12.49-7.8,12.75-7.36c.13.23-6.91,8.2-6.78,8.44s4.7-3,4.84-2.8" transform="translate(-20 -19.17)"/><path class="cls-4" d="M250.54,248.78c.1.18,2.16-1.48,2.26-1.31s-5.4,8.25-5.27,8.47c.25.44,12.65-7.9,12.91-7.46s-12.88,10.94-12.66,11.3c.29.52,15.54-9.66,15.83-9.14S249.72,264,250,264.42s16.31-10.13,16.62-9.59c.22.38-12.09,13-11.87,13.43s12.49-7.8,12.75-7.36c.13.23-6.91,8.2-6.78,8.44s4.7-3,4.84-2.8" transform="translate(-20 -19.17)"/></g><circle class="cls-7" cx="62.5" cy="12.5" r="12.5"/><circle class="cls-7" cx="112.5" cy="12.5" r="12.5"/><circle class="cls-7" cx="162.5" cy="12.5" r="12.5"/><circle class="cls-7" cx="12.5" cy="37.68" r="12.5"/><circle class="cls-7" cx="62.5" cy="37.68" r="12.5"/><circle class="cls-8" cx="162.5" cy="37.68" r="12.5"/><circle class="cls-9" cx="212.5" cy="37.68" r="12.5"/><circle class="cls-10" cx="62.5" cy="62.87" r="12.5"/><circle class="cls-7" cx="212.5" cy="62.87" r="12.5"/><circle class="cls-10" cx="12.5" cy="88.05" r="12.5"/><circle class="cls-10" cx="162.5" cy="88.05" r="12.5"/><circle class="cls-10" cx="12.5" cy="113.24" r="12.5"/><circle class="cls-7" cx="62.5" cy="113.24" r="12.5"/><circle class="cls-9" cx="162.5" cy="113.24" r="12.5"/><circle class="cls-9" cx="62.5" cy="138.42" r="12.5"/><circle class="cls-10" cx="212.5" cy="138.42" r="12.5"/><circle class="cls-7" cx="12.5" cy="163.61" r="12.5"/><circle class="cls-10" cx="162.5" cy="163.61" r="12.5"/><circle class="cls-11" cx="12.5" cy="188.79" r="12.5"/><circle class="cls-8" cx="62.5" cy="188.79" r="12.5"/><circle class="cls-8" cx="212.5" cy="188.79" r="12.5"/><circle class="cls-7" cx="62.5" cy="213.98" r="12.5"/><circle class="cls-9" cx="212.5" cy="213.98" r="12.5"/><circle class="cls-9" cx="162.5" cy="239.16" r="12.5"/></svg>