<svg id="Layer_1" data-name="Layer 1" xmlns="http://www.w3.org/2000/svg" viewBox="0 0 72.92 72.92"><defs><style>.cls-1{fill:#fff;fill-opacity:0.1;stroke:#5a4c4b;stroke-miterlimit:10;stroke-width:1.74px;}.cls-2{fill:#5a4c4b;}.cls-3{fill:#e8eaea;}.cls-4{fill:#b5a8a0;}</style></defs><title>icon06</title><circle class="cls-1" cx="36.46" cy="36.46" r="35.59"/><path class="cls-2" d="M139.89,116.73v13.08s6.67,2.9,6.67,9v5a14.91,14.91,0,0,1,.52-1.76l.15-.47a1.1,1.1,0,0,1,1-.77H161a1.09,1.09,0,0,1,1,.76c.05.14.09.29.14.42a17.45,17.45,0,0,1,.58,2.06c.83,4,.56,7.15-.82,9.7a8.28,8.28,0,0,1-6.13,4.42v8.7l5.2,3a1.09,1.09,0,0,1,.27,1.72,1.11,1.11,0,0,1-.78.31H148.77a1.06,1.06,0,0,1-.53-2l5.24-3v-8.7a8,8,0,0,1-6.13-4.28,10.09,10.09,0,0,1-.79-1.91v16.5a3.39,3.39,0,0,1-3.38,3.38H131.91a3.4,3.4,0,0,1-3.4-3.38V138.77c0-6.06,6.63-9,6.63-9V116.73h4.75m0-1.55h-4.75a1.55,1.55,0,0,0-1.56,1.55v12.12c-2,1.14-6.63,4.35-6.63,9.92v29.64a5,5,0,0,0,5,4.94h11.27a5,5,0,0,0,3.32-1.28,2.64,2.64,0,0,0,2.27,1.28H160.5a2.68,2.68,0,0,0,1.86-.75,2.6,2.6,0,0,0,.79-1.88,2.63,2.63,0,0,0-1.39-2.33l-4.39-2.5v-6.56a9.7,9.7,0,0,0,2.39-1.07,10,10,0,0,0,3.55-3.86c1.56-2.87,1.88-6.4,1-10.75a17.79,17.79,0,0,0-.63-2.2l0-.18c0-.1-.06-.19-.1-.29a2.64,2.64,0,0,0-2.5-1.81H148.12v-.4c0-5.58-4.63-8.78-6.68-9.92V116.73a1.54,1.54,0,0,0-1.55-1.55Zm8.23,52.88V157.31a9.52,9.52,0,0,0,3.8,2.06v6.53l-3.8,2.16Z" transform="translate(-108.54 -108.54)"/><path class="cls-2" d="M159.88,146.36a8.88,8.88,0,0,1-.66,5.8,5.21,5.21,0,0,1-4.6,2.85,5.11,5.11,0,0,1-4.61-2.74,9.21,9.21,0,0,1-.66-5.91Z" transform="translate(-108.54 -108.54)"/><polygon class="cls-3" points="47.86 61.07 44.33 61.07 46.09 60.07 47.86 61.07"/><path class="cls-3" d="M159.22,152.16a8.88,8.88,0,0,0,.66-5.8H149.35a9.21,9.21,0,0,0,.66,5.91,5.11,5.11,0,0,0,4.61,2.74A5.21,5.21,0,0,0,159.22,152.16Zm1.4-7.79c.72,3.45.53,6.16-.61,8.25v0a6,6,0,0,1-5.37,3.33,6,6,0,0,1-5.38-3.18h0c-1.14-2.09-1.34-4.95-.61-8.44.11-.56.25-.94.4-1.49h11.17C160.37,143.4,160.5,143.8,160.62,144.37Z" transform="translate(-108.54 -108.54)"/><rect class="cls-3" x="22.39" y="32.98" width="13.16" height="21.96"/><path class="cls-3" d="M134.93,132.52a11.46,11.46,0,0,0-5,5.88c.41-3.4,2-4.88,3.08-5.48A3,3,0,0,1,134.93,132.52Z" transform="translate(-108.54 -108.54)"/><path class="cls-4" d="M128.51,138.77c0-6.06,6.63-9,6.63-9V116.73h4.74V129.8s6.68,2.91,6.68,9v5a15.7,15.7,0,0,1,.52-1.77c0-.14.1-.31.15-.46a1.1,1.1,0,0,1,1-.77H161a1.09,1.09,0,0,1,1,.76c.05.14.09.29.13.42a15.65,15.65,0,0,1,.59,2.06c.83,4,.56,7.15-.83,9.7a8.25,8.25,0,0,1-6.12,4.42v8.7l5.2,3a1.07,1.07,0,0,1,.58,1,1,1,0,0,1-.32.76,1.07,1.07,0,0,1-.77.31H148.77a1.06,1.06,0,0,1-.53-2l5.24-3v-8.7a8,8,0,0,1-6.13-4.28,9.48,9.48,0,0,1-.79-1.91v16.5a3.39,3.39,0,0,1-3.38,3.38H131.91a3.4,3.4,0,0,1-3.4-3.38Zm4.54-5.85c-1.11.6-2.67,2.08-3.08,5.48a11.46,11.46,0,0,1,5-5.88A3,3,0,0,0,133.05,132.92Zm27,19.7c1.14-2.09,1.33-4.8.61-8.25-.12-.57-.25-1-.4-1.52H149.05c-.15.55-.29.93-.4,1.49-.73,3.49-.53,6.35.61,8.44h0a6,6,0,0,0,5.38,3.18,6,6,0,0,0,5.37-3.33Zm-7.14,17h3.53l-1.76-1Zm-8.78-6.13v-22H130.93v22Z" transform="translate(-108.54 -108.54)"/></svg>