<svg id="Layer_1" data-name="Layer 1" xmlns="http://www.w3.org/2000/svg" viewBox="0 0 72.92 72.92"><defs><style>.cls-1{fill:#fff;fill-opacity:0.1;stroke:#5a4c4b;stroke-miterlimit:10;stroke-width:1.74px;}.cls-2{fill:#5a4c4b;}.cls-3{fill:#e8eaea;}</style></defs><title>icon03</title><circle class="cls-1" cx="36.46" cy="36.46" r="35.59"/><path class="cls-2" d="M145.91,114.62a1.28,1.28,0,0,1,.86.34,41.08,41.08,0,0,1,3.47,3.7c2.24,2.71,3.54,5.06,3.88,7,.93,1,3.51,4.26,2.6,7.54a7,7,0,0,1,1.55,2.18,7.61,7.61,0,0,1,.65,3.67,11.67,11.67,0,0,1-1,3.87,1.27,1.27,0,0,1,.3,1c-.09.84-.17,1.68-.25,2.51s-.17,1.66-.25,2.5a1.31,1.31,0,0,1-1.28,1.18h-.14c-1.57,7.73-3.18,15.77-4.77,23.69a1.3,1.3,0,0,1-1.25,1H138.13a1.29,1.29,0,0,1-1.25-1c-1.59-7.92-3.2-16-4.77-23.69h-.18a1.29,1.29,0,0,1-1.27-1.18c-.09-.84-.17-1.69-.25-2.51s-.17-1.66-.26-2.51a1.28,1.28,0,0,1,.24-.87,6.27,6.27,0,0,1-.74-1.15,5.4,5.4,0,0,1-.34-4.08,10,10,0,0,1,.79-1.75,3.55,3.55,0,0,1,.47-.7,4.54,4.54,0,0,0,.27-.42,2,2,0,0,0-.15-.39,4.91,4.91,0,0,1-.32-.9,6.44,6.44,0,0,1,.49-4.92,5.09,5.09,0,0,1,2-1.82,1.21,1.21,0,0,1,0-.19s0-1,0-1.18a5.3,5.3,0,0,1,1.28-2.89,6.64,6.64,0,0,1,2.46-1.71,17.12,17.12,0,0,1,2.29-.77,8.88,8.88,0,0,1,1.06-.24,7.28,7.28,0,0,0,1.4-.38,9.37,9.37,0,0,0,1.4-.88c.55-.39,1.83-1.42,1.83-2.71a1.27,1.27,0,0,1,.77-1.17,1.16,1.16,0,0,1,.52-.11m0-1.66A2.94,2.94,0,0,0,143,115.9c0,.28-.39.83-1.13,1.36a8.14,8.14,0,0,1-1.13.71,5.71,5.71,0,0,1-1,.26h-.05c-.35.07-.74.15-1.15.26a20.52,20.52,0,0,0-2.49.85,8.3,8.3,0,0,0-3.06,2.15,6.92,6.92,0,0,0-1.68,3.77c0,.08,0,.21,0,.65a6.63,6.63,0,0,0-1.76,1.86,8,8,0,0,0-.71,6.15,4.23,4.23,0,0,0,.21.73c-.11.17-.23.36-.34.57a13.36,13.36,0,0,0-.89,2,7.13,7.13,0,0,0,.43,5.35,7.3,7.3,0,0,0,.37.66,2.62,2.62,0,0,0,0,.79l.1,1,.15,1.47c.05.44.09.89.14,1.34L129,149a3,3,0,0,0,1.7,2.4l4.55,22.62a3,3,0,0,0,2.88,2.39h12.19a3,3,0,0,0,2.88-2.39l1.54-7.65c1-5,2-10.07,3-15a3,3,0,0,0,1.65-2.39l.11-1.13c0-.46.09-.91.14-1.36l.15-1.45.1-1.06a2.88,2.88,0,0,0-.13-1.21,12.7,12.7,0,0,0,.8-3.68,9.37,9.37,0,0,0-.8-4.46,8.72,8.72,0,0,0-1.26-2c.43-3.33-1.62-6.32-2.86-7.78a19.06,19.06,0,0,0-4.14-7.29,43.85,43.85,0,0,0-3.62-3.86,2.88,2.88,0,0,0-2-.78Z" transform="translate(-108.54 -108.54)"/><path class="cls-3" d="M158.27,135.37a7,7,0,0,0-1.55-2.18c.91-3.28-1.67-6.5-2.6-7.54-.34-1.93-1.64-4.28-3.88-7a41.08,41.08,0,0,0-3.47-3.7,1.28,1.28,0,0,0-2.15.94c0,1.29-1.28,2.32-1.83,2.71a9.37,9.37,0,0,1-1.4.88,7.28,7.28,0,0,1-1.4.38,8.88,8.88,0,0,0-1.06.24,17.12,17.12,0,0,0-2.29.77,6.64,6.64,0,0,0-2.46,1.71,5.3,5.3,0,0,0-1.28,2.89c0,.22,0,1.17,0,1.18a1.21,1.21,0,0,0,0,.19,5.09,5.09,0,0,0-2,1.82,6.44,6.44,0,0,0-.49,4.92,4.91,4.91,0,0,0,.32.9,2,2,0,0,1,.15.39,4.54,4.54,0,0,1-.27.42,3.55,3.55,0,0,0-.47.7,10,10,0,0,0-.79,1.75,5.4,5.4,0,0,0,.34,4.08,6.27,6.27,0,0,0,.74,1.15,1.28,1.28,0,0,0-.24.87c.09.85.17,1.68.26,2.51s.16,1.67.25,2.51a1.29,1.29,0,0,0,1.27,1.18h.18c1.57,7.73,3.18,15.77,4.77,23.69a1.29,1.29,0,0,0,1.25,1h12.19a1.3,1.3,0,0,0,1.25-1c1.59-7.92,3.2-16,4.77-23.69h.14a1.31,1.31,0,0,0,1.28-1.18c.08-.84.16-1.68.25-2.5s.16-1.67.25-2.51a1.27,1.27,0,0,0-.3-1,11.67,11.67,0,0,0,1-3.87A7.61,7.61,0,0,0,158.27,135.37Zm-23.54,14.68h2.81l1.78,1.76-2.77,2.75-1.13-1.12C135.19,152.3,135,151.26,134.73,150.05Zm5.67,2.83,2.76,2.76-2.76,2.76-2.76-2.76Zm-.69-2.83h1.38l-.69.69Zm8.4,2.83,2.76,2.76-2.76,2.76-2.77-2.76Zm-.69-2.83h1.38l-.69.69Zm-.4,9.44-2.77,2.77-2.76-2.77,2.76-2.76Zm-2.77-4.94-2.76-2.74,1.78-1.76h2l1.78,1.76Zm-7.16,7.17-.93-4.6.39-.39,2.77,2.76Zm3.31-1.14,2.76,2.77-2.76,2.76-2.76-2.76Zm-2.49,5.22,1.41,1.4-.94.93C138.23,167.36,138.07,166.58,137.91,165.8Zm4.16,6.37h-2.88c-.15-.68-.3-1.48-.44-2.21l1.65-1.66,2.76,2.77Zm-.58-5,2.76-2.76L147,167.2,144.25,170Zm7.77,5h-2.82l-1.1-1.1,2.77-2.77,1.61,1.61C149.56,170.66,149.41,171.49,149.26,172.17Zm.82-4.09-.88-.88,1.32-1.32C150.37,166.61,150.22,167.34,150.08,168.08Zm-2-2-2.77-2.76,2.77-2.77,2.76,2.77Zm3.26-4.45-2.17-2.17,2.76-2.76.34.34Zm1.64-8.14-1,1-2.76-2.75,1.78-1.76h2.74C153.48,151.26,153.25,152.35,153,153.52Zm2.44-7.33c0,.44-.09.9-.14,1.3H133.09c0-.4-.09-.86-.13-1.3s-.07-.72-.11-1.05h22.71C155.52,145.47,155.49,145.83,155.45,146.19Z" transform="translate(-108.54 -108.54)"/></svg>