<svg id="Layer_1" data-name="Layer 1" xmlns="http://www.w3.org/2000/svg" viewBox="0 0 72.92 72.92"><defs><style>.cls-1{fill:#fff;fill-opacity:0.1;stroke:#5a4c4b;stroke-width:1.74px;}.cls-1,.cls-3,.cls-4,.cls-5{stroke-miterlimit:10;}.cls-2,.cls-3{fill:#5a4c4b;}.cls-3,.cls-4,.cls-5{stroke:#231f20;stroke-width:0.26px;}.cls-4{fill:#9b938f;}.cls-5{fill:#e8eaea;}</style></defs><title>icon02</title><circle class="cls-1" cx="36.46" cy="36.46" r="35.59"/><path class="cls-2" d="M174.53,151.14c.88,0,1.12.56.52,1.25L173.67,154a3.88,3.88,0,0,1-2.49,1.25H118.81a3.84,3.84,0,0,1-2.48-1.25L115,152.38c-.6-.68-.36-1.24.52-1.24h59.06m0-1.61H115.47a2.31,2.31,0,0,0-2.27,1.3,2.36,2.36,0,0,0,.54,2.61l.66.76.72.85a5.41,5.41,0,0,0,3.69,1.81h52.37a5.42,5.42,0,0,0,3.7-1.81l.69-.81.7-.81a2.36,2.36,0,0,0,.53-2.6,2.38,2.38,0,0,0-2.27-1.3Z" transform="translate(-108.54 -108.54)"/><path class="cls-2" d="M145,124.77a4.1,4.1,0,0,1,4.1,4.09,4.17,4.17,0,0,1-.13,1c11.08,1.64,19.66,10,20.42,20.29H120.6c.76-10.26,9.35-18.66,20.44-20.29a3.66,3.66,0,0,1-.13-1,4.11,4.11,0,0,1,4.1-4.1m0-1.6a5.71,5.71,0,0,0-5.7,5.38C128.22,130.8,119.77,139.64,119,150l-.13,1.72h52.26L171,150c-.77-10.4-9.21-19.23-20.3-21.49a5.69,5.69,0,0,0-5.69-5.38Z" transform="translate(-108.54 -108.54)"/><path class="cls-3" d="M174.53,151.14H115.47c-.88,0-1.12.56-.52,1.24l1.38,1.62a3.84,3.84,0,0,0,2.48,1.25h52.37a3.88,3.88,0,0,0,2.49-1.25l1.38-1.61C175.65,151.7,175.41,151.14,174.53,151.14Z" transform="translate(-108.54 -108.54)"/><path class="cls-4" d="M149,129.87a4.17,4.17,0,0,0,.13-1,4.1,4.1,0,0,0-8.2,0,3.66,3.66,0,0,0,.13,1c-11.09,1.63-19.68,10-20.44,20.29h48.8C168.64,139.9,160.06,131.51,149,129.87Zm-2.63-.24-1.35,0c-.45,0-.9,0-1.34,0a1.49,1.49,0,0,1-.2-.76,1.55,1.55,0,0,1,3.09,0A1.49,1.49,0,0,1,146.35,129.63Z" transform="translate(-108.54 -108.54)"/><path class="cls-5" d="M167,148.55l-.21,0a1.13,1.13,0,0,1-1.11-.93,14.77,14.77,0,0,0-2.41-5.69,21.12,21.12,0,0,0-3.83-4.14,25.28,25.28,0,0,0-5.14-3.35,1.13,1.13,0,0,1,.92-2.06,26.84,26.84,0,0,1,5.62,3.63,23.51,23.51,0,0,1,4.27,4.6,17.14,17.14,0,0,1,2.8,6.6A1.14,1.14,0,0,1,167,148.55Z" transform="translate(-108.54 -108.54)"/></svg>