<svg id="Layer_1" data-name="Layer 1" xmlns="http://www.w3.org/2000/svg" viewBox="0 0 72.92 72.92"><defs><style>.cls-1{fill:#fff;fill-opacity:0.1;stroke:#5a4c4b;stroke-miterlimit:10;stroke-width:1.74px;}.cls-2{fill:#5a4c4b;}.cls-3{fill:#b5a8a0;}</style></defs><title>icon04</title><circle class="cls-1" cx="36.46" cy="36.46" r="35.59"/><path class="cls-2" d="M159.11,119.17a9.42,9.42,0,0,1,4.53,1.08l.58.32-.05.67a9.68,9.68,0,0,1-1.85,4.89,13,13,0,0,1-4.44,3.92,13.34,13.34,0,0,1-5.68,1.67h-.6a9.63,9.63,0,0,1-4.18-.9l-.82.81a2,2,0,0,1-.14.16l-.08.09-.11.11-.11.13-.13.15-.07.08-.11.13-.09.11c-.22.27-.42.55-.64.86l-.12.19c.69-.21,1.41-.5,2-.76l.62-.25a11.08,11.08,0,0,1,4.07-.83,9.5,9.5,0,0,1,4,.89,15,15,0,0,1,6.44,5.7,20.31,20.31,0,0,1,2.32,14.14,27,27,0,0,1-5.89,12.78,16,16,0,0,1-4.31,3.61,9.33,9.33,0,0,1-4.51,1.24l-.39,0a7.17,7.17,0,0,1-2.93-1,6.65,6.65,0,0,0-3.12-1,6.55,6.55,0,0,0-3.13,1,7.09,7.09,0,0,1-2.93,1h-.39c-3,0-6-1.68-8.82-4.84a26.86,26.86,0,0,1-5.88-12.77,20.19,20.19,0,0,1,2.32-14.13,14.58,14.58,0,0,1,3.15-3.67,11.22,11.22,0,0,1,7.21-2.83,13,13,0,0,1,4.62.92l.64.25a14.27,14.27,0,0,0,2.55.82,41.66,41.66,0,0,1-.26-12.95l.05-.31,3.71.83-.09.3A39.2,39.2,0,0,0,144.2,133a1.34,1.34,0,0,0,.07-.18l0-.08c0-.07.08-.16.12-.24v0a2.37,2.37,0,0,1,.15-.28.54.54,0,0,1,0-.1l.12-.19c.1-.2.22-.4.33-.59a3.13,3.13,0,0,0,.2-.3l.08-.1.14-.2a13.25,13.25,0,0,1,1-1.22l.09-.09a9.75,9.75,0,0,1,1.82-4.63,13.51,13.51,0,0,1,4.45-3.91,13.28,13.28,0,0,1,5.67-1.67h.62m0-1.86h-.7a15.32,15.32,0,0,0-6.48,1.9,15.62,15.62,0,0,0-4.14,3.29l.06-.18.09-.31.61-1.93-2-.44-3.71-.83-2-.43-.29,2,0,.31a43.61,43.61,0,0,0-.17,10.52l-.3-.11a14.78,14.78,0,0,0-5.25-1,13,13,0,0,0-8.38,3.24,16.46,16.46,0,0,0-3.57,4.14,22.07,22.07,0,0,0-2.56,15.41,28.65,28.65,0,0,0,6.31,13.67c3.13,3.59,6.66,5.48,10.22,5.48h.49a8.59,8.59,0,0,0,3.58-1.15l.09,0a5,5,0,0,1,2.29-.81,5.13,5.13,0,0,1,2.25.79l.06,0a8.73,8.73,0,0,0,3.65,1.2h.05l.43,0a11.09,11.09,0,0,0,5.4-1.47,18,18,0,0,0,4.82-4,28.87,28.87,0,0,0,6.32-13.69,22.13,22.13,0,0,0-2.58-15.43,16.88,16.88,0,0,0-5.47-5.46l.52-.28a15,15,0,0,0,5.06-4.48,11.58,11.58,0,0,0,2.19-5.84l0-.66.09-1.19-1-.57-.58-.32a11.26,11.26,0,0,0-5.42-1.31Z" transform="translate(-108.54 -108.54)"/><path class="cls-3" d="M162.16,138.4a15,15,0,0,0-6.44-5.7,9.5,9.5,0,0,0-4-.89,11.08,11.08,0,0,0-4.07.83l-.62.25c-.63.26-1.35.55-2,.76l.12-.19c.22-.31.42-.59.64-.86l.09-.11.11-.13.07-.08.13-.15.11-.13.11-.11.08-.09a2,2,0,0,0,.14-.16l.82-.81a9.63,9.63,0,0,0,4.18.9h.6a13.34,13.34,0,0,0,5.68-1.67,13,13,0,0,0,4.44-3.92,9.68,9.68,0,0,0,1.85-4.89l.05-.67-.58-.32a9.42,9.42,0,0,0-4.53-1.08h-.62a13.28,13.28,0,0,0-5.67,1.67,13.51,13.51,0,0,0-4.45,3.91,9.75,9.75,0,0,0-1.82,4.63l-.09.09a13.25,13.25,0,0,0-1,1.22l-.14.2-.08.1a3.13,3.13,0,0,1-.2.3c-.11.19-.23.39-.33.59l-.12.19a.54.54,0,0,0,0,.1,2.37,2.37,0,0,0-.15.28v0c0,.08-.08.17-.12.24l0,.08a1.34,1.34,0,0,1-.07.18,39.2,39.2,0,0,1,1.88-11.22l.09-.3-3.71-.83-.05.31a41.66,41.66,0,0,0,.26,12.95,14.27,14.27,0,0,1-2.55-.82l-.64-.25a13,13,0,0,0-4.62-.92,11.22,11.22,0,0,0-7.21,2.83,14.58,14.58,0,0,0-3.15,3.67,20.19,20.19,0,0,0-2.32,14.13,26.86,26.86,0,0,0,5.88,12.77c2.77,3.16,5.81,4.84,8.82,4.84h.39a7.09,7.09,0,0,0,2.93-1,6.55,6.55,0,0,1,3.13-1,6.65,6.65,0,0,1,3.12,1,7.17,7.17,0,0,0,2.93,1l.39,0a9.33,9.33,0,0,0,4.51-1.24,16,16,0,0,0,4.31-3.61,27,27,0,0,0,5.89-12.78A20.31,20.31,0,0,0,162.16,138.4Zm-30.31-2.48s-5.3,3-5.52,7.36a.8.8,0,0,1-.79.74h0a.81.81,0,0,1-.75-.83c.28-5.28,6.1-8.52,6.35-8.65a.82.82,0,0,1,.37-.1.79.79,0,0,1,.38,1.48Z" transform="translate(-108.54 -108.54)"/></svg>