<svg id="Layer_1" data-name="Layer 1" xmlns="http://www.w3.org/2000/svg" viewBox="0 0 72.92 72.92"><defs><style>.cls-1{fill:#fff;fill-opacity:0.1;stroke:#5a4c4b;stroke-miterlimit:10;stroke-width:1.74px;}.cls-2{fill:#5a4c4b;}.cls-3{fill:#d8d3cc;}.cls-4{fill:none;}.cls-5{fill:#7f6c65;}.cls-6{fill:#e8eaea;}.cls-7{fill:#9b938f;}</style></defs><title>icon01</title><circle class="cls-1" cx="36.46" cy="36.46" r="35.59"/><path class="cls-2" d="M162.23,121.4a3.17,3.17,0,0,1,3.17,3.18c0,1.63-1.89,3-2.65,3.49v0H127.24c-.73-.47-2.24-1.61-2.24-2.94v-.5a3.18,3.18,0,0,1,3.17-3.18h34.06m0-1.73H128.17a4.92,4.92,0,0,0-4.91,4.91v.5c0,2.12,1.9,3.67,3,4.4l.43.28H161v1.43l2.67-1.66c1.29-.82,3.46-2.56,3.46-5a4.91,4.91,0,0,0-4.91-4.91Z" transform="translate(-108.54 -108.54)"/><path class="cls-2" d="M162.75,130.11a5.91,5.91,0,0,0,2.94,3.32c-.94.68-1.59,1.61-3.25,1.68V161.7a5.47,5.47,0,0,1-5.48,5.47H133.44A5.48,5.48,0,0,1,128,161.7V135.11h-.12c-1.82,0-2.48-1-3.46-1.69a5.91,5.91,0,0,0,2.94-3.32h35.43m1.27-1.74h-38l-.39,1.21a4.14,4.14,0,0,1-2.18,2.36l-2.23,1.35,2.1,1.54c.18.13.34.27.5.4a6.35,6.35,0,0,0,2.38,1.41V161.7a7.22,7.22,0,0,0,7.21,7.21H157a7.23,7.23,0,0,0,7.22-7.21V136.52a6.52,6.52,0,0,0,2-1.29l.49-.4,2.11-1.54-2.23-1.35a4.14,4.14,0,0,1-2.18-2.36l-.39-1.21Z" transform="translate(-108.54 -108.54)"/><path class="cls-2" d="M162.23,121.4H128.17a3.18,3.18,0,0,0-3.17,3.18v.5c0,1.33,1.51,2.47,2.24,2.94h35.51v0c.76-.48,2.65-1.86,2.65-3.49A3.17,3.17,0,0,0,162.23,121.4Z" transform="translate(-108.54 -108.54)"/><path class="cls-3" d="M129.82,134.58v6.88h5.72v-8.25a3.62,3.62,0,0,0-2-.52C131.58,132.69,131,133.87,129.82,134.58Z" transform="translate(-108.54 -108.54)"/><path class="cls-4" d="M129.82,134.58a3.42,3.42,0,0,1-1.86.53h0a3.42,3.42,0,0,0,1.86-.53Z" transform="translate(-108.54 -108.54)"/><path class="cls-4" d="M162.23,135.12c-2.87,0-2.87-2.43-5.74-2.43s-2.87,2.43-5.74,2.43-2.87-2.41-5.72-2.43-2.85,2.43-5.71,2.43c-2,0-2.62-1.2-3.78-1.91h0c1.16.72,1.77,1.91,3.78,1.91,2.86,0,2.87-2.41,5.71-2.43s2.86,2.43,5.72,2.43,2.87-2.43,5.74-2.43,2.87,2.43,5.74,2.43h0Z" transform="translate(-108.54 -108.54)"/><path class="cls-4" d="M133.58,132.69a3.62,3.62,0,0,1,2,.52h0a3.62,3.62,0,0,0-2-.52c-2,0-2.6,1.18-3.76,1.89h0C131,133.87,131.58,132.69,133.58,132.69Z" transform="translate(-108.54 -108.54)"/><path class="cls-5" d="M145.2,137.6a11.82,11.82,0,0,0-8.72,3.86H128V158h8.52a11.8,11.8,0,0,0,17.44,0h8.52V141.46h-8.52A11.81,11.81,0,0,0,145.2,137.6Z" transform="translate(-108.54 -108.54)"/><path class="cls-6" d="M149.64,147.28c1.92,2.27,3,5.13-.3,7.22-3.55,2.29-7.49,3.66-9.86,1.3s-1.09-6,1.31-9.86c1.81-2.93,4.32-2.4,6.46-.88a14,14,0,0,1-.38-5.24c1.74,2.19,2,3.76,1.72,5.45,1-1.16,2.35-1.86,4.88-2a15.16,15.16,0,0,1-3.79,3.09c1.89-.49,3.55-.3,5.95,1.6A12.67,12.67,0,0,1,149.64,147.28Z" transform="translate(-108.54 -108.54)"/><path class="cls-2" d="M162.75,130.11H127.32a5.91,5.91,0,0,1-2.94,3.32c1,.71,1.64,1.69,3.46,1.69H128a3.42,3.42,0,0,0,1.86-.53c1.16-.71,1.76-1.89,3.76-1.89a3.62,3.62,0,0,1,2,.52c1.16.71,1.77,1.91,3.78,1.91,2.86,0,2.87-2.41,5.71-2.43s2.86,2.43,5.72,2.43,2.87-2.43,5.74-2.43,2.87,2.43,5.74,2.43h.21c1.66-.07,2.31-1,3.25-1.68A5.91,5.91,0,0,1,162.75,130.11Z" transform="translate(-108.54 -108.54)"/><path class="cls-4" d="M135.3,167.18h0Z" transform="translate(-108.54 -108.54)"/><path class="cls-7" d="M156.49,132.69c-2.87,0-2.87,2.43-5.74,2.43s-2.87-2.41-5.72-2.43-2.85,2.43-5.71,2.43c-2,0-2.62-1.19-3.78-1.91v8.25h.94a11.78,11.78,0,0,1,17.44,0h8.52v-6.35h-.21C159.36,135.12,159.36,132.69,156.49,132.69Z" transform="translate(-108.54 -108.54)"/><path class="cls-7" d="M145.2,161.84a11.81,11.81,0,0,1-8.72-3.85h-.94v3.7a5.48,5.48,0,0,0,5.34,5.48H157a5.47,5.47,0,0,0,5.48-5.47V158h-8.52A11.8,11.8,0,0,1,145.2,161.84Z" transform="translate(-108.54 -108.54)"/><path class="cls-3" d="M135.54,161.69V158h-5.72v3.7a5.48,5.48,0,0,0,5.34,5.48h5.72A5.48,5.48,0,0,1,135.54,161.69Z" transform="translate(-108.54 -108.54)"/><path class="cls-7" d="M129.82,161.69V158H128v3.71a5.48,5.48,0,0,0,5.48,5.47h1.72A5.48,5.48,0,0,1,129.82,161.69Z" transform="translate(-108.54 -108.54)"/><path class="cls-7" d="M129.82,134.58a3.42,3.42,0,0,1-1.86.53v6.35h1.86Z" transform="translate(-108.54 -108.54)"/></svg>