<svg id="Layer_1" data-name="Layer 1" xmlns="http://www.w3.org/2000/svg" viewBox="0 0 72.92 72.92"><defs><style>.cls-1{fill:#fff;fill-opacity:0.1;stroke:#5a4c4b;stroke-miterlimit:10;stroke-width:1.74px;}.cls-2{fill:#5a4c4b;}.cls-3{fill:#d8d3cc;}.cls-4{fill:#7f6c65;}.cls-5{fill:#e8eaea;}</style></defs><title>icon05</title><circle class="cls-1" cx="36.46" cy="36.46" r="35.59"/><path class="cls-2" d="M145.52,120.28a26,26,0,0,1,4.26.46C163.62,123,166.52,130,167,131.34a23.91,23.91,0,0,1,1.15,3.57,9,9,0,0,1,1.86,1.15c.78.6.79.73.38,1.46-.26.45-.59,1.06-1.13,1.18,0,.37.17,1.54,0,1.81s-.22.23-.29.23-.18-.35-.41-.46-.63-.17-.66-.2a0,0,0,0,1,0,0,6.91,6.91,0,0,1-.06,3.06,3,3,0,0,1-.34.79c1,.67,1.92,1.44,2.81,2.13s2.14,1,2.78,1.85c.25.34.4.41,0,.61a1.59,1.59,0,0,1-.64.1c-.53,0-1.19-.1-1.5-.1a23.92,23.92,0,0,0-2.94.16c-.26,0-.52.07-.76.11l.85,2.5h.42a1,1,0,0,1,.64.18c.35.26.45.74.83,1,.54.36,1,.28,1.07,1a1.8,1.8,0,0,1-.26,1.17c-.27.34-1.05.4-1.14.76s.77.74.69,1.11c-.17.8-1.63,0-1.25,1.38.12.43.49.5.22,1.12a1,1,0,0,1-1,.58h-.12a2.08,2.08,0,0,1-1.08-.36,6.47,6.47,0,0,0-1.67-1,1.62,1.62,0,0,0-.37-.06c-.46,0-.17.46-.63.65a.56.56,0,0,1-.23.05c-.3,0-.38-.34-.68-.55a1.52,1.52,0,0,0-.73-.36c-.38,0-.2.71-.37,1.19l4.68.07.23,1.88s-5.92,5.39-22.85,5.62h-1c-16.09,0-19.12-5.63-19.12-5.63l-.1-2.46h-.09c-.6,0-1.24.26-1.87.26a1.69,1.69,0,0,1-.69-.13c-1.23-.55,0-1.19.63-1.63s.24-.16.28-.77c0-.38.35-.64.35-1,0-.7-1.06-.77-1-1.59.06-.66,1-1,1.62-1.39a8.88,8.88,0,0,1-.4-2.64,15.86,15.86,0,0,0-1.51-.71c-.84-.35-1.76-.66-2.62-1a5.28,5.28,0,0,0-1.82-.48h0a11.88,11.88,0,0,1,2.7-2.59c.81-.64,1.61-1.29,2.4-1.93l.65-3.43-.12,0c-.46,0-1.36.51-2,.51a.52.52,0,0,1-.54-.33c-.2-.51.6-.64.81-1a2.23,2.23,0,0,0,.16-1.15c0-.59.19-1.34.76-1.34h.1a12.77,12.77,0,0,1,.68-5,14.08,14.08,0,0,1,3.16-4.51c1.55-1.65,4.15-2.83,6.15-3.86s4-1.15,5.89-1.9,4.06-.48,6.18-.69c.46,0,.9-.06,1.33-.06m0-1.86a15,15,0,0,0-1.51.07c-.6.06-1.21.07-1.85.09a13.26,13.26,0,0,0-4.83.72,19.39,19.39,0,0,1-2.26.67,17.46,17.46,0,0,0-3.8,1.3l-.81.41a20.51,20.51,0,0,0-5.85,3.84,15.56,15.56,0,0,0-3.54,5.11,12.58,12.58,0,0,0-.79,4.53,3.49,3.49,0,0,0-.87,2.36,1.7,1.7,0,0,0,0,.22,2.21,2.21,0,0,0-.84,2.68,2.34,2.34,0,0,0,2,1.51V142c-.61.5-1.23,1-1.85,1.48a13.58,13.58,0,0,0-3.09,3,1.85,1.85,0,0,0,1.53,2.91h0a3.67,3.67,0,0,1,1.11.34l1.43.55c.41.15.82.3,1.21.46l.41.18a5.52,5.52,0,0,0,.07.55,2.85,2.85,0,0,0-1.35,2.12,2.59,2.59,0,0,0,.72,2.07l-.06.22a2.83,2.83,0,0,0-1.48,2.48,2.47,2.47,0,0,0,1.63,2.07,3.62,3.62,0,0,0,1.45.3h.18l0,.41a1.79,1.79,0,0,0,.22.82c.36.67,4,6.6,20.76,6.6h1c17.43-.24,23.81-5.87,24.08-6.11a1.86,1.86,0,0,0,.59-1.14,2.71,2.71,0,0,0,1.85-1.59,2.65,2.65,0,0,0,.22-1.45,2.17,2.17,0,0,0,.92-1.41,1.86,1.86,0,0,0,0-1l.1-.12a3.64,3.64,0,0,0,.65-2.55,2.68,2.68,0,0,0-1.71-2.26l-.07,0,0,0a4.56,4.56,0,0,0-.39-.54h.23l.38,0c.33,0,.73.07,1.12.07a3.14,3.14,0,0,0,1.52-.32,2.09,2.09,0,0,0,1.17-1.46,2.13,2.13,0,0,0-.52-1.83l-.07-.09a6.6,6.6,0,0,0-2.28-1.71,5.87,5.87,0,0,1-.84-.49l-.6-.47-1.11-.86a7,7,0,0,0,.12-.82,2.7,2.7,0,0,0,.88-.73,3,3,0,0,0,.5-2,6.13,6.13,0,0,0,.8-1.12l0-.06c.88-1.59.62-2.74-.85-3.87a11,11,0,0,0-1.39-.94c-.26-1-.62-1.91-.87-2.59l-.15-.38c-1-2.78-4.94-9.52-18.69-11.78a27.52,27.52,0,0,0-4.56-.48Z" transform="translate(-108.54 -108.54)"/><path class="cls-3" d="M122.13,136.28a12.77,12.77,0,0,1,.68-5,14,14,0,0,1,3.17-4.51c1.54-1.66,4.14-2.83,6.14-3.86s4-1.15,5.89-1.9,4.06-.48,6.18-.69a20.49,20.49,0,0,1,5.58.4C163.62,123,166.52,130,167,131.33a24.47,24.47,0,0,1,1.15,3.58c.25,1.25.18,2.34-.73,2.63L166,138l-.72.22A91.24,91.24,0,0,1,152,141.12l-.27,0h0a56.86,56.86,0,0,1-17.83-.18c-8-1.47-11.73-4.5-11.73-4.5Z" transform="translate(-108.54 -108.54)"/><path class="cls-3" d="M167.08,159.19l.24,1.88s-2.09,1.9-7.33,3.5l-.45-1.29c.36,0,.68-.21.93-.79.31-.75,0-1.44.11-2.17.16-1.11,1.11-.18,1.71-1a.7.7,0,0,0,.11-.21Z" transform="translate(-108.54 -108.54)"/><path class="cls-4" d="M138.18,152.43a41.33,41.33,0,0,1,8.62.76,18.53,18.53,0,0,1,1.9.54h0a12.16,12.16,0,0,1,4.49,2.5A27.67,27.67,0,0,0,156,154.4c1.05-.67,2.17-1.22,3.24-1.88l.38-.22c1-.54,2-1,2.88-1.57a12.27,12.27,0,0,1,2.46-1.35,11.41,11.41,0,0,1,2.26-.61l.86,2.5a4.33,4.33,0,0,1-.67,2.7c-1.2,1.55-3.18,2.2-5.17,2.65h0c-1.12.27-2.23.48-3.21.75a40.88,40.88,0,0,1-11.18,1.35c-1.35,0-2.68,0-4,0-2.21,0-4.4-.12-6.61-.32-1.86-.17-3.59-.91-5.39-1.19a9.46,9.46,0,0,1-2.71-1h0c-.42-.2-.84-.4-1.29-.57-1.26-.46-3.2-1.23-4-2.47a4.23,4.23,0,0,1-.34-.74,8.88,8.88,0,0,1-.4-2.64c.36.18.73.36,1.1.52a29,29,0,0,0,2.89,1.07,19.25,19.25,0,0,0,5.88,1.1Z" transform="translate(-108.54 -108.54)"/><path class="cls-2" d="M168.54,140.28c-.09,0-.63-.17-.66-.2h0c-.52-.51-.31-1.15-1.29-1.06l-.22,0L166,138l1.42-.44c.91-.29,1-1.38.73-2.63a9,9,0,0,1,1.86,1.15c.78.6.79.73.38,1.46-.26.45-.59,1.06-1.14,1.18,0,.37.18,1.54,0,1.81C168.78,141.09,168.86,140.43,168.54,140.28Z" transform="translate(-108.54 -108.54)"/><path class="cls-3" d="M167.08,159.19l-4.68-.06c.24-.67-.2-1.76,1.1-.84.36.26.4.71.91.5s0-.84,1-.59A6.82,6.82,0,0,1,167.08,159.19Z" transform="translate(-108.54 -108.54)"/><path class="cls-2" d="M162.29,159.34c-.6.8-1.55-.13-1.71,1-.1.73.2,1.42-.11,2.17-.25.58-.57.79-.93.79a4.53,4.53,0,0,1-1.83-.87c-.55-.32-.62-.4-.68-1s.18-1-.38-1.17a.61.61,0,0,0-.24,0l0-1.14,6,.08A.7.7,0,0,1,162.29,159.34Z" transform="translate(-108.54 -108.54)"/><path class="cls-4" d="M152.74,141.32h0c.64,0,1.33.1,1.79.15a5.47,5.47,0,0,1,1,.19h0c.63.17,1.24.43,1.86.65a6.59,6.59,0,0,0,1.73.38,15.79,15.79,0,0,0,2.22-.4,4.89,4.89,0,0,0,.83-.17c.48-.14.95-.33,1.36-.49s1.23-.22,1.57-.7c.2-.27.07-.56.17-.85a1.69,1.69,0,0,1,1.07-1l.22,0c1-.09.77.55,1.29,1.06a7,7,0,0,1-.05,3.05,4.09,4.09,0,0,1-.35.79,5.4,5.4,0,0,1-2.35,1.89,23.33,23.33,0,0,1-4,1.58,30.73,30.73,0,0,1-4.39,1,16.44,16.44,0,0,0-2.48.74,9,9,0,0,1-2.74.25,47.83,47.83,0,0,1-4.95-.13c-3.31-.33-6.64-.1-9.93-.4A41.92,41.92,0,0,1,126.34,147a8.54,8.54,0,0,1-3.42-2.21,2.69,2.69,0,0,1-.64-1.77l.64-3.43a5,5,0,0,1,1.85,1.3,11.77,11.77,0,0,1,1,2.81c.26.93.37,1.38,1.39,1a2.73,2.73,0,0,1,1.4-.43,7.52,7.52,0,0,1,2.28.18,6.89,6.89,0,0,0,2.86.06c1.43-.09,2.58.78,3.83,1.21a4.23,4.23,0,0,0,1.63.19c.81,0,.76,0,1-.66.17-.47,0-.71.45-1.07a2.67,2.67,0,0,1,1.68-.32c1.52,0,2.47.65,3.89.82a2.18,2.18,0,0,0,1.73-.36c.4-.33.53-1,.9-1.28s.9-.17,1.43-.4.73-.85,1.21-1.09a1.76,1.76,0,0,1,.56-.17,5,5,0,0,1,.69,0h0Z" transform="translate(-108.54 -108.54)"/><path class="cls-5" d="M122.92,144.79a8.54,8.54,0,0,0,3.42,2.21,41.92,41.92,0,0,0,10.29,1.83c3.29.3,6.62.07,9.93.4a47.83,47.83,0,0,0,4.95.13,9,9,0,0,0,2.74-.25,16.44,16.44,0,0,1,2.48-.74,30.73,30.73,0,0,0,4.39-1,23.33,23.33,0,0,0,4-1.58,5.4,5.4,0,0,0,2.35-1.89c1,.67,1.93,1.44,2.81,2.13s2.14,1,2.78,1.85c.26.34.4.41,0,.61a6.74,6.74,0,0,1-2.15,0,24.25,24.25,0,0,0-2.94.16c-.25,0-.5.07-.75.11a11.41,11.41,0,0,0-2.26.61,12.27,12.27,0,0,0-2.46,1.35c-.88.6-1.93,1-2.88,1.57l-.38.22c-1.07.66-2.19,1.21-3.24,1.88a27.67,27.67,0,0,1-2.82,1.83,12.16,12.16,0,0,0-4.49-2.5h0a18.53,18.53,0,0,0-1.9-.54,41.33,41.33,0,0,0-8.62-.76H133a19.25,19.25,0,0,1-5.88-1.1,29,29,0,0,1-2.89-1.07c-.37-.16-.74-.34-1.1-.52s-1-.51-1.5-.71c-.84-.35-1.77-.66-2.63-1a5.17,5.17,0,0,0-1.84-.48,11.92,11.92,0,0,1,2.71-2.59l2.41-1.93A2.69,2.69,0,0,0,122.92,144.79Z" transform="translate(-108.54 -108.54)"/><path class="cls-2" d="M147.86,158.72A40.88,40.88,0,0,0,159,157.37c1-.27,2.09-.48,3.21-.75h0c2-.45,4-1.1,5.17-2.65a4.33,4.33,0,0,0,.67-2.7,1.58,1.58,0,0,1,1,.17c.35.26.45.73.84,1s1,.28,1.06,1a1.82,1.82,0,0,1-.27,1.17c-.26.34-1.05.4-1.14.76s.78.74.7,1.11c-.17.8-1.64,0-1.25,1.38.12.44.48.5.21,1.12s-.6.59-1.13.57a2,2,0,0,1-1.07-.36h0a6.82,6.82,0,0,0-1.67-1c-1-.25-.45.36-1,.59s-.55-.24-.91-.5c-1.3-.92-.86.17-1.1.84l-6-.08-12.57-.17v-.19C145.18,158.71,146.51,158.72,147.86,158.72Z" transform="translate(-108.54 -108.54)"/><path class="cls-2" d="M131.86,157.18c1.8.28,3.53,1,5.39,1.19,2.21.2,4.4.28,6.61.32v.19l-19.57-.27c-.85,0-1.78.51-2.66.13-1.22-.55,0-1.19.63-1.63s.24-.16.28-.77c0-.38.35-.64.35-1,0-.71-1-.78-1-1.6.06-.66,1-1,1.62-1.39a4.23,4.23,0,0,0,.34.74c.78,1.24,2.72,2,4,2.47.45.17.87.37,1.29.57h0A9.46,9.46,0,0,0,131.86,157.18Z" transform="translate(-108.54 -108.54)"/><path class="cls-2" d="M143.86,158.88l12.57.17,0,1.14c-.44,0-1,.3-1.45.34-.78.08-.67.15-1.15.67s-.32.52-1.09.27-.74-.32-1.32.17a1.49,1.49,0,0,1-1.38.49,4.83,4.83,0,0,0-1.42,0c-.72.33-.74,2.22-.71,2.86-1.49.14-2.25-1.38-2.62-2.64-.12-.41,0-1.38-.36-1.66-.59-.47-1,.35-.91.88-.81.22-.6-.54-1-.89-.59-.54-.82.09-1.23.35s-1.23.16-1.61.5c-.23.2-.06.44-.36.63a2,2,0,0,1-1.08,0c-1.21-.26-1.12-2-2.73-1.16-.43.2-.63.53-1.12.62-.76.14-.84-.16-1.34-.54-.93-.7-1.84-.24-2.81.07-1.28.41-3,.49-4-.46-.55-.49-1.24-1.72-1.93-2a1.53,1.53,0,0,0-.5-.1Z" transform="translate(-108.54 -108.54)"/><path class="cls-3" d="M124.38,161.07l-.09-2.46a1.53,1.53,0,0,1,.5.1c.69.28,1.38,1.51,1.93,2,1,.95,2.73.87,4,.46,1-.31,1.88-.77,2.81-.07.5.38.58.68,1.34.54.49-.09.69-.42,1.12-.62,1.61-.79,1.52.9,2.73,1.16a2,2,0,0,0,1.08,0c.3-.19.13-.43.36-.63.38-.34,1.19-.24,1.61-.5s.64-.89,1.23-.35c.39.35.18,1.11,1,.89-.06-.53.32-1.35.91-.88.34.28.24,1.25.36,1.66.37,1.26,1.13,2.78,2.62,2.64,0-.64,0-2.53.71-2.86a4.83,4.83,0,0,1,1.42,0,1.49,1.49,0,0,0,1.38-.49c.58-.49.62-.39,1.32-.17s.65.21,1.09-.27.37-.59,1.15-.67c.4,0,1-.34,1.45-.34a.61.61,0,0,1,.24,0c.56.22.33.68.38,1.17s.13.69.68,1a4.53,4.53,0,0,0,1.83.87l.45,1.29a56.43,56.43,0,0,1-15.53,2.12C127.53,166.93,124.38,161.07,124.38,161.07Z" transform="translate(-108.54 -108.54)"/><path class="cls-2" d="M121.27,137.62c0-.62.21-1.42.86-1.34v.2s3.7,3,11.73,4.5a56.86,56.86,0,0,0,17.83.18h0l.27,0,0,.24a1.76,1.76,0,0,0-.56.17c-.48.24-.68.85-1.21,1.09s-1,0-1.43.4-.5.95-.9,1.28a2.18,2.18,0,0,1-1.73.36c-1.42-.17-2.37-.82-3.89-.82a2.67,2.67,0,0,0-1.68.32c-.45.36-.28.6-.45,1.07-.24.63-.19.61-1,.66a4.23,4.23,0,0,1-1.63-.19c-1.25-.43-2.4-1.3-3.83-1.21a6.89,6.89,0,0,1-2.86-.06,7.52,7.52,0,0,0-2.28-.18,2.73,2.73,0,0,0-1.4.43c-1,.4-1.13-.05-1.39-1a11.77,11.77,0,0,0-1-2.81,5,5,0,0,0-1.85-1.3c-.55-.17-2.28,1.06-2.62.16-.2-.51.6-.64.8-1A2,2,0,0,0,121.27,137.62Z" transform="translate(-108.54 -108.54)"/></svg>