<svg id="Layer_1" data-name="Layer 1" xmlns="http://www.w3.org/2000/svg" viewBox="0 0 72.92 72.92"><defs><style>.cls-1{fill:#fff;fill-opacity:0.1;stroke:#fff;stroke-miterlimit:10;stroke-width:1.74px;}.cls-2{fill:#5a4c4b;}.cls-3{fill:#d8d3cc;}.cls-4{fill:none;}.cls-5{fill:#7f6c65;}.cls-6{fill:#e8eaea;}.cls-7{fill:#9b938f;}</style></defs><title>icon01clicked</title><circle class="cls-1" cx="36.46" cy="36.46" r="35.59"/><path class="cls-2" d="M164.82,121.74a3.16,3.16,0,0,1,3.17,3.17c0,1.63-1.89,3-2.65,3.49v-.05H129.83c-.73-.47-2.24-1.61-2.24-2.94v-.5a3.17,3.17,0,0,1,3.17-3.17h34.06m0-1.74H130.76a4.92,4.92,0,0,0-4.91,4.91v.5c0,2.13,1.9,3.67,3,4.4l.43.28H163.6v1.43l2.67-1.65c1.3-.83,3.46-2.57,3.46-5a4.91,4.91,0,0,0-4.91-4.91Z" transform="translate(-111.13 -108.88)"/><path class="cls-2" d="M165.34,130.44a5.91,5.91,0,0,0,2.94,3.32c-.94.69-1.59,1.61-3.25,1.69V162a5.48,5.48,0,0,1-5.48,5.48H136a5.48,5.48,0,0,1-5.48-5.48V135.45h-.12c-1.82,0-2.48-1-3.46-1.69a5.91,5.91,0,0,0,2.94-3.32h35.43m1.27-1.74h-38l-.39,1.21a4.18,4.18,0,0,1-2.18,2.37l-2.23,1.35,2.1,1.53c.18.13.34.27.5.41a6.34,6.34,0,0,0,2.38,1.4V162a7.21,7.21,0,0,0,7.21,7.21h23.52a7.22,7.22,0,0,0,7.22-7.21V136.85a6.69,6.69,0,0,0,2-1.28c.16-.14.32-.28.49-.41l2.11-1.53-2.23-1.35a4.17,4.17,0,0,1-2.18-2.36l-.39-1.22Z" transform="translate(-111.13 -108.88)"/><path class="cls-2" d="M164.82,121.74H130.76a3.17,3.17,0,0,0-3.17,3.17v.5c0,1.33,1.51,2.47,2.24,2.94h35.51v.05c.76-.48,2.65-1.86,2.65-3.49A3.16,3.16,0,0,0,164.82,121.74Z" transform="translate(-111.13 -108.88)"/><path class="cls-3" d="M132.41,134.92v6.88h5.72v-8.25a3.54,3.54,0,0,0-2-.52C134.17,133,133.57,134.2,132.41,134.92Z" transform="translate(-111.13 -108.88)"/><path class="cls-4" d="M132.41,134.91a3.5,3.5,0,0,1-1.86.54h0a3.6,3.6,0,0,0,1.86-.53Z" transform="translate(-111.13 -108.88)"/><path class="cls-4" d="M164.82,135.45c-2.87,0-2.87-2.42-5.74-2.42s-2.87,2.42-5.74,2.42-2.87-2.41-5.72-2.42-2.85,2.42-5.71,2.42c-2,0-2.62-1.19-3.78-1.9h0c1.16.71,1.77,1.9,3.78,1.9,2.86,0,2.87-2.41,5.71-2.42s2.86,2.42,5.72,2.42,2.87-2.42,5.74-2.42,2.87,2.42,5.74,2.42h0Z" transform="translate(-111.13 -108.88)"/><path class="cls-4" d="M136.17,133a3.54,3.54,0,0,1,2,.52h0a3.54,3.54,0,0,0-2-.52c-2,0-2.6,1.17-3.76,1.88h0C133.57,134.2,134.17,133,136.17,133Z" transform="translate(-111.13 -108.88)"/><path class="cls-5" d="M147.79,137.94a11.79,11.79,0,0,0-8.72,3.86h-8.52v16.52h8.52a11.78,11.78,0,0,0,17.44,0H165V141.8h-8.52A11.75,11.75,0,0,0,147.79,137.94Z" transform="translate(-111.13 -108.88)"/><path class="cls-6" d="M152.23,147.62c1.92,2.26,3,5.12-.3,7.21-3.54,2.29-7.49,3.67-9.86,1.3s-1.09-6,1.31-9.85c1.81-2.94,4.32-2.4,6.46-.88a13.85,13.85,0,0,1-.37-5.25c1.73,2.19,2,3.76,1.71,5.46,1-1.16,2.35-1.86,4.88-2a14.81,14.81,0,0,1-3.79,3.09c1.89-.49,3.55-.3,5.95,1.6A12.8,12.8,0,0,1,152.23,147.62Z" transform="translate(-111.13 -108.88)"/><path class="cls-2" d="M165.34,130.44H129.91a5.91,5.91,0,0,1-2.94,3.32c1,.72,1.64,1.69,3.46,1.69h.12a3.5,3.5,0,0,0,1.86-.54c1.16-.71,1.76-1.88,3.76-1.88a3.54,3.54,0,0,1,2,.52c1.16.71,1.77,1.9,3.78,1.9,2.86,0,2.87-2.41,5.71-2.42s2.86,2.42,5.72,2.42,2.87-2.42,5.74-2.42,2.87,2.42,5.74,2.42H165c1.66-.08,2.31-1,3.25-1.69A5.91,5.91,0,0,1,165.34,130.44Z" transform="translate(-111.13 -108.88)"/><path class="cls-4" d="M137.89,167.51h0Z" transform="translate(-111.13 -108.88)"/><path class="cls-7" d="M159.08,133c-2.87,0-2.87,2.42-5.74,2.42s-2.87-2.41-5.72-2.42-2.85,2.42-5.71,2.42c-2,0-2.62-1.19-3.78-1.9v8.25h.94a11.78,11.78,0,0,1,17.44,0H165v-6.35h-.21C162,135.45,162,133,159.08,133Z" transform="translate(-111.13 -108.88)"/><path class="cls-7" d="M147.79,162.18a11.82,11.82,0,0,1-8.72-3.86h-.94V162a5.49,5.49,0,0,0,5.34,5.48h16.08A5.48,5.48,0,0,0,165,162v-3.71h-8.52A11.79,11.79,0,0,1,147.79,162.18Z" transform="translate(-111.13 -108.88)"/><path class="cls-3" d="M138.13,162v-3.71h-5.72V162a5.49,5.49,0,0,0,5.34,5.48h5.72A5.49,5.49,0,0,1,138.13,162Z" transform="translate(-111.13 -108.88)"/><path class="cls-7" d="M132.41,162v-3.71h-1.86V162a5.48,5.48,0,0,0,5.48,5.48h1.72A5.49,5.49,0,0,1,132.41,162Z" transform="translate(-111.13 -108.88)"/><path class="cls-7" d="M132.41,134.92a3.6,3.6,0,0,1-1.86.53v6.35h1.86Z" transform="translate(-111.13 -108.88)"/></svg>